<?xml version="1.0" encoding="utf-8"?>
<!-- Generator: Adobe Illustrator 24.2.1, SVG Export Plug-In . SVG Version: 6.00 Build 0)  -->
<svg version="1.1" id="レイヤー_1" xmlns="http://www.w3.org/2000/svg" xmlns:xlink="http://www.w3.org/1999/xlink" x="0px"
	 y="0px" viewBox="0 0 250 250" style="enable-background:new 0 0 250 250;" xml:space="preserve">
<style type="text/css">
	.st0{fill:#AA1E2F;}
	.st1{fill:#FFFFFF;}
</style>
<g id="グループ_6" transform="translate(-2048.73 -1599)">
	<circle class="st0" cx="2174.06" cy="1724.13" r="118.52"/>
	<g>
		<path class="st1" d="M2103.11,1660.63l0.1-0.37c0.9-0.03,1.92-0.03,3.35,0.22c1.92,0.32,4.05,1.37,4.05,3.2
			c0,0.72-0.32,1.7-1.65,1.7c-1.4,0-1.92-1.2-3.05-2.27C2104.68,1661.86,2103.73,1661.03,2103.11,1660.63z M2123.88,1658.76
			l0.38,0.25c-2.32,5.12-8.15,10.62-13.57,13.92c-0.97,0.6-1.35,1.5-2.3,1.5c-1.23,0-2.95-1.17-3.77-2.47
			c-0.47-0.75-0.65-2.07-0.65-2.9l0.3-0.15c0.45,0.45,1.32,1.5,2.37,1.5C2110.11,1670.41,2119.75,1663.36,2123.88,1658.76z
			 M2106.18,1655.19l0.1-0.37c0.77-0.07,1.97-0.15,3.72,0.12s3.6,1.12,3.6,3.07c0,0.8-0.67,1.6-1.5,1.6c-1.45,0-1.9-0.95-3.22-2.22
			C2107.86,1656.41,2107.03,1655.74,2106.18,1655.19z"/>
		<path class="st1" d="M2131.79,1659.46c0.65-0.35,1.2-0.67,2.2-0.67c0.9,0,3.12,0.42,3.12,1.22c0,0.52-0.18,1.25-0.15,1.8
			c0.02,0.25,0.05,0.7,0.12,1.2c1.65-0.42,3.65-1,4.17-1.17c0.5-0.17,1.02-0.65,1.4-0.65c1.02,0,3.2,1.72,3.2,2.92
			c0,0.62-1.1,0.65-1.47,0.95c-1.02,0.8-2.67,2.25-4.7,3.17l-0.2-0.15c0.87-1.45,1.65-3.3,1.95-4.17c0.08-0.22-0.02-0.3-0.3-0.25
			c-0.73,0.15-2.12,0.62-3.72,1.1c0.62,2.6,1.32,5.2,1.72,6.6c0.15,0.52,0.55,1.6,0.55,2.3c0,0.95-0.4,1.37-1.32,1.37
			c-1.3,0-2.25-1.1-2.3-2.45c-0.05-1.47-0.45-4.3-1.12-7.02c-0.65,0.22-1.27,0.5-1.65,0.67c-1.02,0.47-1.45,1.07-2.05,1.07
			c-0.98,0-2.07-1.12-2.32-1.82c-0.15-0.4-0.12-1.1-0.02-1.65l0.12-0.03c0.55,0.35,0.8,0.6,1.57,0.6c0.72,0,2.32-0.37,3.85-0.75
			c-0.33-1.2-0.62-2.25-0.92-2.77c-0.25-0.45-0.98-0.92-1.72-1.25V1659.46z"/>
		<path class="st1" d="M2151.62,1655.64c3.75,0.2,8.2,1.55,8.2,4.47c0,1.07-0.82,2.05-2.02,2.05c-1.02,0-1.62-0.55-2.25-1.47
			c-1.17-1.75-1.62-2.7-4.12-4.7L2151.62,1655.64z M2171.09,1658.19l0.4,0.28c-2.75,5.55-7.25,10.12-13.2,13.72
			c-0.98,0.6-1.3,1.52-2.12,1.52c-1.67,0-3.52-1.65-4.05-2.75c-0.32-0.67-0.57-1.75-0.55-2.62l0.33-0.2c0.5,0.47,1.42,1.5,2.4,1.5
			C2157.36,1669.63,2167.49,1662.73,2171.09,1658.19z"/>
		<path class="st1" d="M2179.67,1657.44c2.3,0,7.75-0.57,9.17-0.9c1.22-0.27,1.22-0.67,2.05-0.67c1.38,0,4.4,2.72,4.4,3.72
			s-1.02,1.27-1.45,2.07c-3.2,6.02-7.82,10.77-16.3,13.27l-0.25-0.45c6.65-3.55,11.8-10.12,12.85-15.42
			c0.02-0.12-0.05-0.22-0.18-0.22c-2,0-6.7,1.25-8.12,1.65c-0.52,0.15-1.2,0.67-1.82,0.67c-1.3,0-2.75-1.87-3-2.97
			c-0.17-0.75-0.12-1.25-0.1-1.9l0.3-0.12C2178.04,1656.91,2178.72,1657.44,2179.67,1657.44z M2193.14,1654.89
			c0-1.57,1.25-2.82,2.82-2.82c1.57,0,2.82,1.25,2.82,2.82c0,1.57-1.25,2.82-2.82,2.82
			C2194.39,1657.71,2193.14,1656.46,2193.14,1654.89z M2194.26,1654.89c0,0.95,0.75,1.7,1.7,1.7s1.7-0.75,1.7-1.7
			c0-0.95-0.75-1.7-1.7-1.7S2194.26,1653.94,2194.26,1654.89z"/>
		<path class="st1" d="M2201.27,1661.51c0.85,1.05,1.3,1.67,2.77,1.67c2.9,0,9.82-0.47,11.52-0.62c1.67-0.15,3.02-0.4,3.62-0.4
			c1.77,0,3.17,0.97,3.17,2.25c0,0.87-0.8,1.25-1.95,1.25c-1.05,0-1.92-0.08-3.82-0.08c-2.05,0-6.9,0.35-8.85,0.55
			c-2,0.2-2.42,0.9-3.47,0.9c-1.15,0-2.87-1.8-3.4-3.22c-0.22-0.62-0.12-1.5,0.02-2.17L2201.27,1661.51z"/>
		<path class="st1" d="M2238.14,1657.04c1,0,1.87,0.03,2.57,0.37c1.07,0.47,2.27,1.7,2.27,2.7c0,0.65-0.38,0.97-1.67,1.37
			c-2.1,0.62-5.02,1.8-7.25,3.1c-2.35,1.4-3.87,2.97-3.87,4.57c0,1.52,1.47,2.1,4.07,2.1c3.4,0,5.45-0.82,5.87-0.82
			c1.8,0,3.4,0.4,3.4,1.85c0,0.62-0.55,1.35-1.32,1.67c-1.12,0.45-3.75,0.75-6.47,0.75c-4.3,0-7.62-1.47-7.62-4.67
			c0-2.77,2.3-5.32,4.5-7c-0.65-0.35-1.12-0.82-1.47-1.47c-0.6-1.1-0.92-3.65-1.12-5.05c-0.1-0.65-0.35-0.97-0.85-1.37
			c-0.38-0.3-0.9-0.6-1.48-0.85v-0.3c0.68-0.3,1.48-0.6,2.32-0.6c1.97,0,3.6,1.37,3.6,2.3c0,0.55-0.15,1.25-0.15,1.92
			c0,1,0.1,2.12,0.42,2.82c0.23,0.5,0.55,0.82,0.95,1.07c1.65-1.02,3.4-2.05,3.85-2.37c0.25-0.18,0.3-0.4,0.2-0.72
			c-0.15-0.45-0.57-0.82-0.87-1.15L2238.14,1657.04z"/>
		<path class="st1" d="M2086.31,1690.29c0.75-0.42,1.75-0.92,2.62-0.92c1.35,0,3.87,1.35,3.87,2.3c0,0.85-0.6,1.17-0.77,2.15
			c-0.15,0.82-0.2,1.97-0.25,3.42c2.57,0.15,4.87,0.7,6.3,1.52c1.27,0.75,2.02,1.55,2.02,3.17c0,1-0.67,1.87-1.8,1.87
			c-1.97,0-1.97-1.65-4.12-3.75c-0.6-0.6-1.3-1.12-2.42-1.72c-0.1,3.27-0.02,5.9,0.08,7.75c0.05,1.37,0.12,2.27,0.12,2.57
			c0,1.62-0.33,2.27-1.52,2.27c-1.55,0-2.4-1.35-2.4-3.7c0-0.72,0.23-1.37,0.35-2.55c0.2-1.87,0.25-4.87,0.25-6.15
			c0-2.12-0.1-5.47-0.35-6.52c-0.2-0.85-1.07-1.17-1.95-1.4L2086.31,1690.29z"/>
		<path class="st1" d="M2107.29,1691.79v-0.37c0.67-0.35,1.5-0.72,2.27-0.72c1.2,0,3.9,1.42,3.9,2.47c0,0.75-0.65,1.17-0.7,2.25
			c-0.08,1.1-0.05,4.92-0.05,6.97c0,1.5-0.6,2.17-1.65,2.17c-0.97,0-1.97-1.47-1.97-3.22c0-0.62,0.43-1.2,0.43-2.75
			c0-1.27,0-4.02-0.15-5.1c-0.08-0.45-0.23-0.67-0.58-0.92C2108.44,1692.31,2107.86,1692.01,2107.29,1691.79z M2110.41,1711.36
			l-0.22-0.4c4.67-2.6,7.25-5.85,7.67-10.7c0.18-1.67,0.12-5.67,0.05-6.95c-0.05-0.67-0.1-0.9-0.58-1.2
			c-0.42-0.27-0.97-0.47-1.5-0.67l-0.02-0.37c0.75-0.62,1.95-1.37,2.7-1.37c1.1,0,3.62,1.4,3.62,2.27c0,0.7-0.55,1.02-0.6,1.77
			c-0.1,1.42-0.25,4.97-0.35,6.47C2120.81,1706.28,2116.86,1709.78,2110.41,1711.36z"/>
		<path class="st1" d="M2129.5,1697.51c0.85,1.05,1.3,1.67,2.77,1.67c2.9,0,9.82-0.47,11.52-0.62c1.67-0.15,3.02-0.4,3.62-0.4
			c1.77,0,3.17,0.97,3.17,2.25c0,0.87-0.8,1.25-1.95,1.25c-1.05,0-1.92-0.08-3.82-0.08c-2.05,0-6.9,0.35-8.85,0.55
			c-2,0.2-2.42,0.9-3.47,0.9c-1.15,0-2.87-1.8-3.4-3.22c-0.22-0.62-0.12-1.5,0.02-2.17L2129.5,1697.51z"/>
		<path class="st1" d="M2157.05,1690.29c0.75-0.42,1.75-0.92,2.62-0.92c1.35,0,3.87,1.35,3.87,2.3c0,0.85-0.6,1.17-0.77,2.15
			c-0.15,0.82-0.2,1.97-0.25,3.42c2.57,0.15,4.87,0.7,6.3,1.52c1.27,0.75,2.02,1.55,2.02,3.17c0,1-0.67,1.87-1.8,1.87
			c-1.97,0-1.97-1.65-4.12-3.75c-0.6-0.6-1.3-1.12-2.42-1.72c-0.1,3.27-0.02,5.9,0.08,7.75c0.05,1.37,0.12,2.27,0.12,2.57
			c0,1.62-0.33,2.27-1.52,2.27c-1.55,0-2.4-1.35-2.4-3.7c0-0.72,0.23-1.37,0.35-2.55c0.2-1.87,0.25-4.87,0.25-6.15
			c0-2.12-0.1-5.47-0.35-6.52c-0.2-0.85-1.07-1.17-1.95-1.4L2157.05,1690.29z"/>
		<path class="st1" d="M2186.71,1690.11c0.85,0.03,2.02,0,2.92,0.3c1.47,0.5,3.25,1.95,3.25,3.15c0,0.65-0.73,0.77-1.25,1.6
			c-0.55,0.9-1.57,2.65-2.72,4.3c1.95,1.32,3.72,3.15,3.8,5.05c0.05,1.42-0.92,2.07-1.97,2.07c-1.62,0-2.2-1.95-4.2-4.2
			c-2.82,3.15-6.75,6.3-12.17,7.97l-0.25-0.4c4.4-2.8,7.82-6.52,10.2-9.72c-1.27-1.12-3.2-2.7-5.92-4.4l0.23-0.45
			c3.12,0.75,5.57,1.65,7.35,2.47c1.57-2.47,2.37-4.52,2.37-5.27c0-0.87-0.95-1.57-1.77-2.1L2186.71,1690.11z"/>
		<path class="st1" d="M2200.71,1691.64c3.75,0.2,8.2,1.55,8.2,4.47c0,1.07-0.82,2.05-2.02,2.05c-1.02,0-1.62-0.55-2.25-1.47
			c-1.17-1.75-1.62-2.7-4.12-4.7L2200.71,1691.64z M2220.18,1694.19l0.4,0.28c-2.75,5.55-7.25,10.12-13.2,13.72
			c-0.98,0.6-1.3,1.52-2.12,1.52c-1.67,0-3.52-1.65-4.05-2.75c-0.32-0.67-0.57-1.75-0.55-2.62l0.33-0.2c0.5,0.47,1.42,1.5,2.4,1.5
			C2206.46,1705.63,2216.58,1698.73,2220.18,1694.19z"/>
		<path class="st1" d="M2226.66,1690.29c0.75-0.42,1.75-0.92,2.62-0.92c1.35,0,3.87,1.35,3.87,2.3c0,0.85-0.6,1.17-0.77,2.15
			c-0.15,0.82-0.2,1.97-0.25,3.42c2.57,0.15,4.87,0.7,6.3,1.52c1.27,0.75,2.02,1.55,2.02,3.17c0,1-0.67,1.87-1.8,1.87
			c-1.97,0-1.97-1.65-4.12-3.75c-0.6-0.6-1.3-1.12-2.42-1.72c-0.1,3.27-0.02,5.9,0.08,7.75c0.05,1.37,0.12,2.27,0.12,2.57
			c0,1.62-0.33,2.27-1.52,2.27c-1.55,0-2.4-1.35-2.4-3.7c0-0.72,0.23-1.37,0.35-2.55c0.2-1.87,0.25-4.87,0.25-6.15
			c0-2.12-0.1-5.47-0.35-6.52c-0.2-0.85-1.07-1.17-1.95-1.4L2226.66,1690.29z"/>
		<path class="st1" d="M2245.13,1692.76c0.5,0.62,0.97,1.27,1.67,1.27c1.6,0,4.65-0.7,9.17-1.82c2.52-0.62,5.5-1.4,6.25-1.4
			c0.8,0,1.55,0.12,2.32,0.47c0.72,0.32,1.37,0.87,1.37,1.7c0,0.77-0.62,1.37-1.57,1.37c-0.75,0-1.62-0.1-2.22-0.1
			c-1.1,0-2.52,0.05-3.9,1.1c-0.77,0.6-2.67,2.52-2.67,6.37c0,3.32,1.7,4.4,3.6,4.65c1.25,0.17,1.82,0.12,2.4,0.12
			c0.98,0,2.17,1,2.17,2.1c0,1.45-1.55,1.75-2.7,1.75c-2.17,0-3.67-0.3-5.17-1.17c-1.8-1.05-3.07-2.87-3.07-6.22
			c0-3.9,2.02-6.92,4.87-8.7c0.23-0.15,0.2-0.3-0.05-0.25c-3.02,0.67-6.42,1.95-7.92,2.92c-0.55,0.35-1.07,1-1.87,1
			c-1.27,0-3.25-1.92-3.25-3.32c0-0.7,0.2-1.37,0.35-1.77L2245.13,1692.76z M2260.98,1696.88c1.45,0.32,2.75,0.75,3.57,1.52
			c0.5,0.45,0.65,0.9,0.62,1.37c0,0.57-0.45,1.02-1.07,1.02c-0.43-0.03-0.77-0.27-1.12-0.85c-0.42-0.7-1-1.67-2.2-2.8
			L2260.98,1696.88z M2263.25,1695.26c1.5,0.2,2.72,0.57,3.47,1.1c0.62,0.45,0.85,0.95,0.85,1.55s-0.35,1-0.95,1
			c-0.52,0-0.82-0.3-1.27-0.92c-0.4-0.55-0.88-1.32-2.27-2.45L2263.25,1695.26z"/>
		<path class="st1" d="M2101.92,1755.31c-1.67,1.14-3.86,2.59-6.68,4.22v16.78c0,0.61-2.46,2.02-4.65,2.02h-1.1v-15.55
			c-1.05,0.57-2.2,1.14-3.38,1.76c-0.26,0.57-0.75,1.05-1.32,1.23l-2.68-7.11c1.54-0.22,4.17-0.7,7.38-1.27v-8.3h-2.2
			c-1.1,2.77-2.46,5.18-4.22,7.11l-0.61-0.31c1.1-4.39,1.71-10.54,1.71-16.03l5.31,1.19v-4.39l7.38,0.7
			c-0.09,0.66-0.4,1.1-1.62,1.27v8.56l2.28-3.78c0,0,3.07,3.03,4.7,4.96c-0.13,0.48-0.57,0.7-1.19,0.7h-5.8v7.16
			c2.15-0.4,4.39-0.88,6.59-1.36L2101.92,1755.31z M2089.49,1747.84v-5.45h-0.18c-0.44,1.89-0.97,3.73-1.58,5.45H2089.49z
			 M2099.77,1743.36h7.07v-6.76l7.82,0.61c-0.09,0.61-0.4,1.05-1.62,1.27v4.87h2.02l2.81-4.13c0,0,3.16,2.81,4.96,4.65
			c-0.13,0.48-0.61,0.7-1.23,0.7h-8.56v6.94h3.03l2.99-4.48c0,0,3.43,3.03,5.31,5.01c-0.13,0.48-0.61,0.7-1.23,0.7h-25.51
			l-0.35-1.23h9.57v-6.94h-6.72L2099.77,1743.36z M2120.32,1754.65c0,0,2.85,2.77,4.35,4.52c-0.13,0.48-0.57,0.7-1.19,0.7h-5.58
			v11.59c0,4.04-1.01,6.28-8.17,6.89c-0.22-1.93-0.53-3.29-1.45-4.22c-0.97-0.88-2.11-1.54-4.96-2.02v-0.57c0,0,6.32,0.4,7.47,0.4
			c0.7,0,0.97-0.26,0.97-0.79v-11.29h-13.79l-0.35-1.23h14.14v-5.62l7.69,0.66c-0.09,0.66-0.53,1.01-1.54,1.14v3.73L2120.32,1754.65
			z M2099.59,1760.4c13.39,1.8,8.08,11.86,2.77,7.86c-0.4-2.72-1.8-5.62-3.12-7.64L2099.59,1760.4z"/>
		<path class="st1" d="M2144.88,1742.27c0,0,2.9,2.24,4.61,3.82c-0.13,0.48-0.57,0.7-1.19,0.7h-18l-0.35-1.23h12.43L2144.88,1742.27
			z M2143.21,1760.45l5.18,3.91c-0.22,0.31-0.75,0.7-1.54,0.83v10.8c-0.04,0.4-2.81,1.58-4.74,1.58h-1.01v-3.69h-3.25v2.68
			c0,0.53-2.46,1.76-4.83,1.76h-0.79v-17.39l5.75,2.24h2.68L2143.21,1760.45z M2142.42,1748.11c0,0,2.81,2.2,4.48,3.73
			c-0.13,0.48-0.57,0.7-1.19,0.7h-13.09l-0.35-1.23h7.69L2142.42,1748.11z M2142.42,1753.86c0,0,2.81,2.2,4.48,3.73
			c-0.13,0.48-0.57,0.7-1.19,0.7h-13.09l-0.35-1.23h7.69L2142.42,1753.86z M2132.84,1741.21l-0.35-1.23h7.29l2.55-3.29
			c0,0,2.85,2.24,4.57,3.82c-0.09,0.48-0.57,0.7-1.19,0.7H2132.84z M2141.1,1772.66v-8.26h-3.25v8.26H2141.1z M2167.76,1754.04
			c0,0,3.12,2.85,4.83,4.7c-0.13,0.48-0.57,0.7-1.19,0.7h-8.83v16.99c0,0.44-1.84,1.93-5.09,1.93h-1.14v-18.93h-8.74l-0.35-1.23
			h9.09v-11.94h-1.19c-1.93,3.47-4.35,6.24-7.25,8.39l-0.48-0.31c1.71-4.57,3.12-11.37,3.51-17.65l8.83,2.28
			c-0.22,0.57-0.75,0.97-1.8,0.97c-0.62,1.84-1.36,3.51-2.15,5.09h7.42l2.94-3.95c0,0,3.34,2.68,5.31,4.48
			c-0.13,0.48-0.61,0.7-1.23,0.7h-7.69v11.94h2.42L2167.76,1754.04z"/>
		<path class="st1" d="M2214.15,1753.29c-0.35,0.53-0.79,0.7-1.98,0.83c-1.76,5.05-4.3,9.53-7.99,13.26
			c4.22,2.15,9.13,3.38,14.32,4.26l-0.09,0.53c-2.99,0.61-5.05,2.68-6.02,5.88c-5.01-1.67-9.22-3.78-12.56-6.98
			c-4.57,3.21-10.41,5.53-17.87,6.85l-0.26-0.44c6.28-2.37,11.29-5.75,15.11-9.92c-2.59-3.69-4.44-8.48-5.53-14.89h-2.59
			c0,8.26-0.92,19.1-12.38,25.56l-0.35-0.26c5.71-7.51,6.28-17.04,6.28-25.6v-13.92l7.42,2.94h17.52l3.29-4.22
			c0,0,3.73,2.81,5.97,4.74c-0.13,0.48-0.61,0.7-1.27,0.7h-26.48v8.83h15.81l3.69-3.6L2214.15,1753.29z M2192.01,1752.67
			c1.49,5.14,4.08,8.87,7.42,11.64c2.46-3.47,4.26-7.38,5.36-11.64H2192.01z"/>
		<path class="st1" d="M2237.86,1756.1c2.99,6.28,2.15,10.89,0.04,13.13c-1.49,1.67-4.22,1.41-5.27-0.53
			c-0.13-0.22-0.22-0.48-0.26-0.7c-1.41,3.82-3.86,7.51-8.08,10.41l-0.35-0.31c3.78-7.11,3.95-16.25,3.95-24.02v-12.6l7.29,2.46
			h7.86v-7.16l7.99,0.57c-0.09,0.61-0.4,1.05-1.62,1.27v5.31h7.73l3.07-4.22c0,0,3.47,2.85,5.49,4.74c-0.13,0.48-0.61,0.7-1.27,0.7
			h-30.17v8.91c0,3.25-0.09,7.07-0.97,10.85c0.22-0.22,0.48-0.44,0.75-0.66c1.58-1.32,3.47-4.65,3.34-8.17H2237.86z
			 M2257.54,1771.12c1.49,0.7,1.84,1.41,1.84,2.5c0,2.46-2.2,3.64-8.69,3.64h-3.6c-4.61,0-5.67-1.05-5.67-5.09v-20.42l6.63,0.57
			c-1.54-1.98-3.51-3.78-5.4-4.96l0.31-0.31c15.81-0.61,13.26,11.29,7.16,8.61c-0.35-0.83-0.88-1.71-1.49-2.59
			c-0.22,0.26-0.57,0.44-1.14,0.53v16.95c0,0.7,0.26,0.92,1.23,0.92h2.72h2.11c0.48-0.04,0.79-0.18,1.14-0.66
			c0.53-0.83,1.36-3.25,2.24-6.02h0.44L2257.54,1771.12z M2256.79,1755.84c15.9,6.85,7.42,18.93,3.12,13.09
			c0.09-3.47-0.61-8.96-3.47-12.78L2256.79,1755.84z"/>
	</g>
</g>
</svg>
