<?xml version="1.0" encoding="utf-8"?>
<!-- Generator: Adobe Illustrator 24.2.1, SVG Export Plug-In . SVG Version: 6.00 Build 0)  -->
<svg version="1.1" id="レイヤー_1" xmlns="http://www.w3.org/2000/svg" xmlns:xlink="http://www.w3.org/1999/xlink" x="0px"
	 y="0px" viewBox="0 0 250 250" style="enable-background:new 0 0 250 250;" xml:space="preserve">
<style type="text/css">
	.st0{fill:#AA1E2F;}
	.st1{fill:#FFFFFF;}
</style>
<circle class="st0" cx="125.33" cy="125.13" r="118.52"/>
<g>
	<path class="st1" d="M38.24,95.85c0.75-0.42,1.75-0.92,2.62-0.92c1.35,0,3.87,1.35,3.87,2.3c0,0.85-0.6,1.17-0.78,2.15
		c-0.15,0.82-0.2,1.97-0.25,3.42c2.58,0.15,4.87,0.7,6.3,1.52c1.27,0.75,2.02,1.55,2.02,3.17c0,1-0.67,1.87-1.8,1.87
		c-1.97,0-1.97-1.65-4.12-3.75c-0.6-0.6-1.3-1.12-2.42-1.72c-0.1,3.27-0.03,5.9,0.08,7.75c0.05,1.37,0.12,2.27,0.12,2.57
		c0,1.62-0.33,2.27-1.53,2.27c-1.55,0-2.4-1.35-2.4-3.7c0-0.72,0.23-1.37,0.35-2.55c0.2-1.87,0.25-4.87,0.25-6.15
		c0-2.12-0.1-5.47-0.35-6.52c-0.2-0.85-1.07-1.17-1.95-1.4L38.24,95.85z"/>
	<path class="st1" d="M59.21,97.35v-0.37c0.67-0.35,1.5-0.72,2.27-0.72c1.2,0,3.9,1.42,3.9,2.47c0,0.75-0.65,1.17-0.7,2.25
		c-0.08,1.1-0.05,4.92-0.05,6.97c0,1.5-0.6,2.17-1.65,2.17c-0.97,0-1.97-1.47-1.97-3.22c0-0.62,0.43-1.2,0.43-2.75
		c0-1.27,0-4.02-0.15-5.1c-0.08-0.45-0.22-0.67-0.58-0.92C60.36,97.88,59.79,97.58,59.21,97.35z M62.34,116.92l-0.22-0.4
		c4.67-2.6,7.25-5.85,7.67-10.7c0.17-1.67,0.12-5.67,0.05-6.95c-0.05-0.67-0.1-0.9-0.58-1.2c-0.42-0.27-0.97-0.47-1.5-0.67
		l-0.03-0.37c0.75-0.62,1.95-1.37,2.7-1.37c1.1,0,3.62,1.4,3.62,2.27c0,0.7-0.55,1.02-0.6,1.77c-0.1,1.42-0.25,4.97-0.35,6.47
		C72.74,111.85,68.79,115.35,62.34,116.92z"/>
	<path class="st1" d="M81.43,103.07c0.85,1.05,1.3,1.67,2.77,1.67c2.9,0,9.82-0.47,11.52-0.62c1.67-0.15,3.02-0.4,3.62-0.4
		c1.77,0,3.17,0.97,3.17,2.25c0,0.87-0.8,1.25-1.95,1.25c-1.05,0-1.92-0.08-3.82-0.08c-2.05,0-6.9,0.35-8.85,0.55
		c-2,0.2-2.42,0.9-3.47,0.9c-1.15,0-2.88-1.8-3.4-3.22c-0.22-0.62-0.12-1.5,0.02-2.17L81.43,103.07z"/>
	<path class="st1" d="M108.97,95.85c0.75-0.42,1.75-0.92,2.62-0.92c1.35,0,3.87,1.35,3.87,2.3c0,0.85-0.6,1.17-0.78,2.15
		c-0.15,0.82-0.2,1.97-0.25,3.42c2.58,0.15,4.87,0.7,6.3,1.52c1.27,0.75,2.02,1.55,2.02,3.17c0,1-0.67,1.87-1.8,1.87
		c-1.97,0-1.97-1.65-4.12-3.75c-0.6-0.6-1.3-1.12-2.42-1.72c-0.1,3.27-0.03,5.9,0.08,7.75c0.05,1.37,0.12,2.27,0.12,2.57
		c0,1.62-0.33,2.27-1.53,2.27c-1.55,0-2.4-1.35-2.4-3.7c0-0.72,0.23-1.37,0.35-2.55c0.2-1.87,0.25-4.87,0.25-6.15
		c0-2.12-0.1-5.47-0.35-6.52c-0.2-0.85-1.07-1.17-1.95-1.4L108.97,95.85z"/>
	<path class="st1" d="M138.63,95.68c0.85,0.03,2.02,0,2.92,0.3c1.47,0.5,3.25,1.95,3.25,3.15c0,0.65-0.73,0.77-1.25,1.6
		c-0.55,0.9-1.58,2.65-2.72,4.3c1.95,1.32,3.72,3.15,3.8,5.05c0.05,1.42-0.92,2.07-1.97,2.07c-1.62,0-2.2-1.95-4.2-4.2
		c-2.82,3.15-6.75,6.3-12.17,7.97l-0.25-0.4c4.4-2.8,7.82-6.52,10.2-9.72c-1.27-1.12-3.2-2.7-5.92-4.4l0.23-0.45
		c3.12,0.75,5.57,1.65,7.35,2.47c1.58-2.47,2.38-4.52,2.38-5.27c0-0.87-0.95-1.57-1.78-2.1L138.63,95.68z"/>
	<path class="st1" d="M152.63,97.2c3.75,0.2,8.2,1.55,8.2,4.47c0,1.07-0.83,2.05-2.02,2.05c-1.03,0-1.62-0.55-2.25-1.47
		c-1.17-1.75-1.62-2.7-4.12-4.7L152.63,97.2z M172.11,99.75l0.4,0.28c-2.75,5.55-7.25,10.12-13.2,13.72
		c-0.98,0.6-1.3,1.52-2.12,1.52c-1.67,0-3.52-1.65-4.05-2.75c-0.33-0.67-0.58-1.75-0.55-2.62l0.33-0.2c0.5,0.47,1.42,1.5,2.4,1.5
		C158.38,111.2,168.51,104.3,172.11,99.75z"/>
	<path class="st1" d="M178.58,95.85c0.75-0.42,1.75-0.92,2.62-0.92c1.35,0,3.87,1.35,3.87,2.3c0,0.85-0.6,1.17-0.77,2.15
		c-0.15,0.82-0.2,1.97-0.25,3.42c2.57,0.15,4.87,0.7,6.3,1.52c1.27,0.75,2.02,1.55,2.02,3.17c0,1-0.67,1.87-1.8,1.87
		c-1.97,0-1.97-1.65-4.12-3.75c-0.6-0.6-1.3-1.12-2.42-1.72c-0.1,3.27-0.02,5.9,0.08,7.75c0.05,1.37,0.12,2.27,0.12,2.57
		c0,1.62-0.33,2.27-1.52,2.27c-1.55,0-2.4-1.35-2.4-3.7c0-0.72,0.22-1.37,0.35-2.55c0.2-1.87,0.25-4.87,0.25-6.15
		c0-2.12-0.1-5.47-0.35-6.52c-0.2-0.85-1.08-1.17-1.95-1.4L178.58,95.85z"/>
	<path class="st1" d="M210.16,98.6c1,0,1.87,0.03,2.57,0.38c1.07,0.47,2.27,1.7,2.27,2.7c0,0.65-0.38,0.97-1.67,1.37
		c-2.1,0.62-5.02,1.8-7.25,3.1c-2.35,1.4-3.87,2.97-3.87,4.57c0,1.52,1.47,2.1,4.07,2.1c3.4,0,5.45-0.82,5.87-0.82
		c1.8,0,3.4,0.4,3.4,1.85c0,0.62-0.55,1.35-1.33,1.67c-1.12,0.45-3.75,0.75-6.47,0.75c-4.3,0-7.62-1.47-7.62-4.67
		c0-2.77,2.3-5.32,4.5-7c-0.65-0.35-1.12-0.82-1.47-1.47c-0.6-1.1-0.92-3.65-1.12-5.05c-0.1-0.65-0.35-0.97-0.85-1.37
		c-0.37-0.3-0.9-0.6-1.47-0.85v-0.3c0.67-0.3,1.47-0.6,2.33-0.6c1.97,0,3.6,1.37,3.6,2.3c0,0.55-0.15,1.25-0.15,1.92
		c0,1,0.1,2.12,0.42,2.82c0.22,0.5,0.55,0.82,0.95,1.07c1.65-1.02,3.4-2.05,3.85-2.37c0.25-0.18,0.3-0.4,0.2-0.72
		c-0.15-0.45-0.57-0.82-0.87-1.15L210.16,98.6z"/>
	<path class="st1" d="M112.62,147.13c-0.31,0.35-0.83,0.75-1.76,0.92v29.29c0,3.95-1.05,6.1-8.21,6.72
		c-0.22-1.89-0.53-3.21-1.45-4.08c-0.97-0.83-2.06-1.54-4.92-1.98v-0.53c0,0,5.97,0.35,7.29,0.35c0.83,0,1.05-0.4,1.05-1.01v-29.73
		h-23.8v34.52c0,0.79-2.5,2.33-5.14,2.33h-1.01v-40.71l6.63,2.63h22.88l2.81-3.16L112.62,147.13z M98.21,149.06
		c0,0,3.43,2.55,5.49,4.3c-0.13,0.48-0.61,0.7-1.27,0.7H82.75l-0.35-1.23h12.82L98.21,149.06z M101.2,172.73
		c-0.04,0.4-2.94,1.62-4.96,1.62h-1.05v-4.3h-5.23v3.56c0,0.53-2.55,1.8-5.01,1.8h-0.83v-18.36l6.02,2.33h4.61l2.63-2.81l5.36,4.04
		c-0.22,0.31-0.75,0.66-1.54,0.83V172.73z M95.18,168.82v-8.21h-5.23v8.21H95.18z"/>
	<path class="st1" d="M121.33,146.38v-0.57c1.14-0.57,2.42-1.14,3.73-1.14c3.42,0,8.21,3.78,8.21,5.88c0,1.41-1.36,2.28-1.93,4.61
		c-1.01,4.26-2.06,9.71-2.06,14.32c0,4.7,1.19,6.5,6.59,6.5c5.8,0,12.78-3.56,17.13-8.48l0.66,0.48
		c-2.68,7.33-9.18,14.14-18.84,14.14c-6.32,0-10.45-3.38-10.45-11.94c0-6.02,0.83-14.18,0.83-17.87c0-2.42-0.18-3.38-1.01-4.22
		C123.44,147.35,122.96,147.04,121.33,146.38z M141.27,158.41c-0.83-1.36-2.11-3.6-4.35-5.62l0.4-0.53
		c2.68,0.57,5.27,1.76,6.81,3.29c0.83,0.83,1.19,1.58,1.19,2.46c0,1.05-0.7,1.93-1.98,1.93
		C142.54,159.95,141.93,159.47,141.27,158.41z M145.84,154.02c-0.75-1.19-1.84-3.03-4.48-5.01l0.4-0.53
		c2.9,0.44,5.14,1.32,6.59,2.55c1.01,0.83,1.54,1.71,1.54,2.81c0,1.1-0.7,1.84-1.8,1.84C147.11,155.69,146.58,155.21,145.84,154.02z
		"/>
	<path class="st1" d="M168.78,176.46c0-2.11,1.71-3.91,3.95-3.91c2.24,0,4,1.8,4,3.91c0,2.15-1.76,3.86-4,3.86
		C170.49,180.33,168.78,178.62,168.78,176.46z M176.68,150.38c0,2.11-0.39,5.53-2.15,13.39l-1.1,5.27h-1.32l-1.1-5.27
		c-1.76-7.9-2.15-11.29-2.15-13.39c0-2.99,1.71-4.44,3.91-4.44C174.97,145.94,176.68,147.39,176.68,150.38z"/>
</g>
<g>
	<path class="st1" d="M60.44,73.94c1.99,2.58,6.14,3.24,10.24,3.41v0.27c-1.35,0.47-2.19,1.65-2.5,3.37
		c-4.08-1.15-6.83-2.87-8.23-7.05H59.8c-0.86,3.44-3.24,5.82-12.63,7.12l-0.12-0.34c6.04-1.87,8.06-4,8.77-6.78h-8.18l-0.2-0.69
		h8.52c0.15-0.96,0.22-1.99,0.25-3.12l4.89,0.32c-0.03,0.37-0.29,0.61-0.86,0.69c-0.07,0.74-0.17,1.45-0.3,2.11h5.23l1.84-2.33
		c0,0,2.09,1.57,3.34,2.63c-0.07,0.27-0.34,0.39-0.71,0.39H60.44z M56.66,69.08v-2.97h-6.17l-0.2-0.69h6.36v-2.78h-7.74l-0.2-0.69
		h11.57c0.44-1.33,0.88-3.17,1.11-4.42l4.45,1.28c-0.1,0.32-0.39,0.49-0.93,0.47c-0.93,0.79-2.41,1.84-3.81,2.68h3.41l1.77-2.24
		c0,0,1.99,1.5,3.22,2.53c-0.07,0.27-0.35,0.39-0.71,0.39h-8.45v2.78h2.75l1.67-2.06c0,0,1.92,1.38,3.07,2.36
		c-0.07,0.27-0.34,0.39-0.71,0.39h-6.78v2.97h4.47l1.82-2.38c0,0,2.06,1.6,3.27,2.68c-0.05,0.27-0.34,0.39-0.69,0.39H48.18
		l-0.2-0.69H56.66z M52.48,57.8c7.54-0.02,4.47,5.82,1.35,3.61c-0.12-1.3-0.79-2.65-1.5-3.49L52.48,57.8z"/>
	<path class="st1" d="M88.96,66.43c-0.1,0.34-0.42,0.49-1.28,0.59c2.28,2.33,7,3.64,10.42,4v0.39c-1.45,0.47-2.31,2.01-2.48,3.32
		c-0.66-0.25-1.33-0.54-1.97-0.88c-0.12,0.15-0.37,0.27-0.71,0.34v5.82c-0.03,0.2-1.74,0.81-2.87,0.81h-0.61v-1.77h-6.39v0.93
		c0,0.29-1.55,1.06-2.95,1.06h-0.49v-7.71c-1.6,0.79-3.29,1.47-4.94,1.94L74.57,75c4.3-2.33,8.57-6.76,9.48-9.8L88.96,66.43z
		 M78.92,61.56c0.2,1.77-0.37,3.05-1.2,3.64c-0.86,0.64-2.28,0.37-2.7-0.74c-0.34-1.03,0.22-1.84,1.11-2.31
		c0.81-0.49,1.87-1.77,1.84-3.12h0.29c0.27,0.66,0.47,1.28,0.56,1.84h5.55v-3.22l4.57,0.32c-0.02,0.34-0.2,0.59-0.88,0.71v2.19h5.43
		l1.67-1.67l2.9,2.73c-0.2,0.22-0.44,0.27-0.96,0.32c-0.88,0.71-2.33,1.6-3.56,2.19c2.09,1.82,0.79,4.47-1.55,3.59
		c-1.06-1.82-3.19-3.86-4.96-5.01l0.17-0.17c2.78-0.07,4.64,0.44,5.8,1.18c0.25-0.76,0.47-1.69,0.64-2.46H78.92z M76.93,68.66
		c1.99-1.72,3.81-4.52,4.62-6.46l3.88,1.65c-0.1,0.25-0.32,0.44-0.91,0.42c-1.57,1.77-4.45,3.68-7.39,4.64L76.93,68.66z
		 M90.51,71.66c-1.37-1.23-2.48-2.7-3.19-4.37c-1.23,1.79-3.39,3.59-5.92,5.08l1.84,0.69h5.99L90.51,71.66z M89.46,78.36v-4.62
		h-6.39v4.62H89.46z"/>
	<path class="st1" d="M125.45,62.18c-0.2,0.22-0.44,0.27-0.96,0.32c-0.79,0.59-1.99,1.28-3.12,1.82c0.22,0.15,0.42,0.32,0.59,0.47
		c-0.07,0.27-0.34,0.39-0.69,0.39h-6.83c-1.28,1.3-2.82,2.6-4.35,3.59c2.41-0.1,5.18-0.22,8.01-0.39c-0.74-0.84-1.52-1.62-2.24-2.24
		l0.2-0.17c9.38,0.88,7.86,7.3,4.47,5.72c-0.47-0.86-1.13-1.79-1.87-2.68c-2.9,0.88-6.81,1.84-12.41,3
		c-0.2,0.29-0.47,0.49-0.76,0.54l-1.47-3.66c1.08,0,2.65-0.02,4.54-0.07c0.49-1.08,0.93-2.48,1.23-3.64h-3.71l-0.2-0.69h11.2
		l1.72-2.14c0,0,0.86,0.61,1.77,1.33c0.17-0.61,0.32-1.28,0.44-1.87h-14.81c0.15,1.65-0.42,2.82-1.25,3.37
		c-0.86,0.59-2.21,0.29-2.6-0.79c-0.32-1.01,0.27-1.82,1.13-2.24c0.81-0.47,1.79-1.62,1.77-2.85h0.29c0.27,0.64,0.47,1.25,0.56,1.82
		h5.72v-3.46l4.57,0.32c-0.02,0.34-0.2,0.59-0.88,0.71v2.43h5.35l1.67-1.67L125.45,62.18z M121.99,77.48c0,0,1.92,1.45,3.1,2.43
		c-0.07,0.27-0.34,0.39-0.71,0.39h-21.74l-0.2-0.69h9.41v-4.3h-7.03l-0.2-0.69h7.22v-3.56l4.59,0.34c-0.05,0.37-0.22,0.61-0.91,0.71
		v2.51h3.05l1.65-2.06c0,0,1.89,1.38,3.02,2.36c-0.07,0.27-0.34,0.39-0.69,0.39h-7.03v4.3h4.77L121.99,77.48z"/>
	<path class="st1" d="M131.52,62.22c0.49,0.61,0.96,1.25,1.65,1.25c1.57,0,4.57-0.69,9.01-1.79c2.48-0.61,5.41-1.38,6.14-1.38
		c0.79,0,1.52,0.12,2.28,0.47c0.71,0.32,1.35,0.86,1.35,1.67c0,0.76-0.61,1.35-1.55,1.35c-0.74,0-1.6-0.1-2.19-0.1
		c-1.08,0-2.48,0.05-3.83,1.08c-0.76,0.59-2.63,2.48-2.63,6.26c0,3.27,1.67,4.32,3.54,4.57c1.23,0.17,1.79,0.12,2.36,0.12
		c0.96,0,2.14,0.98,2.14,2.06c0,1.42-1.52,1.72-2.65,1.72c-2.14,0-3.61-0.29-5.09-1.15c-1.77-1.03-3.02-2.82-3.02-6.12
		c0-3.83,1.99-6.8,4.79-8.55c0.22-0.15,0.2-0.29-0.05-0.25c-2.97,0.66-6.31,1.92-7.79,2.87c-0.54,0.34-1.06,0.98-1.84,0.98
		c-1.25,0-3.19-1.89-3.19-3.27c0-0.69,0.2-1.35,0.35-1.74L131.52,62.22z M147.09,66.28c1.42,0.32,2.7,0.74,3.51,1.5
		c0.49,0.44,0.64,0.88,0.61,1.35c0,0.57-0.44,1.01-1.06,1.01c-0.42-0.02-0.76-0.27-1.11-0.84c-0.42-0.69-0.98-1.65-2.16-2.75
		L147.09,66.28z M149.33,64.68c1.47,0.2,2.68,0.57,3.41,1.08c0.61,0.44,0.84,0.93,0.84,1.52s-0.34,0.98-0.93,0.98
		c-0.52,0-0.81-0.29-1.25-0.91c-0.39-0.54-0.86-1.3-2.23-2.41L149.33,64.68z"/>
	<path class="st1" d="M165.14,59.72c0.64-0.52,1.57-1.08,2.48-1.08c1.6,0,3.49,0.69,3.49,1.6c0,0.71-0.44,1.3-0.52,1.89
		c-0.03,0.2-0.05,0.49-0.05,0.86c4.74-0.59,4.69-0.93,5.01-0.93c1.55,0,3.37,0.84,3.37,2.16c0,1.03-0.61,1.13-1.5,1.13
		c-1.25,0-2.63-0.74-6.95-0.39c-0.05,1.2-0.07,2.58-0.05,3.83c0.74,0.88,1.03,2.14,1.03,3.37c0,5.4-4.57,7.96-10.29,8.5l-0.15-0.39
		c3.02-1.06,5.55-2.55,6.54-4.81c-2.51,0.49-4.23-1.65-4.23-4.1c0-2.36,1.67-3.98,3.69-3.98c0.37,0,0.71,0.02,1.03,0.07
		c-0.05-0.59-0.1-1.38-0.15-2.19c-2.48,0.34-4.3,0.81-5.33,1.13c-1.2,0.37-1.72,0.96-2.68,0.96c-1.06,0-2.63-1.4-2.9-2.53
		c-0.15-0.61-0.12-1.35-0.07-1.92l0.32-0.15c1.03,1.11,1.37,1.33,2.24,1.35c1.13,0.05,5.5-0.47,8.25-0.79
		c-0.07-0.84-0.17-1.57-0.25-2.01c-0.07-0.39-0.2-0.56-0.59-0.76c-0.44-0.22-1.06-0.39-1.72-0.54L165.14,59.72z M168.02,70.9
		c0-1.03-0.27-2.09-1.3-2.09c-1.11,0-1.94,0.91-1.94,2.21c0,0.96,0.71,1.92,1.84,1.92S168.02,72.17,168.02,70.9z"/>
	<path class="st1" d="M186.9,59.87c0.47,0.84,1.2,1.55,1.84,1.55c0.86,0,3.17-0.54,4.59-1.01c1.18-0.39,1.13-0.81,1.74-0.81
		c1.38,0,3.64,1.82,3.64,3.05c0,0.81-1.03,1.11-1.82,1.57c-1.82,1.08-4.72,3.39-5.55,4.23c-0.32,0.32-0.15,0.49,0.12,0.42
		c0.66-0.17,2.01-0.79,4.05-0.79c3.39,0,6.17,2.04,6.17,5.87c0,3.41-3.02,6.09-8.3,6.09c-2.92,0-5.18-1.33-5.18-3.64
		c0-1.79,1.6-2.87,3.54-2.87c1.62,0,3.73,0.84,4.42,3.19c1.77-0.86,2.46-2.33,2.46-3.93c0-2.19-1.35-3.59-4.08-3.59
		c-3.27,0-5.55,2.58-7.64,5.31c-0.71,0.93-1.01,1.18-1.72,1.15c-0.66-0.02-1.3-0.81-1.23-1.89c0.05-0.79,0.52-1.45,1.47-2.33
		c1.65-1.5,7.17-6.71,8.6-8.48c0.52-0.64,0.2-0.86-0.25-0.79c-0.98,0.17-2.16,1.03-3.05,1.65c-0.47,0.32-0.91,0.71-1.5,0.71
		c-1.69,0-2.92-1.99-2.92-2.95c0-0.64,0.1-1.03,0.29-1.7L186.9,59.87z M193.46,77.41c-0.29-1.5-1.2-2.6-2.5-2.6
		c-0.96,0-1.52,0.47-1.52,1.2c0,0.96,1.15,1.45,2.78,1.45C192.65,77.45,193.07,77.43,193.46,77.41z"/>
</g>
</svg>
