<?xml version="1.0" encoding="utf-8"?>
<!-- Generator: Adobe Illustrator 24.1.0, SVG Export Plug-In . SVG Version: 6.00 Build 0)  -->
<svg version="1.1" id="レイヤー_1" xmlns="http://www.w3.org/2000/svg" xmlns:xlink="http://www.w3.org/1999/xlink" x="0px"
	 y="0px" viewBox="0 0 687 208" style="enable-background:new 0 0 687 208;" xml:space="preserve">
<style type="text/css">
	.st0{opacity:0.6;fill:#FFFFFF;enable-background:new    ;}
	.st1{enable-background:new    ;}
	.st2{fill:#603813;}
</style>
<g>
	<rect x="27.51" y="68.74" class="st0" width="527.68" height="31.4"/>
	<g class="st1">
		<path class="st2" d="M54.95,87.32c-0.07,0.83-0.28,1.24-0.97,1.52c-0.62,0.21-2.63,0.42-4.42,0.42c-2.28,0-2.76-0.35-2.76-1.87
			c0.55-13.89,0.62-21.49,0.62-46.22c0-6.22-0.07-9.81-0.41-15.2c4.01,1.73,5.18,2.35,8.98,4.42h40.7c1.66-1.87,2.21-2.42,4.01-4.21
			c2.63,1.73,3.39,2.35,5.94,4.21c0.62,0.48,0.9,0.83,0.9,1.31c0,0.69-0.55,1.24-2.63,2.42v19.76c0,14.16,0.21,26.53,0.55,32.96
			c0,0.97-0.21,1.45-0.97,1.8c-0.62,0.28-2.76,0.55-4.63,0.55s-2.35-0.28-2.49-1.45V84.7H54.95V87.32z M54.95,83.25h42.42v-51.4
			H54.95V83.25z M79,55.26h4.21c1.73-2.14,2.28-2.83,4.15-4.91c2.62,2.14,3.45,2.83,5.87,5.25c0.35,0.28,0.41,0.48,0.41,0.62
			c0,0.35-0.28,0.48-0.83,0.48H79v17.07h5.87c1.59-2.07,2-2.63,3.52-4.21c-0.35,0-0.62,0.07-0.83,0.07c-0.76,0-1.04-0.42-1.8-2.49
			c-1.31-3.8-2.28-5.6-4.49-8.15l0.41-0.41c7.53,2.21,10.23,3.94,10.23,6.36c0,1.59-0.69,2.76-2.35,4.01
			c2.69,2.21,3.25,2.7,5.73,5.11c0.28,0.28,0.41,0.55,0.41,0.76c0,0.28-0.35,0.41-0.76,0.41H61.58c-1.66,0-2.9,0.07-4.21,0.35
			l-0.41-2.28c1.66,0.34,3.11,0.48,4.63,0.48h9.88V56.72h-7.53c-1.31,0-2.49,0.07-4.08,0.34l-0.35-2.28
			c1.87,0.42,2.83,0.48,4.49,0.48h7.46V41.79h-8.71c-1.38,0-2.83,0.14-4.35,0.34l-0.41-2.35c1.87,0.41,3.25,0.55,4.84,0.55h20.52
			c1.87-2.28,2.49-2.97,4.49-5.18c3.04,2.35,3.94,3.04,6.7,5.53c0.28,0.28,0.41,0.48,0.41,0.62c0,0.28-0.35,0.48-0.76,0.48h-15.2
			L79,55.26L79,55.26z"/>
		<path class="st2" d="M150.58,40.62c-0.28,3.8-0.76,6.42-1.59,9.53c2.49,1.11,7.25,3.73,10.02,5.53c4.84,3.25,6.08,4.84,6.08,7.74
			c0,3.04-2,5.94-4.15,5.94c-0.9,0-1.38-0.62-2.42-2.83c-3.11-7.05-6.56-12.37-9.88-15.2c-1.59,4.91-4.15,8.91-8.01,12.58
			c-2.49,2.49-5.73,4.7-10.71,7.46l-0.62-0.76c8.71-7.53,12.64-16.17,13.75-29.99h-14.79l0.07,31.85c0,7.19,0.07,8.5,0.21,14.23
			c0,0.14,0,0.35,0,0.35c0,1.11-0.35,1.52-1.59,1.8c-0.69,0.21-2.49,0.35-3.8,0.35c-2.21,0-2.76-0.41-2.76-1.93c0,0,0-0.07,0-0.14
			c0.14-5.18,0.14-5.18,0.28-10.78c0.14-3.87,0.14-6.29,0.14-21.28c0-11.88,0-12.09-0.48-20.45c3.87,1.8,5.04,2.42,8.91,4.56h13.96
			c0.14-2.63,0.21-4.7,0.21-7.74c0-2.49-0.07-3.32-0.28-5.53c1.93,0.21,3.45,0.42,4.35,0.48c5.6,0.42,6.98,0.76,6.98,1.73
			c0,0.83-0.28,0.97-3.25,2c-0.21,4.97-0.28,5.87-0.48,9.05h15.82c2.35-2.63,2.35-2.63,4.01-4.56c2.62,1.87,3.45,2.42,6.01,4.28
			c0.76,0.55,1.04,0.9,1.04,1.38c0,0.69-0.69,1.31-2.69,2.42v24.25c0.14,11.95,0.14,11.95,0.21,15.27c-0.14,2.97-1.11,4.42-3.66,5.6
			c-1.93,0.83-4.63,1.45-6.63,1.45c-0.76,0-0.9-0.07-0.97-1.31c-0.14-1.17-0.48-2.07-1.04-2.83c-1.52-1.93-2.83-2.49-9.54-4.15
			v-0.83c6.5,0.41,7.32,0.48,12.37,0.69c1.11,0,1.38-0.21,1.38-1.04V40.62H150.58z"/>
	</g>
	<g class="st1">
		<path class="st2" d="M208.2,86.47c5.21-1.61,8.86-3.75,11.78-6.91c3.26-3.5,4.87-7.79,4.87-12.8c0-8.32-5.06-13.29-13.43-13.29
			c-0.63,0-1.02,0-1.95,0.1c1.7,2,2.24,3.31,2.24,5.21c0,3.89-2.48,10.71-5.99,16.6c-3.16,5.26-5.99,7.93-8.42,7.93
			c-1.07,0-2.09-0.58-2.63-1.41c-0.39-0.73-0.68-1.41-1.12-3.21c-0.29-1.17-0.68-1.85-2.09-3.6c-1.17-1.46-1.9-3.6-1.9-5.6
			c0-3.07,1.56-6.77,4.09-9.74c4.19-4.96,11.1-7.98,18.35-7.98c10.85,0,18.59,6.86,18.59,16.5c0,7.06-3.89,12.7-10.95,15.97
			c-3.02,1.41-6.13,2.24-11.24,2.92L208.2,86.47z M199.1,58.77c-3.36,3.36-5.21,7.5-5.21,11.58c0,3.36,1.66,6.81,3.31,6.81
			c1.61,0,4.82-4.04,7.98-10.03c2.43-4.58,3.89-8.62,3.89-10.76c0-0.54-0.05-1.17-0.19-1.61c-0.1-0.39-0.34-1.07-0.39-1.07
			C204.55,54.59,201.92,56,199.1,58.77z"/>
	</g>
	<g class="st1">
		<path class="st2" d="M281.49,33.98c1.73-1.73,2.28-2.21,4.21-3.94c3.04,2.35,3.94,3.11,6.98,5.67c0.28,0.34,0.41,0.55,0.41,0.76
			c0,0.83-1.04,1.31-3.73,1.73c-4.56,6.08-8.08,9.88-12.16,13.06c3.73,1.87,7.53,3.25,11.68,4.15c4.28,1.04,7.05,1.31,16.37,1.93
			v0.69c-1.93,1.04-2.83,1.93-4.01,4.15c-0.62,1.24-0.97,2.07-1.17,3.11c-0.14,0.69-0.28,0.83-0.69,0.83
			c-1.24,0-6.43-1.59-11.47-3.59c2.28,1.59,2.76,1.94,4.97,3.8c0.35,0.35,0.48,0.55,0.48,0.83c0,0.62-0.41,0.9-2.28,1.73v8.64
			c0,0.07,0.07,3.52,0.21,10.5c-0.14,0.69-0.35,1.04-0.9,1.24c-0.76,0.28-2.42,0.41-4.28,0.41s-2.42-0.28-2.42-1.31v-2.9h-23.42
			v2.42c-0.14,1.38-0.76,1.59-3.87,1.66c-0.9,0.07-1.52,0.07-1.59,0.07c-0.14,0-0.21,0-0.28,0c-1.45,0-1.93-0.28-2-1.24
			c0.35-12.99,0.35-12.99,0.35-18.59c0-2.9-0.07-3.66-0.21-5.18c-2.76,1.11-7.88,2.35-12.57,3.04l-0.28-0.69
			c11.81-4.49,20.17-9.4,29.16-17c-3.59-3.94-5.39-6.43-7.32-10.29c-5.67,6.29-10.85,10.09-18.86,13.82l-0.35-0.48
			c5.8-5.18,9.12-9.12,13.47-16.03c2.9-4.63,4.7-8.36,5.53-11.33c2.14,0.48,3.8,0.83,4.84,1.11c4.91,1.04,6.08,1.45,6.08,2.28
			c0,0.62-0.28,0.76-3.45,1.38c-1.24,1.8-1.52,2.14-2.56,3.59h15.13V33.98z M283.22,65.42c1.52-1.66,1.8-1.87,3.45-3.46
			c-5.87-2.49-8.84-4.28-13.2-7.81c-5.11,3.73-10.29,6.49-17,9.12c0.97,0.41,2.49,1.17,4.49,2.14h22.26V65.42z M260.28,84.01h23.42
			V66.87h-23.42V84.01z M265.19,35.43c-1.11,1.38-1.59,2.07-2.76,3.39c2,3.11,5.04,6.08,8.98,8.91c4.56-4.21,7.19-7.46,10.09-12.3
			H265.19z"/>
		<path class="st2" d="M324.88,44.14c6.56,2.42,12.44,5.18,18.24,8.64c4.97-8.01,7.81-14.23,7.81-17.07c0-2.28-1.45-4.15-4.49-5.74
			c0.69-0.34,1.04-0.41,1.73-0.41c2.9,0,7.05,1.87,10.16,4.49c2,1.66,2.83,2.97,2.83,4.28c0,0.9-0.28,1.31-1.73,2.62
			c-0.9,0.83-1.31,1.45-2.97,4.08c-0.28,0.41-0.28,0.41-2.49,4.08c-0.35,0.55-1.52,2.42-3.59,5.6c-0.28,0.35-0.62,0.97-1.11,1.73
			c7.95,5.67,9.53,7.6,9.53,11.61c0,3.11-1.45,5.6-3.25,5.6c-0.97,0-1.66-0.62-2.69-2.21c-2.42-3.66-4.42-6.29-7.6-9.6
			c-5.53,7.19-9.33,11.12-14.99,15.55c-5.32,4.15-9.53,6.56-16.65,9.53l-0.48-0.76c9.95-7.39,19.41-17.62,27.22-29.23
			c-5.11-4.56-11.12-9.12-15.96-12.09L324.88,44.14z"/>
		<path class="st2" d="M387.76,88.91c4.7-5.18,7.67-9.88,10.36-16.51c1.93-4.91,3.52-11.47,3.52-14.72c0-1.66-0.21-2.28-1.11-3.25
			c-4.42,0.55-11.05,2.49-14.44,4.15c-1.31,0.69-2.07,0.9-2.97,0.9c-1.73,0-3.8-1.52-6.08-4.56c-1.38-1.73-1.93-3.04-1.93-4.35
			c0-0.35,0.07-0.62,0.28-1.38c1.73,2.56,3.87,3.8,6.63,3.8c2.14,0,2.76-0.07,13.06-1.66c6.22-0.97,9.26-1.38,21-2.69
			c2.42-0.21,4.35-0.69,6.01-1.45c0.83-0.41,1.38-0.55,2-0.55c1.11,0,2.76,0.55,4.42,1.45c2.62,1.31,3.94,2.76,3.94,4.15
			c0,1.45-1.11,2.35-2.9,2.35c-0.21,0-0.48,0-1.24-0.14c-4.01-0.69-8.91-1.11-12.99-1.11c-3.52,0-6.36,0.14-10.02,0.55
			c3.94,2.28,4.7,3.11,4.7,4.91c0,3.04-2.9,10.5-6.08,15.68c-3.94,6.36-8.71,10.92-15.62,14.99L387.76,88.91z M386.79,32.74
			c2.69,2.69,5.11,3.8,8.43,3.8c2.63,0,6.15-0.55,9.6-1.59c2.56-0.76,3.52-1.11,6.08-2.62c0.97-0.48,1.38-0.62,2.21-0.62
			c1.04,0,2.14,0.41,3.66,1.45c1.73,1.11,2.56,2.21,2.56,3.38c0,1.31-0.97,2-4.01,2.7c-4.7,1.11-12.78,2.07-17.13,2.07
			c-5.39,0-8.98-2.42-12.02-8.08L386.79,32.74z M420.03,28.32c7.05,2.49,11.47,6.36,11.47,10.02c0,1.73-0.9,2.83-2.21,2.83
			c-1.11,0-1.31-0.21-3.04-3.46c-1.73-3.04-4.08-5.8-6.91-8.22L420.03,28.32z M427.14,23.55c3.52,0.97,6.01,2.07,7.95,3.45
			c2.56,1.8,3.66,3.45,3.66,5.46c0,1.59-0.83,2.7-2.07,2.7c-0.83,0-1.24-0.35-2.28-2c-2.14-3.46-4.42-5.94-7.88-8.57L427.14,23.55z"
			/>
		<path class="st2" d="M439.65,73.44c4.97-2.97,7.6-4.91,12.44-9.05c6.01-5.18,12.09-11.47,15.2-15.68
			c1.11-1.59,1.52-2.49,1.52-3.38c0-1.45-0.97-2.63-3.32-4.01c0.62-0.21,0.9-0.28,1.52-0.28c1.87,0,4.08,0.9,7.19,2.9
			c2.14,1.45,3.18,2.62,3.18,3.73c0,1.04-0.28,1.59-1.31,2.28c-0.9,0.62-0.9,0.62-3.52,3.11c-3.73,3.45-4.21,3.87-8.5,7.53
			c2.14,1.45,3.04,2.28,3.52,3.11c0.55,1.04,0.55,1.04,0.62,6.36c0.07,4.35,0.14,5.46,0.28,10.36c0.07,1.52,0.14,3.39,0.14,4.63
			c0,2.07-0.83,3.25-2.35,3.25c-2.28,0-5.32-3.45-5.32-6.08c0-0.41,0.07-0.83,0.28-1.52c0.48-1.38,0.55-1.87,0.76-3.32
			c0.28-2.35,0.62-7.95,0.62-10.5c0-2.76-0.14-3.66-0.69-4.63c-6.36,5.18-13.2,8.91-21.9,12.02L439.65,73.44z"/>
		<path class="st2" d="M501.56,87.18c5.67-5.18,9.88-11.26,12.85-18.59c2.14-5.25,3.94-12.37,3.94-15.82c0-1.52-0.48-2.42-1.73-3.39
			c-0.83-0.69-1.8-1.17-3.04-1.52c0.76-0.69,1.38-0.9,2.62-0.9c2.56,0,8.08,2.42,10.64,4.63c5.46-3.8,12.99-11.19,12.99-12.64
			c0-0.62-0.62-0.83-2.56-0.83c-3.73,0-11.95,1.17-18.93,2.62c-5.53,1.24-8.78,2.28-12.16,4.01c-1.66,0.83-2.21,0.97-3.04,0.97
			c-1.8,0-4.21-1.87-6.15-4.84c-1.24-1.93-2.14-4.21-2.14-5.6c0-0.62,0.14-1.24,0.42-2c1.73,3.18,4.01,4.49,7.67,4.49
			c2.42,0,3.52-0.07,13.06-1.17c12.09-1.45,15.89-1.87,18.65-2.28c2.07-0.28,2.07-0.28,4.15-1.11c0.48-0.21,0.83-0.28,1.24-0.28
			c1.24,0,2.49,0.69,4.7,2.56c3.46,2.97,5.6,5.74,5.6,7.25c0,0.97-0.48,1.73-1.38,2.14c-0.48,0.28-0.69,0.35-2.07,0.62
			c-0.83,0.21-1.59,0.41-2.69,0.97c-6.01,2.83-8.36,3.8-17,7.12c-1.17,3.94-1.94,6.56-2.42,7.88c-2.9,8.22-6.63,14.09-12.5,19.35
			c-3.39,3.04-6.43,5.18-10.16,6.98L501.56,87.18z"/>
	</g>
	<g class="st1">
		<path class="st2" d="M578.06,57.75c1.56,0,3.31-0.39,13.09-2.87c2.39-0.63,4.92-1.22,10.81-2.48c1.9-0.44,2.82-0.73,3.94-1.27
			c0.68-0.29,1.31-0.44,1.85-0.44c0.88,0,2.43,0.58,3.6,1.36c1.27,0.83,1.9,1.75,1.9,2.68c0,1.17-0.93,1.9-2.39,1.9
			c-0.29,0-0.73-0.05-1.27-0.1c-0.63-0.05-0.83-0.05-1.41-0.05c-4.48,0-8.66,1.95-11.68,5.5c-2.53,2.82-3.84,6.18-3.84,9.54
			c0,4.14,2.14,7.35,5.89,8.76c1.22,0.49,2.73,0.78,3.89,0.78c0.1,0,0.24,0,0.54-0.05c0.2,0,0.34,0,0.49,0
			c0.92,0,1.8,0.34,2.53,1.02c1.22,1.07,1.9,2.38,1.9,3.5c0,1.56-1.12,2.29-3.41,2.29c-3.55,0-7.59-1.46-10.37-3.7
			c-3.31-2.63-5.06-6.38-5.06-10.81c0-4.14,2-8.57,5.45-12.22c1.9-2,3.6-3.26,7.79-5.6c-7.3,1.56-17.82,5.31-20.3,7.2
			c-0.88,0.58-1.66,0.83-2.43,0.83c-2.63,0-6.33-4.62-6.33-7.84c0-0.44,0.1-0.78,0.39-1.41C574.75,56.68,576.16,57.75,578.06,57.75z
			 M604.74,63.11c2.29,0.73,3.8,1.36,5.21,2.34c2.24,1.51,3.26,2.92,3.26,4.48c0,1.12-0.58,1.9-1.51,1.9
			c-0.63,0-1.02-0.29-1.66-1.41c-1.46-2.53-3.36-4.67-5.74-6.47L604.74,63.11z M609.7,59.31c2.43,0.54,4.28,1.22,5.7,2.14
			c1.95,1.27,2.82,2.38,2.82,3.75c0,1.17-0.58,1.95-1.46,1.95c-0.54,0-0.88-0.29-1.61-1.31c-1.65-2.38-3.36-4.04-5.84-5.74
			L609.7,59.31z"/>
		<path class="st2" d="M625.42,53.61c1.02,1.7,1.8,2.53,3.46,3.5c1.7,1.02,3.26,1.51,5.94,1.95c1.31-6.96,1.31-6.96,1.31-8.42
			c0-1.9-0.83-3.16-2.87-4.38c0.44-0.2,0.58-0.24,1.07-0.24c3.21,0,7.93,3.7,7.93,6.23c0,0.78-0.1,0.97-1.17,2.43
			c-0.24,0.34-0.88,1.46-1.17,2.09c-0.1,0.24-0.39,0.97-0.83,2.04c-0.05,0.15-0.15,0.39-0.29,0.73c1.75,0.49,2.77,1.66,2.77,3.21
			c0,1.17-0.73,1.8-2.04,1.8c-0.58,0-1.02-0.05-2.29-0.24c-0.73,2.14-1.12,3.6-1.95,7.69c0.78,0.15,1.51,0.19,2.19,0.19
			c0.19,0,0.34,0,0.54-0.05c0.29-0.05,0.49-0.05,0.54-0.05c1.31,0,3.31,2.09,3.31,3.5c0,1.12-0.88,1.75-2.43,1.75
			c-1.27,0-2.78-0.24-4.97-0.88c-0.15,1.12-0.19,1.7-0.19,2.29c0,4.43,2.58,6.81,7.3,6.81c5.5,0,9.2-3.46,9.2-8.71
			c0-4.14-2.29-8.32-6.52-11.83l0.39-0.49c7.79,3.94,11.54,8.47,11.54,13.92c0,6.52-5.55,11.2-13.19,11.2
			c-2.82,0-5.55-0.83-7.35-2.24c-2.53-1.95-3.75-5.01-3.75-9.35c0-0.68,0.05-1.31,0.1-2.53c-1.7-0.78-2.58-1.36-3.55-2.34
			c-1.51-1.46-2.34-3.31-2.34-5.06c0-2.77,2-4.92,5.7-6.23c-2.14-0.92-3.46-1.95-4.77-3.7c-0.92-1.22-1.46-2.34-2.04-4.43
			L625.42,53.61z M628.63,65.25c-0.58,0.58-0.92,1.36-0.92,2.14c0,1.75,1.7,3.21,4.77,4.14c0.29-2.24,0.83-5.5,1.31-7.64
			C631.07,63.88,629.66,64.27,628.63,65.25z"/>
	</g>
</g>
<g class="st1">
	<path class="st2" d="M120.52,163.87c0,0.58,0.05,5.21,0.15,13.97c-0.1,1.02-0.78,1.27-3.8,1.27c-1.31,0-1.66-0.2-1.7-0.97
		c0.1-6.13,0.2-10.03,0.2-11.68v-0.24c-4.19,2.19-7.98,3.94-12.66,5.79c-0.24,1.85-0.34,2.14-0.83,2.14c-0.54,0-0.78-0.68-2.63-7.11
		c1.95-0.15,2.48-0.19,4.38-0.44v-27.99h-0.92c-1.41,0-2.04,0.05-3.12,0.24l-0.24-1.75c1.22,0.34,2.24,0.49,3.5,0.49h16.06
		c1.51-1.66,1.95-2.14,3.46-3.7c2.24,1.61,2.92,2.14,5.06,3.94c0.24,0.24,0.34,0.39,0.34,0.49c0,0.2-0.19,0.29-0.49,0.29h-6.77
		v25.26H120.52z M108.84,138.61v8.13h6.52v-8.13H108.84z M108.84,147.76v7.93h6.52v-7.93H108.84z M108.84,156.72v9.05
		c2.73-0.44,2.73-0.44,6.52-1.27v-7.79L108.84,156.72L108.84,156.72z M145.78,172.34c-2.14,0.83-2.77,1.51-4.19,4.72
		c-0.15,0.29-0.29,0.44-0.58,0.44c-0.29,0-1.02-0.39-1.9-1.07c-2.77-2.04-4.96-4.33-7.06-7.4c-2.73,3.55-5.99,6.38-10.46,9.15
		l-0.34-0.49c3.46-3.65,6.04-7.4,8.57-12.46c-1.9-3.7-3.21-7.45-4.14-11.83c-0.73-3.41-0.88-4.58-1.36-10.17h-0.83
		c-0.73,0-1.12,0.05-1.95,0.15l-0.29-1.51c1.07,0.29,1.51,0.34,2.24,0.34h12.17c1.27-1.51,1.65-2,2.97-3.5
		c2,1.61,2.58,2.09,4.48,3.65c0.49,0.44,0.73,0.68,0.73,0.92c0,0.44-0.58,0.83-2.09,1.41c-1.56,8.66-3.65,14.75-7.01,20.44
		c3.36,3.26,6.13,4.87,11.15,6.62L145.78,172.34z M125.29,143.23c0.49,3.99,0.92,5.99,2,9.35c1.17,3.5,2.53,6.33,4.24,8.81
		c1.36-3.46,1.9-5.16,2.68-8.52c0.88-3.75,1.31-6.28,1.7-9.64H125.29z"/>
	<path class="st2" d="M161.12,179.01c5.16-2.87,8.47-5.99,10.71-10.17c2.04-3.8,3.16-8.76,3.16-14.07c0-3.8-0.54-7.3-1.46-9.15
		c-0.78-1.75-1.9-2.58-3.31-2.58c-2.19,0-4.24,1.95-5.79,5.55c-1.36,3.21-2.24,7.25-2.24,10.42c0,0.92,0,1.31,0.2,2.87
		c0.05,0.63,0.1,1.27,0.1,1.46c0,1.41-0.92,2.43-2.24,2.43c-1.27,0-2.29-0.78-3.02-2.34c-0.88-1.85-1.41-4.72-1.41-7.93
		c0-3.8,0.49-7.25,1.95-13.73c0.39-1.85,0.54-2.77,0.54-3.8c0-1.46-0.92-2.68-2.73-3.6c0.44-0.15,0.73-0.19,0.97-0.19
		c1.41,0,3.5,0.83,5.16,2.09s2.43,2.38,2.43,3.55c0,0.68-0.19,1.12-0.83,2.04c-2.34,3.26-4.04,8.66-4.04,12.9
		c0,0.58,0.05,1.07,0.15,2.09h0.05c1.8-6.38,3.6-10.12,6.08-12.8c1.8-1.95,3.65-2.77,6.04-2.77c5.31,0,9.1,6.08,9.1,14.6
		c0,6.33-2.19,12.12-6.18,16.45c-3.07,3.31-6.81,5.35-13.14,7.2L161.12,179.01z"/>
	<path class="st2" d="M224,152.29l3.94-4.72c2.68,2.14,3.5,2.77,5.99,4.92c0.2,0.24,0.29,0.39,0.29,0.49c0,0.2-0.24,0.34-0.58,0.34
		h-18.3v22.25h11.24c1.8-2.24,2.34-2.87,4.14-4.96c2.77,2.19,3.6,2.87,6.23,5.26c0.15,0.19,0.24,0.34,0.24,0.44
		c0,0.19-0.2,0.29-0.49,0.29h-40.64c-1.66,0-2.68,0.1-3.85,0.34l-0.39-1.85c1.51,0.39,2.53,0.49,4.24,0.49h13.39v-33.83
		c0-3.21-0.1-4.82-0.39-7.01c1.75,0.19,3.07,0.34,3.89,0.44c3.6,0.39,4.67,0.68,4.67,1.31c0,0.49-0.63,0.83-2.29,1.31v14.51H224
		V152.29z"/>
	<path class="st2" d="M255.11,156.23c-2.09,9.64-2.53,11.97-2.53,13.68c0,0.39,0,0.39,0.29,2.38c0.05,0.34,0.05,0.68,0.05,1.02
		c0,1.75-0.92,2.92-2.38,2.92c-0.97,0-1.85-0.49-2.58-1.56c-1.9-2.53-3.07-7.69-3.07-13.48c0-3.12,0.34-6.38,1.07-10.76
		c0.73-4.38,0.88-5.7,0.88-7.06c0-1.75-0.54-3.16-1.9-5.06c3.41,0.39,7.5,4.53,7.5,7.59c0,0.88-0.2,1.46-0.92,3.07
		c-1.85,4.19-2.87,8.66-2.87,12.85c0,2.63,0.29,4.23,1.07,5.84c0.1-0.24,1.51-3.6,4.87-11.54L255.11,156.23z M257.49,148.49
		c1.8,1.41,3.36,1.95,5.5,1.95c2.29,0,4.62-0.34,7.06-1.07c-0.19-9.25-0.39-9.74-5.31-11c0.92-0.78,1.66-0.97,3.55-0.97
		c2.34,0,4.72,0.49,6.04,1.27c0.88,0.54,1.31,1.17,1.31,2c0,0.54,0,0.63-0.49,2.09c-0.34,1.22-0.44,2.43-0.54,5.26
		c2-0.68,3.16-1.31,4.19-2.24c0.29-0.24,0.58-0.34,1.02-0.34c0.78,0,1.8,0.29,2.53,0.73c0.83,0.44,1.22,0.97,1.22,1.66v0.05
		c-0.05,0.88-0.73,1.46-2.58,2.29c-1.36,0.58-2.24,0.83-6.28,1.9c0,2,0,3.89,0,4.43c0.05,1.95,0.05,2.73,0.05,3.75
		c0,10.61-3.6,15.77-13.68,19.67l-0.34-0.49c3.46-2.53,5.21-4.53,6.72-7.69c1.9-3.89,2.73-8.96,2.73-16.74c0-0.54,0-1.12-0.05-2.14
		c-2.09,0.34-3.26,0.49-4.48,0.49c-3.75,0-6.18-1.22-8.62-4.43L257.49,148.49z M275.84,134.76c2.19,0.92,3.31,1.61,4.48,2.73
		c1.41,1.31,2.19,2.82,2.19,4.24c0,1.22-0.58,2-1.51,2c-0.63,0-1.02-0.44-1.51-1.8c-1.02-2.58-2.53-4.82-4.33-6.57L275.84,134.76z
		 M281.15,132.53c2.48,0.92,3.65,1.51,4.72,2.38c1.36,1.07,2.04,2.43,2.04,4.04c0,1.17-0.54,1.95-1.36,1.95
		c-0.68,0-0.92-0.34-1.46-1.66c-0.73-1.9-2.68-4.43-4.62-6.08L281.15,132.53z"/>
	<path class="st2" d="M302.03,134.67c1.41,1.95,2.77,2.97,5.16,3.8c1.51,0.54,2.97,0.88,4.53,0.97c1.8,0.15,2.48,0.49,3.46,1.56
		c0.88,0.92,1.36,2.04,1.36,3.02c0,1.17-0.83,1.9-2.09,1.9c-0.39,0-0.58-0.05-2.73-0.44c-0.39-0.05-1.07-0.1-2.04-0.1
		c-3.02,0-6.47,0.49-9.15,1.27c-1.31,0.39-2.09,1.07-2.09,1.8c0,0.54,0.2,1.07,0.97,2.53c0.2,0.39,0.34,1.17,0.34,1.95
		c0,0.34-0.05,1.02-0.15,2.09c-0.24,3.36-0.44,6.72-0.44,7.59c0,0.1,0,0.24,0,0.44c6.13-4.09,11-5.94,15.43-5.94
		c6.28,0,10.51,3.46,10.51,8.62c0,3.21-1.56,5.94-4.43,7.98c-4.23,2.92-10.22,4.33-18.59,4.38l-0.15-0.58
		c5.79-1.07,9.39-2.48,12.66-4.87c3.21-2.34,4.67-4.87,4.67-7.98c0-3.41-2.09-5.5-5.5-5.5c-2.87,0-5.79,1.31-8.62,3.89
		c-1.66,1.51-3.16,3.41-3.89,4.82c-0.49,0.92-0.58,1.12-0.88,1.36c-0.39,0.39-0.88,0.58-1.36,0.58c-1.17,0-2.43-0.88-3.41-2.34
		c-0.68-1.07-1.12-2.19-1.12-2.92c0-0.34,0-0.34,0.39-1.8c0.1-0.49,0.24-1.41,0.54-3.26c0.24-1.85,0.44-3.21,0.58-4.09
		c0.49-3.07,0.68-4.53,0.68-5.11c0-0.1,0-0.29-0.05-0.54c0-0.2,0-0.34,0-0.49c0-1.75,0.58-2.63,2.29-3.55
		c1.02-0.54,2.19-0.97,5.45-2.04c2.43-0.83,2.43-0.83,3.41-1.17c-3.41-1.85-5.11-3.89-6.23-7.59L302.03,134.67z"/>
	<path class="st2" d="M337.85,169.18c-0.78,1.75-1.17,2.19-1.9,2.19c-1.22,0-2.24-2.09-2.24-4.58c0-1.02,0.15-1.31,1.07-2.24
		c0.97-0.92,1.85-1.95,3.26-3.94c4.62-6.42,4.62-6.42,5.74-8.23c0.05-0.73,0.05-0.73,0.1-1.75c0.05-0.78,0.05-0.78,0.1-1.51
		c-1.51,0.92-1.51,0.92-4.43,2.97c-0.83,0.58-1.17,0.73-1.66,0.73c-0.92,0-2-0.83-2.92-2.29c-0.68-1.02-1.12-2.19-1.12-2.92
		c0-0.24,0.1-0.58,0.29-1.17c1.07,1.75,2.14,2.53,3.5,2.53c1.12,0,3.75-0.92,6.52-2.34c0.24-2.14,0.29-3.41,0.29-5.31
		c0-2.73-0.88-4.38-3.12-5.65c0.39-0.19,0.63-0.24,0.92-0.24c1.31,0,3.31,0.83,5.01,2.14c1.66,1.27,2.53,2.48,2.53,3.55
		c0,0.63-0.1,0.97-0.63,2.04c-0.54,1.07-0.73,1.7-0.97,2.77c1.12,0.83,1.66,1.51,1.66,2.14c0,0.34-0.2,0.68-0.83,1.61
		c-0.88,1.31-1.36,2.14-1.7,2.82c-0.05,0.29-0.1,0.83-0.1,1.66c6.91-7.06,11.68-10.22,15.33-10.22c3.8,0,6.28,2.58,6.28,6.47
		c0,1.41-0.29,3.7-0.83,6.96c-0.97,5.89-1.17,7.4-1.17,9.35c0,2.19,1.12,3.36,3.26,3.36c2.63,0,5.94-1.51,9.25-4.19l0.29,0.39
		c-2.82,4.92-7.35,8.03-11.54,8.03c-3.99,0-6.47-2.73-6.47-7.2c0-2.14,0.24-3.7,1.66-10.22c0.78-3.55,1.12-5.84,1.12-7.35
		c0-2.24-1.07-3.5-2.97-3.5c-3.21,0-8.47,4.38-14.41,12.07c-0.05,0.97-0.05,1.02-0.05,2.09c0,3.65,0.1,5.79,0.54,9.54
		c0.1,0.88,0.15,1.65,0.15,2.24c0,1.27-0.39,2.92-0.92,4.04c-0.63,1.27-1.51,1.9-2.58,1.9c-0.58,0-1.12-0.29-1.46-0.78
		c-0.2-0.29-0.24-0.49-0.34-1.27c-0.29-1.66-0.54-2.53-1.12-3.5c-0.83-1.41-1.65-2.48-3.02-3.99L337.85,169.18z M338.68,167.43
		c1.56,1.22,3.26,2.34,4.58,2.97c0.1-2.48,0.1-2.48,0.19-7.88c0.05-1.66,0.05-2.73,0.15-4.48
		C340.68,163.63,339.02,166.74,338.68,167.43z"/>
	<path class="st2" d="M385.02,146.11c1.56,0,3.31-0.39,13.09-2.87c2.43-0.63,4.14-1.02,10.81-2.48c1.95-0.44,2.53-0.63,3.94-1.27
		c0.68-0.29,1.31-0.44,1.8-0.44c0.88,0,2.48,0.58,3.65,1.36c1.26,0.83,1.9,1.75,1.9,2.68c0,1.17-0.92,1.9-2.38,1.9
		c-0.29,0-0.73-0.05-1.27-0.1c-0.63-0.05-0.83-0.05-1.41-0.05c-4.43,0-8.62,1.95-11.68,5.45c-2.48,2.87-3.8,6.18-3.8,9.59
		c0,4.14,2.14,7.35,5.84,8.76c1.22,0.49,2.77,0.78,3.89,0.78c0.1,0,0.29,0,0.54-0.05c0.2,0,0.34,0,0.49,0c0.92,0,1.8,0.34,2.53,1.02
		c1.17,1.02,1.9,2.39,1.9,3.46c0,1.56-1.12,2.34-3.46,2.34c-3.5,0-7.54-1.46-10.32-3.7c-3.31-2.63-5.06-6.43-5.06-10.81
		c0-4.14,2-8.62,5.45-12.22c1.9-2,3.65-3.26,7.79-5.6c-4.24,0.92-8.96,2.34-13.14,3.89c-4.14,1.56-5.21,2.04-7.16,3.31
		c-0.88,0.58-1.66,0.83-2.43,0.83c-2.63,0-6.33-4.62-6.33-7.84c0-0.49,0.1-0.78,0.39-1.41
		C381.66,144.99,383.12,146.11,385.02,146.11z"/>
	<path class="st2" d="M445.18,154.58c-1.95,5.06-2.34,6.28-2.92,8.66c-0.39,1.66-0.63,3.26-0.63,4.09c0,0.88,0.1,1.27,0.68,2.97
		c0.1,0.39,0.15,0.63,0.15,1.07c0,1.31-0.97,2.34-2.34,2.34c-2,0-4.58-1.9-6.43-4.67c-2.43-3.7-3.65-8.81-3.65-15.38
		c0-0.34,0-0.34,0.1-4.62c0-0.34,0-0.63,0-0.78c0-3.89-0.49-5.31-2.87-8.03c1.12,0,1.8,0.24,3.31,1.17
		c2.34,1.36,4.04,3.07,5.01,5.01c0.34,0.68,0.44,1.17,0.44,1.9c0,0.44-0.1,0.83-0.34,1.8c-0.68,2.29-1.07,5.06-1.07,7.2
		s0.34,4.33,0.97,6.18c0.44,1.31,0.88,1.95,1.9,2.73c3.16-5.45,5.06-8.62,7.2-11.88L445.18,154.58z M454.43,145.77
		c4.43,0.73,7.59,2.53,10.08,5.65c2.29,2.82,3.41,6.08,3.41,9.74c0,3.31-1.65,5.65-4.04,5.65c-0.78,0-1.27-0.24-1.95-1.02
		c-1.17-1.31-2.19-1.51-7.45-1.61l-0.1-0.49c4.28-1.27,6.13-1.85,6.91-2.19c0.88-0.39,1.02-0.58,1.02-1.56
		c0-2.14-0.63-4.96-1.56-7.01c-1.46-3.16-3.5-5.26-6.52-6.62L454.43,145.77z"/>
	<path class="st2" d="M477.36,142.75c2.73,2.48,4.67,3.16,8.71,3.16c1.95,0,4.19-0.19,6.38-0.49c-0.05-2.77-0.24-5.01-0.58-6.08
		c-0.44-1.56-1.85-2.38-4.19-2.58c0.83-0.83,1.51-1.02,3.21-1.02c1.9,0,4.14,0.34,5.5,0.88c1.41,0.54,2.04,1.22,2.04,2.14
		c0,0.49-0.1,0.83-0.63,1.75c-0.63,1.17-0.73,1.7-1.07,4.14c4.48-0.92,5.99-1.46,7.84-2.73c0.49-0.29,0.88-0.44,1.31-0.44
		c0.92,0,2.43,0.49,3.21,1.12c0.58,0.39,0.88,0.92,0.88,1.41c0,0.92-0.83,1.51-2.87,2.14c-2.87,0.83-6.62,1.61-10.66,2.19
		c-0.1,1.41-0.1,2.09-0.1,2.97v2.58c0,0.1,0,0.34,0,0.68c3.12-0.49,5.89-1.36,7.2-2.29c0.73-0.49,0.88-0.54,1.41-0.54
		c0.97,0,2.34,0.44,3.07,0.97c0.54,0.39,0.73,0.73,0.73,1.27c0,1.07-1.07,1.7-4.23,2.58c-2.48,0.68-5.79,1.31-8.08,1.56
		c0.24,5.06,0.24,5.26,0.54,7.16c3.89,0.73,7.35,1.95,9.78,3.5c2.04,1.31,2.87,2.63,2.87,4.58c0,1.75-0.73,2.87-1.8,2.87
		c-0.73,0-0.88-0.1-2.34-1.61c-2.04-2.09-5.26-4.04-8.28-5.06c0.1,0.83,0.1,1.17,0.1,1.75c0,2.04-0.63,3.5-2.04,4.58
		c-1.46,1.07-3.94,1.75-6.57,1.75c-5.5,0-9.59-2.53-9.59-5.94c0-3.99,5.26-6.77,12.71-6.77h0.83c0-0.88,0-0.88,0-2.38
		c0-0.63,0-1.31,0-2v-1.46c0-0.1,0-0.29,0-0.63c-2.09,0.1-2.53,0.1-3.16,0.1c-6.13,0-9.25-1.75-9.25-5.16
		c0-0.44,0.05-0.88,0.24-1.75l0.49,0.05c0.1,1.36,0.29,2,0.83,2.53c0.78,0.88,2.68,1.31,5.65,1.31c1.65,0,3.02-0.1,5.21-0.34
		c0-1.07-0.05-4.92-0.05-6.52c-1.51,0.15-2.92,0.2-4.23,0.2c-6.04,0-8.71-1.31-11.44-5.79L477.36,142.75z M488.31,168.16
		c-4.48,0-7.54,1.46-7.54,3.55c0,1.66,1.9,2.63,5.06,2.63c2.92,0,5.35-0.88,6.13-2.19c0.39-0.73,0.54-1.51,0.54-3.6
		C490.79,168.25,489.72,168.16,488.31,168.16z"/>
	<path class="st2" d="M530.22,178.62c2.63-1.36,4.28-2.48,5.99-4.19c2.29-2.29,3.41-4.33,4.19-7.64c-0.92,0.58-1.85,0.88-3.02,0.88
		c-3.7,0-6.52-3.41-6.52-7.93c0-4.58,2.87-7.84,6.91-7.84c1.02,0,1.61,0.15,2.97,0.83c0-1.36,0-1.75,0-2.34c0-1.17,0-1.56-0.05-3.26
		c-6.52,0.78-11.54,2.09-15.19,3.99c-0.34,0.15-0.97,0.29-1.41,0.29c-1.41,0-2.87-1.07-4.23-3.02c-0.92-1.41-1.51-2.82-1.51-3.85
		c0-0.19,0.05-0.44,0.19-0.83c1.41,2,3.02,2.87,5.21,2.87c1.46,0,1.46,0,10.12-1.27c1.95-0.29,3.41-0.44,6.72-0.83
		c-0.1-3.7-0.34-5.26-1.02-6.18c-0.78-1.07-2-1.7-4.24-2.04c0.88-0.78,1.51-0.97,3.07-0.97c1.85,0,3.75,0.29,5.5,0.83
		c1.9,0.63,2.77,1.41,2.77,2.53c0,0.49-0.1,0.83-0.49,1.51c-0.73,1.31-0.83,1.75-1.07,3.75c6.77-0.58,7.16-0.63,8.81-1.36
		c0.88-0.39,1.36-0.49,2.09-0.49c1.31,0,3.46,0.92,4.72,2.04c0.63,0.54,0.88,1.02,0.88,1.8c0,0.88-0.73,1.46-1.75,1.46
		c-0.44,0-1.17-0.1-2.87-0.34c-2.77-0.34-4.87-0.49-7.98-0.49c-1.65,0-2.48,0.05-4.14,0.19c-0.2,2.58-0.34,5.74-0.34,7.54
		c0,0.2,0,0.58,0,1.02c1.27,2.38,1.7,4.09,1.7,6.77c0,5.55-2.34,10.17-6.77,13.29c-2.29,1.61-4.43,2.53-9,3.84L530.22,178.62z
		 M537.52,153.31c-1.95,0-3.46,2.04-3.46,4.67c0,3.07,1.46,5.21,3.6,5.21c1.9,0,3.02-1.56,3.02-4.24
		C540.68,155.35,539.51,153.31,537.52,153.31z"/>
	<path class="st2" d="M579.38,164.07c-0.24-7.79-0.73-11.73-2.77-21.32c-0.15-0.78-0.29-1.75-0.29-2.29c0-1.95,1.31-2.82,4.09-2.82
		s4.04,0.88,4.04,2.82c0,1.02,0,1.02-1.02,5.89c-1.17,5.55-1.85,11.29-2.04,17.72H579.38z M584.39,171.56c0,2.24-1.8,4.04-4.04,4.04
		s-4.04-1.8-4.04-4.04s1.8-4.04,4.04-4.04C582.64,167.52,584.39,169.28,584.39,171.56z"/>
</g>
</svg>
