<?xml version="1.0" encoding="utf-8"?>
<!-- Generator: Adobe Illustrator 24.1.0, SVG Export Plug-In . SVG Version: 6.00 Build 0)  -->
<svg version="1.1" id="レイヤー_1" xmlns="http://www.w3.org/2000/svg" xmlns:xlink="http://www.w3.org/1999/xlink" x="0px"
	 y="0px" viewBox="0 0 1800 2001" style="enable-background:new 0 0 1800 2001;" xml:space="preserve">
<style type="text/css">
	.st0{fill:#A40D0A;}
	.st1{enable-background:new    ;}
	.st2{fill:#FFFFFF;}
	.st3{fill:#80807D;}
	.st4{fill:#B71425;}
</style>
<g>
	<rect x="589.72" y="1060.5" class="st0" width="625.56" height="136.09"/>
	<g class="st1">
		<path class="st2" d="M658.96,1126.85v5.53h6.21v6.76h-6.21v12.85c0,3.69-0.61,5.65-3.07,6.82c-2.52,1.11-5.96,1.23-10.57,1.23
			c-0.25-2.09-1.23-5.22-2.21-7.25c3.07,0.12,6.39,0.12,7.38,0.12c1.04-0.06,1.29-0.25,1.29-1.04v-12.72h-12.85
			c2.7,2.7,5.9,6.45,7.38,9.16l-5.84,3.75c-1.23-2.64-4.36-6.7-7.01-9.65l5.29-3.26h-7.44v-3.26c-1.78,0.55-3.63,1.17-5.41,1.72
			v22.56h-6.7v-20.53c-3.32,0.98-6.45,1.91-9.22,2.71l-1.72-7.01c3.01-0.68,6.82-1.66,10.94-2.77v-11.31h-4.12
			c-0.61,2.95-1.41,5.59-2.27,7.81c-1.11-0.92-3.75-2.58-5.16-3.32c1.97-4.92,2.95-12.54,3.5-19.79l6.08,0.98
			c-0.25,2.46-0.55,4.92-0.92,7.38h2.89v-11.49h6.7v11.49h5.1v5.78h13.52v-5.22h-10.88v-6.64h10.88v-5.47h7.25v5.47h11.31v6.64
			h-11.31v5.22h13.95v6.76L658.96,1126.85L658.96,1126.85z M651.77,1126.85h-21.82v-5.59h-4.06v9.4l5.65-1.6l0.49,3.32h19.73v-5.53
			H651.77z"/>
		<path class="st2" d="M731.3,1137.18h-12.66v22.93h-7.38v-22.93h-12.85v-6.95h12.85v-12.29h-3.75c-1.6,3.63-3.44,6.88-5.35,9.46
			c-1.23-0.92-3.75-2.58-5.59-3.56v3.2h-19.73v-5.59h19.73v0.86c0.86-1.11,1.6-2.34,2.34-3.63h-25.02v-5.78h25.14v5.59
			c2.58-4.55,4.55-10.26,5.72-15.92l7.31,1.41c-0.55,2.46-1.23,4.92-2.03,7.25h19.98v6.7h-11.37v12.29h12.66L731.3,1137.18
			L731.3,1137.18z M696.39,1156.91h-13.4v2.4h-6.33v-20.96h19.73L696.39,1156.91L696.39,1156.91z M676.84,1129.86h19.73v5.47h-19.73
			V1129.86z M696.69,1110.19h-19.48v-5.53h19.48V1110.19z M682.99,1144.12v7.07H690v-7.07H682.99z"/>
		<path class="st2" d="M760.79,1135.58c-2.15,0.61-4.36,1.23-6.58,1.78v14.69c0,3.56-0.68,5.29-2.77,6.45
			c-2.03,1.11-4.98,1.29-9.34,1.29c-0.25-1.84-1.17-4.73-2.03-6.64c2.4,0.06,4.92,0.06,5.72,0.06c0.86,0,1.17-0.31,1.17-1.23v-12.66
			l-5.96,1.47l-1.91-6.95c2.27-0.49,4.92-1.04,7.87-1.78v-10.88h-7.07v-6.76h7.07v-11.62h7.25v11.62h6.02v6.76h-6.02v9.1l5.65-1.41
			L760.79,1135.58z M794.84,1127.28c-2.34,8.48-6.27,15.24-11.49,20.41c4.06,2.83,8.79,4.86,14.26,6.21
			c-1.54,1.47-3.63,4.42-4.67,6.33c-5.96-1.78-11-4.36-15.3-7.74c-4.79,3.32-10.2,5.78-16.23,7.56c-0.8-1.97-2.52-5.04-3.87-6.64
			c5.41-1.29,10.39-3.26,14.69-6.02c-3.56-4.12-6.45-8.97-8.73-14.63l1.84-0.55h-3.2v-6.58h12.11v-7.38h-13.21v-6.76h13.21v-8.79
			h7.25v8.79h13.77v6.76H781.5v7.38h7.38l1.29-0.31L794.84,1127.28z M770.63,1132.2c1.72,4.06,4.18,7.74,7.25,10.88
			c3.2-3.01,5.9-6.7,7.74-10.88H770.63z"/>
		<path class="st2" d="M836.57,1122.49v36.69h-6.76v-36.69h-8.17v-2.52c-1.04,2.09-2.27,4.24-3.56,6.27v33.93h-6.76v-24.83
			c-1.23,1.41-2.52,2.7-3.75,3.87c-0.68-1.54-2.64-5.22-3.93-6.76c4.86-4.06,9.59-10.45,12.48-16.78l5.53,1.91v-1.78h8.17v-12.11
			h6.76v12.11h7.93v6.7h-7.94V1122.49z M821.27,1105.15c-3.26,5.35-8.42,11.12-13.15,14.87c-0.86-1.54-2.64-4.24-3.75-5.47
			c3.93-3.01,8.17-7.87,10.33-11.74L821.27,1105.15z M828.09,1129.25c-0.61,8.54-1.91,17.09-4.3,22.68
			c-1.04-0.86-3.56-2.58-4.92-3.38c2.21-4.92,3.01-12.6,3.38-20.16L828.09,1129.25z M841.06,1114.99c-0.74-2.27-2.46-5.9-4.06-8.6
			l4.86-2.03c1.6,2.64,3.44,6.08,4.18,8.36L841.06,1114.99z M843.09,1128.51c1.29,5.9,2.4,13.28,2.77,18.25l-5.65,1.11
			c-0.18-4.92-1.29-12.48-2.46-18.32L843.09,1128.51z M862.14,1129.86h-4.73v22.37c0,3.44-0.49,5.41-2.64,6.58
			c-2.15,1.17-5.16,1.29-9.22,1.29c-0.18-2.03-1.04-4.98-1.97-7.13c2.52,0.12,5.1,0.12,5.84,0.12c0.8,0,1.04-0.18,1.04-0.98v-22.25
			h-5.35v-6.51h17.02L862.14,1129.86L862.14,1129.86z M861.22,1112.47h-14.57v-6.39h14.57V1112.47z"/>
		<path class="st2" d="M897.11,1119.91c6.33-3.93,13.34-10.08,17.33-14.94l6.64,6.33c-4.67,4.61-10.57,9.4-16.53,13.34v24.83
			c0,2.71,0.12,6.52,0.55,8.05h-9.71c0.25-1.47,0.43-5.35,0.43-8.05v-19.67c-6.33,3.32-14.14,6.64-21.7,8.85l-3.87-7.74
			C881.25,1128.08,890.29,1124.08,897.11,1119.91z"/>
		<path class="st2" d="M955.13,1140.99c10.51-6.21,18.5-15.61,22.37-23.91l4.79,8.67c-4.67,8.3-12.85,16.78-22.74,22.74
			c-6.21,3.75-14.14,7.19-22.8,8.67l-5.16-8.11C941.18,1147.69,949.17,1144.55,955.13,1140.99z M955.13,1121.13l-6.27,6.39
			c-3.2-3.44-10.88-10.14-15.37-13.28l5.78-6.15C943.57,1110.99,951.56,1117.38,955.13,1121.13z"/>
		<path class="st2" d="M1017.38,1110.99c-0.06,1.91-0.12,3.75-0.25,5.53h11.56c1.54,0,3.13-0.18,4.61-0.43l5.35,2.58
			c-0.18,0.98-0.43,2.58-0.43,3.26c-0.25,6.64-0.98,23.79-3.63,30.06c-1.35,3.13-3.69,4.73-7.93,4.73c-3.5,0-7.19-0.25-10.14-0.49
			l-0.98-8.24c3.01,0.55,6.21,0.86,8.6,0.86c1.97,0,2.83-0.68,3.5-2.15c1.78-3.87,2.58-16.16,2.58-22.8h-13.83
			c-2.27,16.23-8.11,25.88-19.11,33.68l-7.13-5.78c2.52-1.41,5.59-3.5,8.05-6.02c5.72-5.65,8.79-12.54,10.14-21.88h-8.11
			c-2.09,0-5.47,0-8.11,0.25v-8.05c2.58,0.25,5.78,0.43,8.11,0.43h8.79c0.06-1.72,0.12-3.5,0.12-5.35c0-1.35-0.18-4.18-0.43-5.65
			h9.04C1017.57,1106.94,1017.45,1109.52,1017.38,1110.99z"/>
		<path class="st2" d="M1098.88,1128.08c-1.84,5.96-4.49,11.92-9.1,17.03c-6.21,6.88-14.08,11.06-21.94,13.28l-6.08-6.95
			c9.22-1.91,16.6-5.96,21.27-10.76c3.32-3.38,5.22-7.19,6.33-10.63h-29.69c-1.48,0-4.55,0.06-7.13,0.31v-7.99
			c2.58,0.18,5.22,0.37,7.13,0.37h30.42c1.97,0,3.63-0.25,4.49-0.62l5.47,3.38C1099.62,1126.3,1099.13,1127.4,1098.88,1128.08z
			 M1064.58,1107.98h23.66c1.91,0,4.92-0.06,6.64-0.31v7.93c-1.66-0.12-4.55-0.18-6.76-0.18h-23.54c-1.97,0-4.61,0.06-6.39,0.18
			v-7.93C1059.91,1107.92,1062.5,1107.98,1064.58,1107.98z"/>
		<path class="st2" d="M1154.93,1150.02l-3.38,7.68c-8.3-3.44-27.72-7.68-37.55-9.16l3.07-7.74
			C1127.58,1142.46,1146.51,1146.89,1154.93,1150.02z M1152.35,1130.72l-3.01,7.68c-7.07-2.71-22.8-6.27-31.96-7.74l2.83-7.44
			C1128.99,1124.7,1144.6,1128.02,1152.35,1130.72z M1156.53,1113.94l-3.13,7.68c-7.13-2.64-24.58-6.58-33.25-7.68l2.89-7.25
			C1131.08,1107.67,1148.78,1111.24,1156.53,1113.94z"/>
	</g>
</g>
<g>
	<rect x="589.72" y="1290.93" class="st0" width="625.56" height="136.09"/>
	<g class="st1">
		<path class="st2" d="M658.96,1382.48c3.63,0,4.3-1.35,4.73-8.05c1.84,1.23,4.98,2.52,7.13,3.01c-1.11,9.16-3.32,12.23-11.25,12.23
			h-13.52c-9.1,0-11.62-2.46-11.62-11.12v-4.36l-18.99,2.46l-0.98-7.07l19.98-2.46v-6.82l-16.9,2.27l-1.04-7.01l17.95-2.33v-6.82
			c-5.78,1.04-11.68,1.91-17.27,2.58c-0.25-1.84-1.35-4.86-2.21-6.39c15.24-1.97,31.9-5.35,41.92-9.34l6.08,5.96
			c-6.08,2.27-13.34,4.12-20.9,5.72v7.25l22.06-2.95l1.04,6.82l-23.11,3.2v6.88l25.94-3.32l0.98,6.88l-26.92,3.5v5.35
			c0,3.44,0.61,3.93,4.67,3.93L658.96,1382.48L658.96,1382.48z"/>
		<path class="st2" d="M727.49,1375.53c-2.09,3.07-4.86,5.59-8.17,7.62c4.86,0.86,10.33,1.41,16.1,1.6
			c-1.35,1.48-3.01,4.12-3.81,5.84c-7.44-0.55-14.32-1.66-20.22-3.69c-4.86,1.84-10.26,3.01-15.73,3.81
			c-0.61-1.54-2.34-4.24-3.44-5.53c3.87-0.37,7.68-0.92,11.25-1.72c-2.09-1.23-4-2.64-5.72-4.18c-3.69,4.67-8.36,8.6-14.07,11.31
			c-1.23-1.35-3.75-3.5-5.41-4.61c7.93-3.32,13.71-9.1,17.33-15.55h-15.43v-5.22h17.82c0.37-1.04,0.68-2.03,0.98-3.07l6.76,1.35
			c-0.37-0.68-0.86-1.47-1.41-2.27c-7.99,0.62-16.04,1.17-22.19,1.66l-0.55-4.86l4.92-0.18c0.43-0.98,0.86-2.15,1.29-3.26h-7.19
			v-4.18h5.29v-15.49h23.42v4h-17.09v1.54h15.8v3.38h-15.8v1.6h15.8v3.38h-15.8v1.6h19.18v4.18h-5.41c2.03,2.21,4.18,4.86,5.22,6.7
			l-5.29,2.27l0.31,0.06c-0.18,0.55-0.37,1.04-0.55,1.6h29.01v5.22H703.4c-0.49,0.92-0.98,1.84-1.48,2.7h20.41l1.11-0.18
			L727.49,1375.53z M694.24,1354.57c-0.55,1.04-1.11,2.09-1.66,3.01c2.77-0.12,5.72-0.31,8.67-0.43c-0.55-0.68-1.11-1.35-1.66-1.91
			l1.66-0.68h-7.01V1354.57z M703.64,1377.68c2.03,1.35,4.55,2.52,7.38,3.44c2.46-0.98,4.61-2.09,6.39-3.44H703.64z M735.91,1355.31
			c-5.16,4-14.08,6.95-21.57,8.36c-0.68-1.35-2.21-3.69-3.44-5.04c7.07-1.17,15.61-3.75,20.16-7.31L735.91,1355.31z M731.67,1337.06
			c-3.93,3.81-11,6.76-16.96,8.3c-0.68-1.23-2.27-3.44-3.5-4.67c5.59-1.29,12.17-3.87,15.67-7.25L731.67,1337.06z M733.88,1346.03
			c-4.61,3.56-12.11,6.33-18.32,7.81c-0.68-1.23-2.21-3.26-3.44-4.49c5.9-1.29,13.09-3.93,17.09-6.88L733.88,1346.03z"/>
		<path class="st2" d="M745.68,1336.5h18.38v19.85h-11.62c-0.18,1.84-0.31,3.69-0.49,5.47h12.11c0,0-0.06,1.84-0.12,2.77
			c-0.61,14.87-1.29,21.08-3.07,23.29c-1.35,1.6-2.7,2.15-4.67,2.46c-1.66,0.25-4.49,0.25-7.44,0.18c-0.18-2.27-1.04-5.16-2.21-7.19
			c2.64,0.25,5.16,0.25,6.39,0.25c0.98,0.06,1.54-0.06,2.15-0.74c0.98-0.98,1.6-5.04,2.09-14.75h-5.84l-0.37,2.95l-6.39-0.98
			c0.86-5.35,1.6-13.64,1.97-20.28h10.63v-6.82h-11.49v-6.46H745.68z M796.08,1390.9c-0.31-1.17-0.86-2.52-1.54-4
			c-10.51,0.92-21.45,1.72-29.38,2.27l-0.86-7.07c4.06-0.12,9.16-0.43,14.69-0.8v-7.93h-12.35v-17.64h12.35v-4.79
			c-4.73,0.37-9.16,0.61-12.91,0.86l-0.98-6.82l5.41-0.25c2.09-3.63,4.24-8.11,5.47-11.62l7.87,1.78c-1.72,3.2-3.75,6.52-5.65,9.47
			c3.75-0.18,7.68-0.37,11.62-0.62c-0.92-1.29-1.97-2.64-2.95-3.81l6.15-2.7c3.5,3.93,7.44,9.28,9.03,13.15l-6.58,3.01
			c-0.37-1.04-0.98-2.27-1.72-3.56c-2.58,0.18-5.16,0.43-7.74,0.61v5.29h12.91v17.64H786v7.44l5.04-0.37
			c-0.86-1.41-1.78-2.77-2.7-4.06l5.9-2.46c3.44,4.3,6.95,10.14,8.24,14.14L796.08,1390.9z M778.99,1367.42v-5.65h-5.78v5.65H778.99
			z M786,1361.76v5.65h5.96v-5.65H786z"/>
		<path class="st2" d="M821.58,1355.93c0,9.96-0.92,25.01-6.52,34.48c-1.23-1.23-4.3-3.26-5.96-4c5.1-8.73,5.47-21.51,5.47-30.49
			v-17.21h21.88v-5.47h7.62v5.47h21.82v6.52h-44.31L821.58,1355.93L821.58,1355.93z M862.51,1370.18
			c-2.46,4.92-6.08,8.73-10.51,11.68c4.49,1.29,9.59,2.15,15.12,2.64c-1.48,1.54-3.38,4.36-4.3,6.27
			c-7.07-0.86-13.34-2.46-18.68-4.86c-6.02,2.4-12.91,3.87-20.22,4.79c-0.55-1.84-1.84-4.61-2.95-6.15
			c5.65-0.49,11.06-1.35,15.92-2.77c-2.7-1.91-5.1-4.18-7.07-6.82l2.89-1.04h-9.16v-5.72h33.13l1.29-0.31L862.51,1370.18z
			 M831.41,1365.76v-9.59h-8.3v-5.78h8.3v-4.06h6.88v4.06h11.19v-4.06h7.25v4.06h8.85v5.78h-8.85v9.59H831.41z M837.19,1373.93
			c1.84,1.97,4.3,3.63,7.19,5.04c2.83-1.35,5.35-3.07,7.38-5.04H837.19z M838.3,1356.17v4.06h11.19v-4.06H838.3z"/>
		<path class="st2" d="M930.12,1335.21v55.32h-7.99v-3.26h-36.94v3.26h-7.62v-55.32H930.12z M922.13,1380.45v-37.74h-36.94v37.74
			H922.13z M916.17,1349.96v23.36h-25.08v-23.36H916.17z M908.79,1356.36h-10.82v10.63h10.82V1356.36z"/>
		<path class="st2" d="M994.09,1371.41c-2.09,4.24-5.1,7.62-8.85,10.33c3.99,1.35,8.48,2.21,13.46,2.7
			c-1.48,1.41-3.26,4.18-4.12,6.02c-6.21-0.86-11.55-2.46-16.17-4.79c-5.22,2.4-11.25,3.93-17.58,4.92
			c-0.61-1.78-1.91-4.43-3.13-5.9c5.16-0.55,10.08-1.54,14.38-3.07c-1.54-1.23-2.95-2.58-4.18-4.06c-1.66,1.35-3.38,2.58-5.1,3.56
			c-1.17-1.17-3.56-3.5-5.04-4.55c4.79-2.34,9.47-6.02,12.48-10.14h-5.47v-15.37c-0.61,0.74-1.29,1.47-1.91,2.15
			c-0.92-0.74-2.52-1.91-4-2.83c-1.11,1.91-2.4,3.87-3.75,5.78v34.54h-6.82v-26.31c-1.6,1.72-3.2,3.2-4.79,4.55
			c-0.68-1.6-2.64-5.29-3.81-6.82c5.1-3.87,10.51-9.83,13.71-15.8l4.42,1.66c3.81-3.75,7.01-9.28,8.73-14.81l7.13,1.66
			c-0.43,1.35-0.98,2.7-1.6,4.06h24.83v5.9h-27.84c-0.55,0.98-1.17,1.97-1.78,2.89h26.18v18.75h-15.61
			c-0.68,1.04-1.35,2.09-2.15,3.13h12.78l1.23-0.25L994.09,1371.41z M958.75,1335.77c-3.87,5.29-9.59,11.25-14.69,15
			c-0.92-1.47-2.7-4.06-3.81-5.35c4.36-3.07,9.47-8.17,12.05-12.17L958.75,1335.77z M971.29,1354.88h15.43v-2.64h-15.43V1354.88z
			 M971.29,1361.89h15.43v-2.71h-15.43V1361.89z M972.89,1374.49c1.54,1.66,3.44,3.07,5.59,4.36c2.21-1.29,4.18-2.7,5.72-4.36
			H972.89z"/>
		<path class="st2" d="M1009.03,1377.93h9.77v-27.6h-8.24v-5.59c4.55-0.86,7.68-2.03,10.57-3.81h6.7v37h8.54v7.31h-27.35
			L1009.03,1377.93L1009.03,1377.93z"/>
		<path class="st2" d="M1064.89,1374.24h-19.42v-6.21l16.96-27.11h10.88v26.37h5.35v6.95h-5.35v11h-8.42L1064.89,1374.24
			L1064.89,1374.24z M1064.89,1367.3v-8.85c0-2.64,0.18-6.82,0.31-9.46h-0.25c-1.11,2.4-2.34,4.67-3.63,7.13l-7.07,11.19h10.64
			V1367.3z"/>
		<path class="st2" d="M1087.08,1362.87c0-15,6.08-22.8,15.43-22.8c9.34,0,15.37,7.87,15.37,22.8c0,15.06-6.02,23.23-15.37,23.23
			S1087.08,1377.93,1087.08,1362.87z M1109.33,1362.87c0-12.29-2.89-15.73-6.82-15.73s-6.88,3.44-6.88,15.73
			c0,12.35,2.95,16.16,6.88,16.16S1109.33,1375.22,1109.33,1362.87z"/>
		<path class="st2" d="M1127.58,1352.61c0-9.16,4.61-14.38,11.12-14.38c6.58,0,11.12,5.22,11.12,14.38s-4.55,14.57-11.12,14.57
			C1132.19,1367.17,1127.58,1361.76,1127.58,1352.61z M1143.5,1352.61c0-6.7-2.09-9.28-4.79-9.28c-2.64,0-4.73,2.58-4.73,9.28
			s2.09,9.4,4.73,9.4C1141.41,1362.01,1143.5,1359.31,1143.5,1352.61z M1165.07,1338.22h5.41l-24.89,47.33h-5.35L1165.07,1338.22z
			 M1160.77,1371.04c0-9.16,4.67-14.44,11.19-14.44c6.51,0,11.12,5.29,11.12,14.44c0,9.1-4.61,14.51-11.12,14.51
			C1165.44,1385.55,1160.77,1380.14,1160.77,1371.04z M1176.69,1371.04c0-6.76-2.03-9.28-4.73-9.28s-4.79,2.52-4.79,9.28
			c0,6.64,2.09,9.4,4.79,9.4S1176.69,1377.68,1176.69,1371.04z"/>
	</g>
</g>
<g>
	<rect x="484.37" y="1521.36" class="st0" width="836.27" height="136.09"/>
	<g class="st1">
		<path class="st2" d="M545.65,1577.57c-2.58,7.07-6.58,16.35-11.55,22.56c-5.22,6.51-13.83,14.01-23.29,17.82l-7.01-7.19
			c9.59-3.26,17.89-9.34,23.36-15.98c5.9-7.13,9.96-17.76,11.62-26.55l9.59,2.46C547.25,1572.89,546.39,1575.6,545.65,1577.57z"/>
		<path class="st2" d="M569.19,1587.58h33.01c2.89,0,5.59-0.25,7.19-0.37v9.65c-1.48-0.06-4.61-0.31-7.19-0.31h-33.01
			c-3.5,0-7.62,0.12-9.9,0.31v-9.65C561.51,1587.4,565.99,1587.58,569.19,1587.58z"/>
		<path class="st2" d="M624.63,1593.48c2.77-2.83,7.56-8.85,11.8-13.89c3.63-4.3,7.25-4.98,12.05-0.49
			c4.12,3.87,8.85,8.79,12.54,12.78c4.12,4.36,10.39,11.19,15.12,16.23l-6.76,7.25c-4.12-5.1-9.34-11.43-12.97-15.67
			c-3.56-4.24-9.04-10.2-11.25-12.48c-1.97-1.97-3.26-1.84-5.04,0.37c-2.4,3.07-6.76,9.16-9.22,12.48c-1.41,1.97-2.89,4.12-4,5.72
			l-7.38-7.62C621.37,1596.68,622.72,1595.33,624.63,1593.48z M666.73,1582.91l-5.53,2.4c-1.78-3.87-3.32-6.88-5.59-10.02l5.35-2.21
			C662.67,1575.6,665.38,1580.08,666.73,1582.91z M675.15,1579.29l-5.35,2.58c-1.97-3.87-3.63-6.7-5.9-9.77l5.29-2.4
			C670.97,1572.16,673.73,1576.52,675.15,1579.29z"/>
		<path class="st2" d="M694.63,1598.71c1.72-5.29,1.78-16.9,1.78-24.34c0-2.46-0.18-4.12-0.55-5.65h9.04
			c-0.06,0.31-0.43,3.01-0.43,5.59c0,7.25-0.18,20.22-1.84,26.43c-1.84,6.95-5.72,12.97-10.94,17.64l-7.5-4.98
			C689.59,1609.59,692.91,1603.93,694.63,1598.71z M713.13,1609.77v-35.83c0-2.77-0.43-5.1-0.49-5.29h9.16
			c-0.06,0.18-0.43,2.58-0.43,5.35v32.15c4.98-2.15,11.06-7.01,15.18-12.97l4.73,6.76c-5.1,6.64-13.95,13.28-20.84,16.78
			c-1.35,0.74-2.09,1.35-2.64,1.84l-5.16-4.24C712.88,1613.15,713.13,1611.43,713.13,1609.77z"/>
		<path class="st2" d="M788.72,1612.11c5.78,1.6,12.05,3.63,15.92,5.1l-7.62,3.87c-3.69-1.6-10.14-3.93-16.53-5.78l4.73-3.2h-17.58
			l6.39,2.4c-4.67,3.2-12.48,5.53-18.87,6.95c-1.23-1.54-3.87-4.24-5.41-5.47c6.08-0.74,12.91-2.09,16.72-3.87h-8.85v-22.07h40.14
			v22.07H788.72z M758.17,1581.68h-6.76V1570h8.48c-0.86-1.47-1.97-3.07-2.95-4.36l6.51-1.78c1.6,1.78,3.26,4.24,4.12,5.9
			l-0.74,0.25h6.64v-6.39h7.25v6.39h6.76c1.35-1.84,3.01-4.42,3.87-6.33l7.5,1.78c-1.23,1.72-2.52,3.26-3.69,4.55h8.54v11.68h-7.13
			v-6.7h-38.41v6.69H758.17z M761.19,1587.95v-10.69h32.64v10.69H761.19z M764.57,1596.13h25.94v-2.15h-25.94V1596.13z
			 M764.57,1602.09h25.94v-2.15h-25.94V1602.09z M764.57,1608.11h25.94v-2.21h-25.94V1608.11z M767.95,1583.9h18.62v-2.58h-18.62
			V1583.9z"/>
		<path class="st2" d="M867.51,1585c-2.52,7.99-6.15,15.12-10.57,21.08c1.78,4.42,3.75,7.01,5.72,7.01c1.48,0,2.21-3.07,2.52-10.76
			c1.66,1.72,4.24,3.32,6.21,4.12c-1.17,11.37-3.63,14.08-9.34,14.08c-4.3,0-7.68-3.07-10.39-8.11c-3.13,3.26-6.58,6.02-10.39,8.36
			c-1.11-1.6-3.75-4.61-5.29-6.02c4.73-2.58,8.97-5.96,12.54-9.96c-2.09-6.95-3.44-15.55-4.24-24.77h-17.82v6.58h15.18
			c0,0-0.06,1.91-0.06,2.77c-0.18,12.91-0.55,18.38-1.97,20.16c-1.17,1.6-2.4,2.15-4.24,2.46c-1.6,0.25-4.24,0.25-7.07,0.18
			c-0.12-2.15-0.92-4.98-2.03-6.82c2.21,0.18,4.3,0.25,5.29,0.25c0.86,0,1.35-0.12,1.84-0.74c0.62-0.86,0.86-3.81,1.04-11.55h-7.99
			c-0.25,8.97-1.54,20.96-6.58,28.46c-1.29-1.41-4.55-4.12-6.21-4.98c4.67-7.38,5.1-18.07,5.1-26.06v-17.95h25.08
			c-0.12-3.01-0.25-6.02-0.25-9.1h7.68c-0.06,3.07,0,6.08,0.12,9.1h9.4c-2.27-1.84-5.35-3.81-7.87-5.35l4.43-4.36
			c3.38,1.72,7.87,4.55,10.02,6.58l-2.95,3.13h6.39v7.25h-18.99c0.55,6.15,1.41,11.92,2.46,16.84c2.4-4.12,4.42-8.67,5.9-13.64
			L867.51,1585z"/>
		<path class="st2" d="M919.63,1564.29c3.87,7.81,11.55,16.72,18.25,21.88c-1.97,1.54-4.79,4.49-6.21,6.58
			c-1.29-1.17-2.58-2.52-3.93-3.93v0.43c-0.68,18.56-1.41,25.81-3.57,28.4c-1.54,1.97-3.2,2.58-5.59,2.89
			c-2.09,0.31-5.65,0.31-9.28,0.18c-0.12-2.21-1.11-5.29-2.4-7.38c3.38,0.25,6.58,0.31,8.11,0.31c1.11,0,1.78-0.12,2.46-0.86
			c1.23-1.29,1.91-6.76,2.46-19.61h-12.11c-1.54,11.8-5.53,22.31-21.45,28.27c-0.92-2.09-3.07-5.1-4.86-6.76
			c13.89-4.49,17.09-12.54,18.32-21.51h-10.39v-4.3c-1.6,1.66-3.26,3.13-4.92,4.43c-1.35-1.66-4.49-4.61-6.27-5.9
			c7.68-5.16,14.44-13.64,18.13-22.99l7.87,2.27c-3.01,7.07-7.31,13.83-12.17,19.36h33.19c-4.86-5.65-9.46-12.42-12.85-18.87
			L919.63,1564.29z"/>
		<path class="st2" d="M992.33,1579.04c-1.41,6.02-4.12,15.55-9.22,22.37c-5.59,7.38-13.77,13.46-24.71,16.96l-6.7-7.31
			c12.17-2.89,19.12-8.24,24.09-14.44c4.06-5.1,6.39-12.11,7.19-17.33h-28.64c-2.77,0-5.72,0.12-7.31,0.25v-8.67
			c1.84,0.18,5.35,0.49,7.38,0.49h28.4c1.23,0,3.2-0.06,4.86-0.49l6.02,3.87C993.13,1575.97,992.64,1577.75,992.33,1579.04z"/>
		<path class="st2" d="M1051.52,1588.94c-1.84,5.96-4.49,11.92-9.1,17.03c-6.21,6.88-14.08,11.06-21.94,13.28l-6.08-6.95
			c9.22-1.91,16.6-5.96,21.27-10.76c3.32-3.38,5.22-7.19,6.33-10.63h-29.69c-1.48,0-4.55,0.06-7.13,0.31v-7.99
			c2.58,0.18,5.22,0.37,7.13,0.37h30.42c1.97,0,3.63-0.25,4.49-0.62l5.47,3.38C1052.26,1587.15,1051.76,1588.26,1051.52,1588.94z
			 M1017.22,1568.84h23.66c1.91,0,4.92-0.06,6.64-0.31v7.93c-1.66-0.12-4.55-0.18-6.76-0.18h-23.54c-1.97,0-4.61,0.06-6.39,0.18
			v-7.93C1012.55,1568.78,1015.13,1568.84,1017.22,1568.84z"/>
		<path class="st2" d="M1075.55,1587.58h33.01c2.89,0,5.59-0.25,7.19-0.37v9.65c-1.47-0.06-4.61-0.31-7.19-0.31h-33.01
			c-3.5,0-7.62,0.12-9.9,0.31v-9.65C1067.86,1587.4,1072.35,1587.58,1075.55,1587.58z"/>
		<path class="st2" d="M1134.92,1609.22v-33.31c0-2.33-0.31-5.22-0.68-7.01h9.65c-0.37,2.4-0.61,4.61-0.61,7.01v31.96
			c10.02-2.89,23.72-10.76,31.59-20.34l4.36,6.95c-8.42,10.08-21.14,17.39-35.65,22.13c-0.86,0.31-2.21,0.74-3.63,1.66l-5.84-5.04
			C1134.85,1611.68,1134.92,1610.63,1134.92,1609.22z"/>
		<path class="st2" d="M1213.4,1601.84c10.51-6.21,18.5-15.61,22.37-23.91l4.79,8.67c-4.67,8.3-12.85,16.78-22.74,22.74
			c-6.21,3.75-14.14,7.19-22.8,8.67l-5.16-8.11C1199.45,1608.54,1207.44,1605.41,1213.4,1601.84z M1213.4,1581.99l-6.27,6.39
			c-3.2-3.44-10.88-10.14-15.37-13.28l5.78-6.15C1201.84,1571.85,1209.83,1578.24,1213.4,1581.99z"/>
	</g>
</g>
<g class="st1">
	<path class="st3" d="M398.15,508.75c-0.14,7.13-0.14,14.41-0.14,21.76v3.5c0,7.13,0,14.34,0.14,21.54l7.63,0.64v2.5h-25.47v-2.5
		l7.63-0.64c0.07-7.06,0.07-14.27,0.07-21.54v-3.5c0-7.2,0-14.55-0.07-21.76h-11.06l-3,11.77h-3.99l0.5-14.77h45.3l0.43,14.77h-3.99
		l-2.92-11.77L398.15,508.75L398.15,508.75z"/>
	<path class="st3" d="M474.48,532.22c0,17.9-11.63,27.82-24.61,27.82s-24.68-9.63-24.68-27.82c0-17.83,11.77-27.75,24.68-27.75
		C462.85,504.47,474.48,514.17,474.48,532.22z M449.87,557.11c9.56,0,14.05-10.99,14.05-24.9c0-13.7-4.49-24.83-14.05-24.83
		s-13.98,11.13-13.98,24.83C435.89,546.13,440.31,557.11,449.87,557.11z"/>
	<path class="st3" d="M536.48,556.19v2.5h-21.83v-2.5l5.71-0.57l-12.7-23.75l-6.28,7.63c0,4.85,0,10.34,0.14,16.05l6.28,0.64v2.5
		h-22.9v-2.5l6.78-0.64c0.14-7.06,0.14-14.27,0.14-21.54v-3.5c0-7.13,0-14.34-0.14-21.54l-6.78-0.64v-2.57h23.47v2.57l-6.85,0.71
		c-0.14,7.06-0.14,14.27-0.14,21.47v5.07l20.83-26.25l-6.85-1v-2.57h18.33v2.57l-7.42,1l-12.41,14.98l17.26,31.39L536.48,556.19z"/>
	<path class="st3" d="M561.45,508.96c-0.21,7.13-0.21,14.27-0.21,21.54v3.5c0,7.13,0,14.41,0.21,21.54l6.78,0.64v2.5H544.4v-2.5
		l6.78-0.64c0.14-7.06,0.14-14.27,0.14-21.54v-3.5c0-7.13,0-14.34-0.14-21.54l-6.78-0.64v-2.57h23.83v2.57L561.45,508.96z"/>
	<path class="st3" d="M627.79,532.22c0,17.9-11.63,27.82-24.61,27.82s-24.68-9.63-24.68-27.82c0-17.83,11.77-27.75,24.68-27.75
		C616.16,504.47,627.79,514.17,627.79,532.22z M603.18,557.11c9.56,0,14.05-10.99,14.05-24.9c0-13.7-4.49-24.83-14.05-24.83
		s-13.98,11.13-13.98,24.83C589.2,546.13,593.62,557.11,603.18,557.11z"/>
	<path class="st3" d="M673.45,502.26c1.93-0.14,4.21-0.29,6.35,0.43c3.92,1.14,8.2,5.14,8.2,7.7c0,2.14-1.78,2.07-3.71,4.07
		c-2.5,2.57-6.06,6.35-10.34,10.34c2.43,1.64,4.21,3,4.21,4.35c0,1.28-0.64,2.57-0.64,4.64c-0.36,9.56,0.14,19.83,0.14,23.47
		c0,3.07-1.36,4.99-3.92,4.99c-3.71,0-5.42-3.64-5.42-7.2c0-1.36,0.5-3,0.78-5.35c0.79-6.99,0.86-15.05,0.79-18.19
		c0-1.07-0.14-2-0.43-2.78c-4.99,4.14-15.98,12.13-28.53,16.26l-0.78-1.36c15.12-8.7,29.96-23.83,35.24-32.03
		c1.21-1.93,1.86-3.42,1.86-4.35c0-1.28-2-2.71-4.14-3.78L673.45,502.26z"/>
	<path class="st3" d="M710.12,508.46c9.84,1.14,21.54,5.35,21.54,12.7c0,2.57-1.86,4.78-4.64,4.78c-2.5,0-4.14-1.85-5.99-4.28
		c-3.14-4.35-4.71-6.85-11.56-12.06L710.12,508.46z M763.12,515.53l1.28,0.86c-8.06,15.62-21.04,28.18-37.59,38.31
		c-2.28,1.43-3.21,3.78-5.28,3.78c-4.07,0-9.06-4.21-10.49-7.06c-0.86-1.64-1.57-4.42-1.57-6.49l1-0.64
		c1.71,1.71,4.21,4.42,6.78,4.42C724.96,548.7,752.85,529.29,763.12,515.53z"/>
	<path class="st3" d="M817.56,517.81c2-0.21,3.07-2.28,4.57-2.28c2.21,0,8.42,4.85,8.42,7.2c0,1.93-2.64,1.93-3,4.64
		c-0.93,6.35-2.92,16.83-6.78,24.61c-2.07,3.99-6.35,7.78-10.56,7.78c-2.28,0-2.85-0.93-3.5-3.28c-0.64-2.43-2.28-4-6.78-7.99
		l0.64-1.07c4.14,1.5,7.63,2.42,9.34,2.57c1.86,0.21,2.57-0.07,3.42-1.21c4.07-5.35,6.63-20.12,6.63-24.68
		c0-0.64-0.29-0.93-0.78-0.93c-2.92,0-7.56,0.64-11.77,1.28c-2.85,9.42-9.84,28.18-32.81,38.16l-0.93-1.28
		c15.27-11.41,21.54-24.47,25.04-35.38c-3,0.57-6.35,1.28-8.27,1.86c-2.21,0.71-3.57,1.85-5.28,1.85c-2.28,0-5.85-4.14-6.71-6.56
		c-0.71-1.71-0.57-3.35-0.21-5.42l1-0.29c1.57,2.14,2.92,3.99,5.35,3.99c1.78,0,8.56-0.71,15.91-1.57c0.93-3.78,1.78-7.99,1.85-9.99
		c0-1.5-0.21-2.14-1.14-2.78c-1.28-0.86-2.92-1.5-4.42-2v-1.07c1.64-0.78,4.07-1.93,5.99-1.93c3.99,0,10.42,3.78,10.42,6.13
		c0,2.21-2,2.21-2.78,5.21c-0.36,1.36-0.79,3.21-1.36,5.42L817.56,517.81z"/>
	<path class="st3" d="M848.38,520.66l1.07-0.5c2.07,2.14,3.42,3.5,6.14,3.5c4.35,0,22.4-2.28,27.82-3.28
		c2.64-0.43,3.64-1.93,5.21-1.93c2.92,0,9.06,4.92,9.06,7.7c0,1.93-3.28,3-4.85,5.92c-6.63,12.48-18.48,24.61-39.59,30.82
		l-0.79-1.43c17.55-9.2,28.46-23.11,32.53-34.67c0.29-0.93,0-1.28-0.86-1.21c-3.85,0.14-18.33,3-22.83,4.35
		c-2.14,0.57-3.5,1.93-5.06,1.93c-3,0-6.56-4.35-7.28-6.56C848.45,523.66,848.31,522.37,848.38,520.66z M886.19,510.53
		c-5.71,1.36-16.05,3.14-22.19,3.14c-4.49,0-6.85-2.64-9.42-7.85l0.78-0.64c2.92,1.85,5.42,2.14,7.85,2.14
		c5.28,0,9.49-1.21,12.48-2.07c3.57-1,4.64-1.93,5.63-1.93c4.78,0,7.92,1.43,7.92,4.28C889.26,509.03,888.47,510.03,886.19,510.53z"
		/>
	<path class="st3" d="M915.8,543.63c9.63-0.14,22.47,2.14,29.6,6.28c3.5,2,5.78,4.78,5.78,7.13s-1.07,4.35-4.49,4.35
		c-2.28,0-4.71-1.93-7.63-4.49c-6.71-5.35-14.05-8.99-23.54-12.13L915.8,543.63z M917.51,523.37c9.63-0.29,17.48,1.43,21.04,2.92
		c3.28,1.36,5.99,3.28,5.99,6.56c0,2-1.21,3.85-3.85,3.85c-1.85,0-3.14-0.86-5.99-2.92c-3.14-2.07-8.27-5.71-17.41-9.2
		L917.51,523.37z M950.54,516.74c0,1.43-1.07,3.64-3.64,3.71c-2.5,0.07-3.42-1.07-6.21-3.28c-6.06-4.85-10.63-7.06-19.19-9.92
		l0.29-1.21c6.71-0.07,13.7,0.71,19.05,2.14C945.12,509.18,950.54,511.46,950.54,516.74z"/>
	<path class="st3" d="M995.42,515.53c3.07-1,5.49-2.07,7.42-3.14c1.43-0.79,2.5-1.64,3.14-1.64c1.78,0,5.28,1,5.28,3.78
		c0,2-1.57,3.14-6.78,4.99c-2.07,0.79-6.63,2.21-11.13,3.28c-0.86,3-1.78,6.35-2.85,9.42c-2.64,8.13-7.13,20.9-9.92,26.04
		c-1.28,2.42-2.28,3.92-4.92,3.92c-2.14,0-3.85-2.35-3.85-5.28s1.78-3.92,3.78-7.28c2.64-4.28,6.06-10.77,9.2-19.83
		c0.57-1.64,1.14-3.64,1.71-5.71c-2,0.29-4.14,0.5-5.78,0.5c-5.42,0-8.7-1.36-10.99-9.13l0.86-0.64c3.71,2.64,5.78,3.5,8.77,3.5
		c3,0.07,6.13-0.36,8.77-0.86c0.71-3.42,1.21-6.49,1.36-8.28c0.07-1.78-0.14-2.35-1.36-3.28c-1.07-0.86-2.5-1.5-4.21-2.07l0.07-1.07
		c1.93-0.78,3.78-1.28,5.85-1.21c4.35,0,8.92,2.28,8.99,4.21c0,1.93-1.5,3.28-3.14,8.7L995.42,515.53z M998.27,542.2
		c0.29,1.78,0.79,4.35,2.21,6.42c2.78,4.07,6.92,5.28,12.7,5.28c6.28,0,8.99-1.36,10.42-1.36c2.78,0,6.13,1.28,6.13,4.35
		c0,1.85-1.78,3.14-4.64,3.78c-2.28,0.57-5.42,1.07-10.2,1.07c-10.91,0-17.19-4.42-17.98-12.41c-0.43-2.28-0.14-5.06,0.14-7.06
		L998.27,542.2z M1009.97,535.14c2.07-1.43,5.56-4.14,6.28-4.92c0.36-0.43,0.21-0.78-0.36-1c-1.5-0.5-4.07-0.79-6.13-0.79
		c-2.21,0-5.21,0.36-8.42,0.93l-0.43-1.07c3.71-2.5,9.49-4.64,15.27-4.64c4.71,0,7.7,1.14,9.27,2c2.14,1.36,3,2.92,3,4.42
		c0,2-1.36,3.07-4.42,3.14c-1.28,0.07-2.85,0.14-4.71,0.57c-3.14,0.5-6.21,1.36-8.7,2.28L1009.97,535.14z M1016.6,506.75
		c4,1.14,7.35,2.5,9.49,4.49c1.57,1.43,2.07,2.71,2.07,4.07c0,1.5-1.14,2.57-2.71,2.57c-1.14-0.07-2.07-1.07-3.21-2.78
		c-1.28-1.93-3.07-4.49-6.35-7.42L1016.6,506.75z M1022.95,502.19c4.14,0.86,7.35,2,9.34,3.5c1.78,1.43,2.5,2.78,2.5,4.42
		c0,1.57-0.93,2.5-2.42,2.5c-1.36,0-2.14-1.14-3.5-2.85c-1.28-1.64-2.78-3.71-6.49-6.56L1022.95,502.19z"/>
	<path class="st3" d="M1074.75,518.59c1.71-0.21,3.5-0.43,4.85-0.43c5.71,0,9.42,3.42,9.42,12.91c0,9.13-2.14,19.4-7.42,25.18
		c-2.28,2.5-5.64,4.14-9.27,4.14c-2.78,0-3.85-1.07-4.71-4.64c-0.36-1.43-0.86-2.07-4.28-5.78l0.64-0.93
		c3.57,1.85,6.35,3.07,8.27,3.07c2.28,0,3.42-0.71,4.78-2.5c3.42-4.14,5.42-14.27,5.42-21.4c0-3.85-1.21-5.78-4.57-5.78
		c-1.28,0-3.14,0.36-5.14,0.93c-1.93,4.71-4.14,9.84-5.92,13.7c-3.28,7.13-7.7,16.34-10.27,20.69c-1.57,2.71-2.71,3.42-4.64,3.42
		c-1.71,0-3.5-1.71-3.5-4.42c0-2.14,0.29-3,1.64-4.64c3.5-4.35,7.35-10.34,10.84-17.48c1.35-2.78,2.57-5.64,3.71-8.42
		c-1.78,0.71-3.5,1.43-4.78,2c-2.35,1.07-3.71,1.85-5.64,1.85c-2.14,0-5.42-3.71-5.92-6.63c-0.36-1.93,0.21-3.5,0.79-4.92l1-0.21
		c1.28,2.28,2.14,3.85,4,3.85c2.43,0,7.49-1.21,12.98-2.28c1.85-5.14,3-9.27,3-10.7c0-0.93-0.29-1.71-1.14-2.14
		c-1.14-0.78-3.28-1.28-5.28-1.71v-1.07c1.5-0.78,3.5-1.78,6.49-1.78c3.28,0,9.92,2.85,9.92,5.35c0,2-2.07,3.07-3.07,5.42
		L1074.75,518.59z M1092.37,517.81c4.64,0.21,9.49,1.71,13.05,5.14c3.99,3.71,5.78,8.7,5.78,14.27c0,4.28-1.57,7.35-4.71,7.35
		c-2.5,0.07-2.64-2.21-4.99-3.14c-1.57-0.57-5.28-1-7.78-1.07l-0.21-1.28c3-0.78,5.42-1.36,6.99-2c1.64-0.71,2.28-1.5,2.21-3.42
		c0-2.07-0.57-5.42-2.5-8.49c-1.85-2.92-4.42-5.06-8.27-6.06L1092.37,517.81z"/>
	<path class="st3" d="M1135.67,503.9l0.29-1.07c7.06-0.5,11.48,0.64,14.41,2.35c4.07,2.35,6.35,5.42,6.35,9.56c0,2-1,3.21-3.35,3.21
		s-4.07-0.78-7.28-1.07c-3.35-0.21-8.06,0.36-9.84,0.64c-1.28,0.14-1.57,0.71-1.57,1.28c0,1.14,1.07,2.92,1.28,4.92
		c0.14,2.07-0.21,3.57-0.5,5.85c-0.36,2.78-1.14,5.71-1.07,7.85c0.07,0.79,0.36,0.93,0.93,0.57c5.07-3.28,13.91-9.13,23.61-9.13
		c11.48,0,17.19,7.85,17.19,15.48c0,13.91-20.62,19.54-38.52,17.9l-0.14-1.43c5.56-0.78,11.13-1.85,16.05-3.99
		c10.49-4.07,14.12-9.42,14.12-15.27c0-4.99-3.35-9.7-9.49-9.7c-7.99,0-16.55,8.7-20.62,13.84c-1.78,2.5-2.71,5.35-5.07,5.35
		c-1.35,0-2.71-0.79-4.07-2.35c-1.28-1.35-1.85-2.85-1.85-4.49c0-1.35,0.5-2.92,0.93-5.71c0.5-3.35,1.64-10.42,2-13.77
		c0.21-2.07,0.14-3.28,0.14-5.07c0-1.93,0.78-4.14,3.28-4.57c3.14-0.5,9.84-2.21,12.2-3.5c0.86-0.43,0.93-1.07,0.29-1.93
		C1143.52,506.75,1140.1,505.4,1135.67,503.9z"/>
	<path class="st3" d="M1251.31,535.36c-0.07,0.86-0.64,1.5-2.35,1.78v25.18c0,0.57-3.57,2-6.63,2h-1.43v-5.99h-40.59v4.64
		c0,0.64-3.5,2-6.42,2h-1.5v-30.6l10.34,1c-0.14,0.86-0.64,1.5-2.43,1.78v19.12h15.76v-28.25h-12.27v2.42
		c0,0.64-3.57,1.93-6.63,1.93h-1.43v-27.11l10.49,0.93c-0.14,0.93-0.64,1.57-2.43,1.85v17.98h12.27v-27.46l11.06,1.07
		c-0.14,1.07-0.64,1.78-2.57,2.07v24.33h12.84v-20.76l10.42,0.93c-0.07,0.93-0.57,1.57-2.28,1.85v22.11c0,0.57-3.57,1.85-6.71,1.85
		h-1.43v-3.99h-12.84v28.25h16.34v-21.9L1251.31,535.36z"/>
	<path class="st3" d="M1302.25,533.22c6.06,9.06,17.76,15.84,28.68,18.55l-0.14,0.86c-3.21,0.64-5.71,3.35-6.71,7.42
		c-10.77-5.14-18.48-13.84-23.04-26.18v28.18c0,0.93-3.71,3-6.92,3h-1.64v-23.61c-6.92,8.49-16.76,15.34-28.75,20.12l-0.64-0.86
		c10.84-6.78,19.69-17.41,24.54-27.46h-22.97l-0.64-1.93h28.46v-19.05h-24.75l-0.57-2h25.32v-12.13l11.2,1.07
		c-0.14,1-0.71,1.71-2.64,2v9.06h12.91l4.85-6.06c0,0,5.42,4.14,8.77,6.92c-0.14,0.78-1,1.14-2,1.14h-24.54v19.05h15.19l5.06-6.21
		c0,0,5.49,4.14,8.92,6.99c-0.21,0.78-0.93,1.14-2,1.14L1302.25,533.22L1302.25,533.22z M1275.57,513.39
		c19.55,6.42,11.27,21.12,4,14.55c-0.21-4.92-2.5-10.34-4.64-14.27L1275.57,513.39z M1304.46,529.36
		c1.93-3.92,4.35-10.42,6.13-16.19l10.7,4.21c-0.36,0.86-1.36,1.43-2.92,1.28c-3.85,4.49-8.7,8.56-13.05,11.27L1304.46,529.36z"/>
	<path class="st3" d="M1353.98,504.75c1.21,2.28,3,4.35,4.85,4.35c2.57,0,10.06-1.78,13.91-3c2.78-0.93,2.78-2,4.28-2
		c3.35,0,8.99,4.49,8.99,7.56c0,2-2.5,2.57-4.85,4.21c-4.71,3.07-13.48,10.63-16.19,13.48c-0.79,0.78-0.36,1.28,0.36,1.07
		c2.35-0.78,6.42-2.42,11.91-2.42c9.63,0,17.69,5.99,17.62,16.69c-0.07,9.56-8.56,17.26-23.25,17.26c-8.35,0-14.55-3.64-14.55-9.84
		c0-4.71,4.28-7.78,9.56-7.78c4.85,0,10.7,2.71,12.41,9.7c5.92-2.43,8.35-6.99,8.42-11.91c0.07-6.28-4.14-11.13-12.34-11.13
		c-9.77,0-16.62,7.13-22.68,14.98c-1.71,2.21-2.42,2.85-4.21,2.78c-1.57-0.07-3.14-1.93-3-4.64c0.14-1.93,1.28-3.5,3.64-5.78
		c6.99-6.85,21.97-20.97,25.68-26.04c1.21-1.57,0.5-2.07-0.64-1.86c-2.64,0.43-7.06,2.85-9.77,4.42c-1.36,0.86-2.57,1.93-4.07,1.93
		c-4.21,0-7.42-4.85-7.63-7.35c-0.07-1.64,0.14-2.85,0.57-4.64L1353.98,504.75z M1372.38,555.54c-0.86-4.78-3.71-7.85-7.63-7.85
		c-2.71,0-4.49,1.36-4.49,3.57c0,2.71,3.28,4.42,8.77,4.42C1370.24,555.69,1371.31,555.62,1372.38,555.54z"/>
</g>
<g>
	<g class="st1">
		<path class="st3" d="M443.91,640.37l0.43-1.21c2.92,0.21,5.85,0.57,9.56,1.43c5.06,1.21,9.99,4.07,9.99,8.42
			c0,1.71-0.86,3.92-3.78,3.92c-3.42,0-4.78-3.14-8.13-6.06C448.69,643.72,446.12,641.65,443.91,640.37z M500.9,635.44l1.28,0.86
			c-7.13,14.48-23.26,29.11-38.81,38.31c-2.35,1.36-3.28,3.71-5.71,3.71c-3.07,0-7.85-3.21-9.92-6.42
			c-1.21-1.85-1.71-5.21-1.78-7.13l0.93-0.5c1.57,1.64,3.92,4.42,6.71,4.42C461.81,668.69,488.78,650.21,500.9,635.44z
			 M452.97,625.46l0.43-1.28c2.78,0.29,6.13,0.5,10.63,1.64c4.42,1.14,8.56,3.35,8.56,7.92c0,1.93-1.5,3.78-3.5,3.78
			c-3.42,0-4.71-2.78-8.49-6.21C457.82,628.81,455.25,626.81,452.97,625.46z"/>
		<path class="st3" d="M518.24,637.16c1.71-0.78,3.21-1.57,5.64-1.57c2.5,0,7.92,1.21,7.92,3.14c0,1.36-0.5,3.07-0.36,4.57
			c0.07,0.93,0.29,2.71,0.64,4.57c4.92-1.28,11.41-3.14,13.2-3.64c1.36-0.5,2.64-1.78,3.57-1.78c2.64,0,7.92,4.42,7.92,7.2
			c0,1.57-2.71,1.64-3.71,2.5c-2.78,2.42-7.35,6.78-12.91,9.77l-0.71-0.57c2.92-4.14,5.49-9.34,6.49-11.98
			c0.29-0.71,0-0.86-0.78-0.71c-2.21,0.5-7.28,2.07-12.2,3.57c1.85,7.35,3.99,15.27,5.14,19.19c0.5,1.57,1.5,4.35,1.5,6.06
			c0,2.28-1,3.42-3.21,3.42c-3.14,0-5.28-2.64-5.49-5.99c-0.43-4.57-2-13.62-3.85-20.9c-2.28,0.71-4.49,1.64-5.71,2.14
			c-2.64,1.14-3.71,2.71-5.21,2.71c-2.43,0-5.35-2.78-6.13-4.71c-0.36-1-0.36-2.71-0.21-4.14l0.57-0.21c1.28,1,2.14,1.93,4.14,1.93
			c1.85,0,6.78-1.21,11.41-2.28c-1-3.5-2-6.92-2.78-8.49c-0.71-1.36-2.57-2.35-4.78-3.07L518.24,637.16z"/>
		<path class="st3" d="M573.11,626.46c9.84,1.14,21.54,5.35,21.54,12.7c0,2.57-1.85,4.78-4.64,4.78c-2.5,0-4.14-1.85-5.99-4.28
			c-3.14-4.35-4.71-6.85-11.56-12.06L573.11,626.46z M626.11,633.52l1.28,0.86c-8.06,15.62-21.04,28.18-37.59,38.31
			c-2.28,1.43-3.21,3.78-5.28,3.78c-4.07,0-9.06-4.21-10.49-7.06c-0.86-1.64-1.57-4.42-1.57-6.49l1-0.64
			c1.71,1.71,4.21,4.42,6.78,4.42C587.94,666.69,615.83,647.29,626.11,633.52z"/>
		<path class="st3" d="M646.94,632.09c5.71,0,23.68-1.93,27.54-2.78c2.92-0.64,3.07-1.78,5.06-1.78c3.28,0,10.77,6.56,10.77,9.13
			c0,2.35-2.64,3.14-3.78,5.42c-8.56,17.41-21.61,30.89-44.73,38.38l-0.86-1.43c19.47-10.2,33.67-27.75,37.09-43.37
			c0.14-0.64-0.14-0.86-0.64-0.86c-4.78,0-20.54,3.35-24.61,4.42c-1.64,0.43-3.42,1.86-5.06,1.86c-3.21,0-7.06-4.71-7.78-7.35
			c-0.43-1.78-0.43-3.07-0.43-4.99l1-0.43C642.52,630.31,644.31,632.09,646.94,632.09z M685.25,624.1c0-4.35,3.5-7.85,7.85-7.85
			c4.42,0,7.92,3.5,7.92,7.85c0,4.42-3.5,7.92-7.92,7.92C688.75,632.02,685.25,628.52,685.25,624.1z M688.18,624.1
			c0,2.78,2.21,4.99,4.92,4.99c2.78,0,4.99-2.21,4.99-4.99c0-2.71-2.21-4.92-4.99-4.92C690.39,619.18,688.18,621.39,688.18,624.1z"
			/>
	</g>
	<path class="st3" d="M711.39,643.79c2.14,2.85,3.35,4.78,7.13,4.78c7.63,0,29.18-1.43,33.53-1.78c4.78-0.43,7.99-1,9.7-1
		c4.28,0,7.99,2.21,7.99,5.28c0,2.07-1.71,3.07-4.71,3.07c-2.85,0-5.35-0.21-10.34-0.21c-5.42,0-21.4,1-26.89,1.64
		c-5.14,0.5-6.21,2.21-8.92,2.21c-2.78,0-7.2-4.64-8.49-8.13c-0.64-1.64-0.43-3.71-0.21-5.42L711.39,643.79z"/>
	<path class="st3" d="M810.95,657.49c-4.35,0-7.92-3.57-7.92-7.92s3.57-7.92,7.92-7.92s7.92,3.57,7.92,7.92
		S815.3,657.49,810.95,657.49z"/>
	<g class="st1">
		<path class="st3" d="M851.24,622.39c2-0.93,4.49-2.07,6.63-2c3.5,0.07,9.77,3.42,9.77,5.78c0,2.07-1.57,2.78-1.93,5.42
			c-0.43,2.78-0.57,6.63-0.64,10.77c7.13,0.79,13.77,2.71,17.76,5.07c3.14,1.85,5.21,3.99,5.21,7.78c0,2.28-1.57,4.35-4.14,4.35
			c-4.57,0-4.85-3.92-10.34-8.99c-2.21-1.85-4.78-3.57-8.56-5.35c-0.21,7.56-0.14,16.69,0.07,22.83c0.14,3.64,0.29,6.06,0.29,7.06
			c0,3.71-0.78,5.21-3.64,5.21c-3.71,0-5.71-3.85-5.71-9.13c0-1.93,0.64-3.57,1-6.71c0.57-5.35,0.64-14.91,0.64-19.19
			c0-5.92-0.21-14.91-0.78-18.12c-0.43-2.35-2.64-3.14-5.56-3.64L851.24,622.39z"/>
		<path class="st3" d="M908.03,627.1v-1.14c1.78-0.86,3.85-1.64,5.71-1.64c3.14,0,9.7,3.57,9.7,6.13c0,1.85-1.57,2.92-1.71,5.85
			c-0.21,3.07-0.14,15.62-0.14,20.47c0,3.78-1.43,5.35-3.85,5.35c-2.35,0-4.64-3.57-4.64-7.78c0-1.78,1-3.85,1-8.77
			c0-3.5,0-11.06-0.43-13.98c-0.14-1.43-0.5-2-1.57-2.64C911.09,628.31,909.6,627.67,908.03,627.1z M916.73,681.53l-0.78-1.28
			c13.55-7.42,20.69-16.76,21.76-30.89c0.5-5.35,0.43-14.98,0.14-19.05c-0.07-1.64-0.21-2.43-1.57-3.21
			c-1.07-0.71-2.64-1.14-4.28-1.64l-0.07-1.14c1.93-1.43,4.85-3.07,6.71-3.07c3,0,9.34,3.57,9.34,5.71c0,1.86-1.43,2.64-1.57,4.78
			c-0.21,4.14-0.64,13.27-0.86,17.62C944.55,666.4,934.35,676.46,916.73,681.53z"/>
		<path class="st3" d="M970.88,643.79c2.14,2.85,3.35,4.78,7.13,4.78c7.63,0,29.18-1.43,33.53-1.78c4.78-0.43,7.99-1,9.7-1
			c4.28,0,7.99,2.21,7.99,5.28c0,2.07-1.71,3.07-4.71,3.07c-2.85,0-5.35-0.21-10.34-0.21c-5.42,0-21.4,1-26.89,1.64
			c-5.14,0.5-6.21,2.21-8.92,2.21c-2.78,0-7.2-4.64-8.49-8.13c-0.64-1.64-0.43-3.71-0.21-5.42L970.88,643.79z"/>
		<path class="st3" d="M1049.21,622.39c2-0.93,4.49-2.07,6.63-2c3.5,0.07,9.77,3.42,9.77,5.78c0,2.07-1.57,2.78-1.93,5.42
			c-0.43,2.78-0.57,6.63-0.64,10.77c7.13,0.79,13.77,2.71,17.76,5.07c3.14,1.85,5.21,3.99,5.21,7.78c0,2.28-1.57,4.35-4.14,4.35
			c-4.57,0-4.85-3.92-10.34-8.99c-2.21-1.85-4.78-3.57-8.56-5.35c-0.21,7.56-0.14,16.69,0.07,22.83c0.14,3.64,0.29,6.06,0.29,7.06
			c0,3.71-0.79,5.21-3.64,5.21c-3.71,0-5.71-3.85-5.71-9.13c0-1.93,0.64-3.57,1-6.71c0.57-5.35,0.64-14.91,0.64-19.19
			c0-5.92-0.21-14.91-0.78-18.12c-0.43-2.35-2.64-3.14-5.56-3.64L1049.21,622.39z"/>
		<path class="st3" d="M1133.11,622.17c2.28,0.07,5.14,0.07,7.42,0.93c3.57,1.43,7.78,4.99,7.78,7.92c0,1.71-1.93,2-3.35,4.28
			c-1.5,2.57-4.78,8.2-8.49,13.41c5.56,3.85,11.13,9.42,11.27,14.27c0.07,3.21-2,4.92-4.57,4.92c-4.07,0-5.28-5.35-12.13-12.34
			c-7.99,9.06-19.12,18.12-33.88,23.04l-0.79-1.28c12.34-7.42,22.19-17.55,29.25-26.75c-3.71-3.21-9.2-7.56-16.76-12.13l0.78-1.43
			c8.56,2.35,15.19,5.14,20.19,7.78c4.57-7.06,7.56-13.84,7.56-16.05c0-2.28-2.28-3.92-4.71-5.42L1133.11,622.17z"/>
		<path class="st3" d="M1171.06,626.46c9.84,1.14,21.54,5.35,21.54,12.7c0,2.57-1.86,4.78-4.64,4.78c-2.5,0-4.14-1.85-5.99-4.28
			c-3.14-4.35-4.71-6.85-11.56-12.06L1171.06,626.46z M1224.06,633.52l1.28,0.86c-8.06,15.62-21.04,28.18-37.59,38.31
			c-2.28,1.43-3.21,3.78-5.28,3.78c-4.07,0-9.06-4.21-10.49-7.06c-0.86-1.64-1.57-4.42-1.57-6.49l1-0.64
			c1.71,1.71,4.21,4.42,6.78,4.42C1185.9,666.69,1213.79,647.29,1224.06,633.52z"/>
		<path class="st3" d="M1240.33,622.39c2-0.93,4.49-2.07,6.63-2c3.5,0.07,9.77,3.42,9.77,5.78c0,2.07-1.57,2.78-1.93,5.42
			c-0.43,2.78-0.57,6.63-0.64,10.77c7.13,0.79,13.77,2.71,17.76,5.07c3.14,1.85,5.21,3.99,5.21,7.78c0,2.28-1.57,4.35-4.14,4.35
			c-4.57,0-4.85-3.92-10.34-8.99c-2.21-1.85-4.78-3.57-8.56-5.35c-0.21,7.56-0.14,16.69,0.07,22.83c0.14,3.64,0.29,6.06,0.29,7.06
			c0,3.71-0.79,5.21-3.64,5.21c-3.71,0-5.71-3.85-5.71-9.13c0-1.93,0.64-3.57,1-6.71c0.57-5.35,0.64-14.91,0.64-19.19
			c0-5.92-0.21-14.91-0.79-18.12c-0.43-2.35-2.64-3.14-5.56-3.64L1240.33,622.39z"/>
	</g>
	<g class="st1">
		<path class="st3" d="M1300.65,672.47c0-5.56,4.57-10.06,10.13-10.06s10.06,4.49,10.06,10.06c0,5.56-4.49,10.13-10.06,10.13
			C1305.22,682.6,1300.65,678.03,1300.65,672.47z M1303.22,672.47c0,4.14,3.35,7.56,7.56,7.56c4.14,0,7.49-3.42,7.49-7.56
			s-3.35-7.49-7.49-7.49C1306.57,664.98,1303.22,668.33,1303.22,672.47z"/>
	</g>
</g>
<g class="st1">
	<path class="st3" d="M520.28,831.69c1.93-1.36,4.07-2.5,5.85-2.5c4.42,0,9.56,3.85,9.56,6.28c0,1.43-1.5,2.43-1.78,4.99
		c-0.21,1.64-0.36,3.64-0.57,5.85c5.42-1.21,7.78-1.64,8.7-1.64c3.64,0,8.13,1.78,8.13,5.35c0,2.28-1.64,3-4.28,3
		c-3.42,0-5.56-1.07-11.98-0.5l-0.93,0.07c-0.29,4.64-0.64,10.99-1.5,14.12c-0.93,3.5-3.42,6.21-7.06,6.21
		c-1.78,0-2.78-0.64-3.5-2.64c-1-2.57-4.21-4.35-7.13-6.06l0.36-1.07c3.57,0.86,7.35,1.64,8.7,1.64c1.57,0,2.35-0.14,2.92-2.14
		c0.43-1.71,0.71-5.92,0.86-9.2c-6.13,1.07-12.91,2.64-18.19,4.35c-0.29,5.99-0.5,12.7-0.43,15.69c0.14,6.06,1.36,7.35,9.13,7.35
		c8.92,0,15.69-2.28,17.26-2.28c3.07,0,6.35,1.36,6.35,4.35c0,1.78-1.28,3.07-4.28,3.78c-3.07,0.78-8.56,1.21-15.27,1.21
		c-12.06,0-18.76-2-19.26-11.56c-0.21-3.92-0.14-9.77-0.21-16.05c-6.49,2.71-9.7,4.64-11.7,4.64c-2.35,0-5.14-2.78-6.49-5.78
		c-0.57-1.28-0.64-3.14-0.5-5.14l0.93-0.36c1.5,1.85,3.07,3.07,4.92,3.07c1.43,0,7.63-1.5,12.77-2.85
		c-0.07-4.14-0.14-8.06-0.36-10.7c-0.21-2-0.57-2.64-1.64-3.21c-1.14-0.64-2.71-0.86-4.21-1.14l-0.07-1
		c1.78-1.07,4.21-2.21,6.13-2.21c4.49,0,9.7,4,9.7,6.35c0,1.57-1.43,2.07-1.93,4.92c-0.21,1.14-0.36,2.92-0.5,5.14
		c5.35-1.36,12.63-3,17.98-4.21c0.07-3.85,0.14-8.92,0-11.91c-0.07-1.28-0.78-2-2.21-2.42c-1.36-0.43-2.57-0.57-4.14-0.79
		L520.28,831.69z M536.76,831.55c3.57,1.28,6.35,2.85,8.13,4.78c1.43,1.5,1.85,2.64,1.78,3.92c0,1.78-1.07,2.64-2.43,2.57
		c-1.28-0.07-2-1.14-3-2.92c-1.14-2.14-2.43-4.57-5.28-7.49L536.76,831.55z M541.82,826.84c3.85,1.14,6.49,2.14,8.49,3.92
		c1.64,1.28,2.28,2.92,2.14,4.07c0,1.5-0.86,2.57-2.35,2.57c-1.21,0-1.93-1.35-3.07-2.92c-1.14-1.71-2.92-4.21-5.92-6.63
		L541.82,826.84z"/>
	<path class="st3" d="M566.01,835.4l0.71-0.71c1.85,1.36,3.71,2.21,5.85,2.21c2.78,0,7.85-0.78,10.42-2.35
		c1.64-0.93,2.07-1.64,3.28-1.64c2.43,0,6.06,3.21,6.06,4.92c0,1.28-0.43,2.14-2.43,3.07c-2.07,1-4.92,1.64-7.28,3.85
		c-4.78,4.57-10.91,13.41-10.91,24.33c0,7.7,5.71,11.98,13.13,11.98c13.41,0,18.98-10.27,18.98-28.18c0-2.78-0.14-5.56-0.78-8.85
		c-0.43-1.93-1.28-5.64-1.28-7.78c0-2.5,1.57-4.21,3.5-4.14c2.78,0.07,5.21,2.57,5.21,5.28c0,4-0.07,7.56,0.57,11.06
		c1,5.21,4.64,9.92,7.85,12.84c1.71,1.57,3.14,3.35,3.14,6.92c0,2.35-1,4.21-2.92,4.21c-1.93,0-3.71-1.64-5.06-3.71
		c-1.85-2.57-3.99-7.42-5.56-12.27c-0.71-2.21-1.43-2.07-1.43,0.29c0,2.71,0.29,8.92-0.86,15.27c-1.35,7.56-6.63,17.33-21.61,17.33
		c-9.77,0-18.4-5.49-18.4-18.55c0-10.84,5.85-19.76,11.7-27.39c-1.57,0.14-4.42,0.07-6.06-0.36
		C569.01,842.11,567.37,839.68,566.01,835.4z"/>
	<path class="st3" d="M691,857.94c0,0,5.49,4.07,8.99,6.99c-0.21,0.79-1,1.14-2.07,1.14h-27.11v14.77c0,5.99-1.78,10.2-13.05,10.99
		c-0.21-2.92-0.78-5.14-2.43-6.42c-1.71-1.36-3.78-2.35-8.92-3.14v-0.93c0,0,11.13,0.71,13.41,0.71c1.28,0,1.78-0.57,1.78-1.57
		v-14.41h-28.96l-0.57-2.07h29.53v-13.34h-25.04l-0.57-2.07h25.61v-11.84c-8.27,0.64-17.05,1-25.18,0.93l-0.21-1.14
		c16.76-2.07,37.09-7.06,47.44-11.63l8.77,8.49c-0.78,0.64-2.43,0.78-4.92-0.14c-4.78,1-10.49,1.85-16.69,2.57v12.77h12.41
		l4.85-6.06c0,0,5.42,4.14,8.77,6.99c-0.21,0.79-1,1.14-2.07,1.14H670.8v13.34h15.19L691,857.94z"/>
	<path class="st3" d="M732.95,859.23c-1.43,3.85-3.92,10.06-4.57,12.7c-0.57,2.85-0.93,4.35-0.93,5.49c0,2.57,1.57,4.99,1.57,7.13
		c0,2.57-1.28,4.07-3.64,4.07c-1.71,0-3.42-1.28-4.85-3.21c-2.64-3.57-4.35-9.13-4.35-17.12c0-6.56,2-14.05,3.14-18.33
		c0.86-3.42,1.57-6.35,1.64-9.49c0-3.28-1.85-6.35-3.71-8.42l0.71-0.79c2.35,0.57,3.92,1.21,5.64,2.35
		c2.21,1.43,6.06,5.35,6.06,9.27c0,2-1,3.42-2.71,6.71c-2.71,4.71-5.42,11.27-5.42,17.33c0,2.21,0.36,3.64,0.78,4.49
		c0.43,1.07,1.07,1.14,1.78,0.07c1.78-2.57,5.42-9.42,7.28-12.98L732.95,859.23z M739.58,864.65c0.43,1.71,1,3.85,1.85,5.35
		c2.78,4.92,6.13,6.78,15.05,6.78c7.21,0,10.13-1.36,11.63-1.36c3.07,0,6.28,1.36,6.28,4.07c0,4.42-7.2,5.35-15.84,5.35
		c-13.48,0-19.05-5.78-20.12-14.05c-0.29-2.14-0.21-4.28-0.07-5.99L739.58,864.65z M740.15,844.46c5.42-4.92,13.05-6.71,18.4-6.71
		c4.78,0,7.7,0.57,10.13,1.85c2.21,1.21,2.78,2.64,2.78,3.92c0,1.78-0.93,2.64-2.71,3c-2.14,0.36-4.71,0.43-7.63,1.28
		c-3.21,1.07-7.92,3.28-11.77,5.64l-0.93-1.07c3.14-2.64,6.71-5.63,7.92-6.99c0.71-0.86,1.07-1.57-4.14-1.57
		c-2.14,0-5.56,0.21-11.56,1.85L740.15,844.46z"/>
	<path class="st3" d="M818.06,825.91l9.63,6.99c-1.36,1.64-4.78,2.57-9.2,3v2.5c2.21,21.76,13.48,36.24,34.31,44.8l-0.29,0.79
		c-4.21,0.57-6.85,3.21-8.35,7.85c-9.49-5.49-20.33-18.69-23.9-33.31c-5.28,14.41-17.76,26.75-34.24,33.24l-0.43-0.71
		c15.55-8.77,28.89-29.6,30.67-53v-4.35h-16.62l-0.57-2h15.34L818.06,825.91z"/>
	<path class="st3" d="M932.7,872.21c-2.57,5.35-7.85,11.49-15.69,11.49c-5.78,0-9.2-3.21-9.2-10.77c0-8.56,2.71-16.19,2.71-24.04
		c0-4.35-1-6.71-4.49-6.71c-6.06,0-13.62,5.99-19.47,13.55c-0.07,0.86-0.14,1.64-0.21,2.35c-0.43,5.78,0.14,12.98,0.64,17.41
		c0.29,2.85,0.78,4.78,0.78,6.78c0,4.21-2.14,7.56-4.85,7.56c-2.5,0-3.42-1.36-3.71-3.35c-0.36-1.93-0.78-3.78-1.57-5.85
		c-0.64-1.64-1.78-3.85-3.14-5.85l-2.21,3.42c-1.28,2-2.35,3.71-4.14,3.71c-1.57,0.07-3.14-1.43-3.14-3.92
		c0-2.07,0.64-3.64,2.07-5.14c3.28-3.35,9.77-11.2,14.77-18.55c0.07-1.36,0.21-2.71,0.36-4.07c-1.85,1.07-3.71,2.14-4.71,2.78
		c-1.43,1.07-2.14,3.14-3.64,3.14c-3.21,0-7.06-3.71-7.99-6.71c-0.36-1.14-0.14-2.85-0.07-4.07l1-0.29c1.21,1.71,2.35,3.07,4,3.07
		c2.21,0,8.35-2.92,12.13-4.85c0.43-3.92,0.78-7.2,0.78-8.77s-0.21-2-1.5-2.71c-1.07-0.57-2.5-1.21-4.42-1.71v-1.21
		c1.85-0.86,3.64-1.36,5.71-1.36c3.92,0,8.77,4.21,8.77,6.85c0,1.64-0.93,2.71-1.85,4.99c-0.36,0.86-0.71,2-1.14,3.35
		c1.28,1.07,2.57,2.5,2.57,3.14c0,0.29-0.07,0.57-0.14,0.78c4.99-4.14,11.27-7.99,16.83-7.99c6.99,0,9.7,4.07,9.7,11.2
		c0,6.63-2.71,13.91-2.71,21.33c0,3.71,1.28,5.14,4.42,5.14c4.28,0,7.85-1.64,11.98-4.92L932.7,872.21z M875.56,873.14
		c1.5,1.43,3.14,3,3.85,3.71c1,0.86,1.57,0.64,1.64-0.71c0.07-2.5,0-6.92,0.14-11.63L875.56,873.14z"/>
	<path class="st3" d="M942.19,838.82c1.28,1.78,2.85,3.57,4.71,3.57c4.28,0,14.7-2.71,27.25-5.71c7.56-1.85,15.05-3.64,17.26-3.64
		c2.14,0,4.21,0.29,6.06,1.14c1.93,0.86,3.35,2.14,3.35,4.07c0,1.78-1.5,3.21-3.78,3.21c-1.93,0-4.28-0.29-6.28-0.29
		c-3.28,0-7.63,0.29-11.41,3c-2.57,1.78-8.56,7.63-8.56,19.76c0,8.99,4.35,12.13,9.13,13.2c3.92,1.14,6.85,0.93,8.92,0.93
		c2.43,0,5.49,2.28,5.49,4.99c0,3.28-3.57,4.07-6.85,4.07c-5.49,0-10.7-0.64-15.19-3.57c-4.92-3.07-8.13-7.99-8.13-17.05
		c0-10.2,4.71-19.12,12.84-24.61c0.57-0.43,0.5-0.86-0.21-0.64c-8.42,1.93-18.26,5.42-22.54,7.99c-1.5,0.86-3,2.43-4.99,2.43
		c-3.35,0-8.27-4.64-8.49-8.13c-0.07-1.71,0.29-3.35,0.57-4.42L942.19,838.82z"/>
	<path class="st3" d="M1033.29,828.12l0.71-1.07c2.21,0.21,4.21,0.5,5.99,1.35c4.07,2.07,7.42,6.21,7.42,8.7
		c0,2.28-2.21,2.85-5.28,4.92c-5.21,3.64-13.7,10.42-16.69,13.41c-1.85,1.85-2.57,2.78-2.57,3.71c0,1,1.07,2,2.57,3
		c6.85,4.85,14.84,9.49,19.69,15.62c2.5,3.14,3.35,5.49,3.35,7.92c0,2.28-1.21,4.92-4.92,4.92c-1.93,0-3.35-1.21-4.21-2.57
		c-0.86-1.57-1.64-3.21-3.57-6.28c-2.78-4.49-8.35-9.99-16.69-17.12c-1.78-1.43-2.57-3.21-2.57-4.57c0-1.5,0.57-2.78,2.07-4.57
		c3.78-4.64,14.05-15.34,16.83-18.97c1.07-1.36,1.5-2.14,1.5-3.14C1036.93,831.83,1035.36,829.98,1033.29,828.12z"/>
	<path class="st3" d="M1097.71,842.32c3.07-1,5.49-2.07,7.42-3.14c1.43-0.79,2.5-1.64,3.14-1.64c1.78,0,5.28,1,5.28,3.78
		c0,2-1.57,3.14-6.78,4.99c-2.07,0.79-6.63,2.21-11.13,3.28c-0.86,3-1.78,6.35-2.85,9.42c-2.64,8.13-7.13,20.9-9.92,26.04
		c-1.28,2.42-2.28,3.92-4.92,3.92c-2.14,0-3.85-2.35-3.85-5.28s1.78-3.92,3.78-7.28c2.64-4.28,6.06-10.77,9.2-19.83
		c0.57-1.64,1.14-3.64,1.71-5.71c-2,0.29-4.14,0.5-5.78,0.5c-5.42,0-8.7-1.36-10.99-9.13l0.86-0.64c3.71,2.64,5.78,3.5,8.77,3.5
		c3,0.07,6.13-0.36,8.77-0.86c0.71-3.42,1.21-6.49,1.36-8.28c0.07-1.78-0.14-2.35-1.36-3.28c-1.07-0.86-2.5-1.5-4.21-2.07l0.07-1.07
		c1.93-0.78,3.78-1.28,5.85-1.21c4.35,0,8.92,2.28,8.99,4.21c0,1.93-1.5,3.28-3.14,8.7L1097.71,842.32z M1100.57,869
		c0.29,1.78,0.79,4.35,2.21,6.42c2.78,4.07,6.92,5.28,12.7,5.28c6.28,0,8.99-1.36,10.42-1.36c2.78,0,6.13,1.28,6.13,4.35
		c0,1.85-1.78,3.14-4.64,3.78c-2.28,0.57-5.42,1.07-10.2,1.07c-10.91,0-17.19-4.42-17.98-12.41c-0.43-2.28-0.14-5.06,0.14-7.06
		L1100.57,869z M1112.27,861.94c2.07-1.43,5.56-4.14,6.28-4.92c0.36-0.43,0.21-0.78-0.36-1c-1.5-0.5-4.07-0.79-6.13-0.79
		c-2.21,0-5.21,0.36-8.42,0.93l-0.43-1.07c3.71-2.5,9.49-4.64,15.27-4.64c4.71,0,7.7,1.14,9.27,2c2.14,1.36,3,2.92,3,4.42
		c0,2-1.36,3.07-4.42,3.14c-1.28,0.07-2.85,0.14-4.71,0.57c-3.14,0.5-6.21,1.36-8.7,2.28L1112.27,861.94z M1118.9,833.55
		c4,1.14,7.35,2.5,9.49,4.49c1.57,1.43,2.07,2.71,2.07,4.07c0,1.5-1.14,2.57-2.71,2.57c-1.14-0.07-2.07-1.07-3.21-2.78
		c-1.28-1.93-3.07-4.49-6.35-7.42L1118.9,833.55z M1125.25,828.98c4.14,0.86,7.35,2,9.34,3.5c1.78,1.43,2.5,2.78,2.5,4.42
		c0,1.57-0.93,2.5-2.42,2.5c-1.36,0-2.14-1.14-3.5-2.85c-1.28-1.64-2.78-3.71-6.49-6.56L1125.25,828.98z"/>
	<path class="st3" d="M1164.35,832.33c2.21-1.57,4.99-3,7.85-3c4.07,0,7.21,1.28,7.63,3c1,3.78,1.85,6.28,3,8.7
		c6.92-3,9.13-5.99,10.7-6.35c1.78-0.21,4.07,0,5.28,1.28c1.07,1.21,0.93,3.21-0.43,4.49c-2.07,2-7.06,4.64-12.34,6.71
		c3.64,5.78,8.56,10.34,12.27,13.91c1.71,1.64,2.28,2.71,2.35,4.35c0,2.5-1.28,6.49-3.92,6.49c-2.14,0-3.57-1.36-5.92-2.92
		c-3.64-2.35-9.06-5.35-16.98-5.35c-7.42,0-12.41,3.99-12.41,9.34c0,4.49,4.85,7.85,14.84,7.85c4.99,0,7.99-0.79,10.77-0.79
		c3.14,0,5.99,1.14,5.99,4.14c0,2.85-3.71,4.78-14.27,4.78c-13.48,0-23.18-5.06-23.18-14.2c0-8.06,8.49-14.34,20.04-14.34
		c6.21,0,11.27,1.07,14.05,1.71c0.86,0.14,1,0,0.36-0.71c-2.64-2.92-6.42-7.7-9.56-12.27c-4.49,1.36-10.13,2.57-14.62,2.64
		c-9.13,0.14-11.49-3-14.7-10.34l1-0.78c4.64,3.85,7.49,4.78,12.41,4.71c3.21,0,7.99-0.93,12.27-2.21c-1.5-2.57-3-5.28-4.14-7.06
		c-1.21-1.86-3.99-2.43-8.06-2.71L1164.35,832.33z"/>
	<path class="st3" d="M1225.77,846.74c0-4.14-1.71-7.06-5.49-10.13l0.36-0.79c1.86-0.07,4.64,0.07,6.71,0.93
		c3.64,1.5,7.92,5.56,7.92,8.85c0,3.5-3.78,7.42-3.78,16.41c0,6.21,3.28,9.99,5.56,10.99c1.07,0.43,2.07,0.36,2.85-0.64
		c2.35-3.35,4.92-7.99,7.42-12.7l1.5,0.64c-1.64,5.49-3.21,11.56-3.28,14.05c-0.14,4.35,1,4.21,1,6.42c0,3.28-3.35,4.92-7.85,3.07
		c-5.78-2.43-12.34-8.85-13.12-20.33C1225.06,857.87,1225.77,851.59,1225.77,846.74z M1259.16,843.68l0.36-1.21
		c7.49,0.43,11.77,2.92,15.98,6.85c4.28,4,6.28,9.99,6.28,15.48c0,4.49-1.5,6.92-4.99,6.92c-1.5,0-3.07-0.79-3.64-2.71
		c-0.79-3.07-0.57-6.99-2.71-12.98C1268.64,850.81,1264.79,846.17,1259.16,843.68z"/>
</g>
<g>
	<g class="st1">
		<path class="st4" d="M236.57,129.11c1.21,11.96,5.25,17.46,19.81,17.46c11.56,0,18.35-3.8,20.61-3.8c3.48,0,9.7,2.1,9.7,6.39
			c0,3.15-0.97,4.29-5.09,5.82c-4.77,1.7-13.34,2.59-21.67,2.59c-25.22,0-29.99-12.13-24.66-28.46L236.57,129.11L236.57,129.11z
			 M245.7,116.02c2.67-2.1,6.31-5.5,8.33-7.36c0.65-0.65,0.57-0.89-0.32-0.97c-7.84-0.57-15.28-1.78-17.06-11.32l0.81-0.49
			c4.04,2.83,6.87,3.64,13.5,3.64c11.24,0,13.42-2.42,17.7-2.42s11.56,3.07,11.56,6.79c0,2.67-1.54,4.2-4.93,4.85
			c-2.75,0.48-6.14,1.05-8.57,1.54c-5.25,1.13-12.37,3.4-20.37,6.79L245.7,116.02z"/>
		<path class="st4" d="M379.42,138.82c-2.59,6.55-8.41,14.55-18.43,14.55c-6.95,0-10.83-3.72-10.83-13.02
			c0-10.11,2.99-18.35,2.99-27.32c0-4.93-1.05-7.52-4.93-7.52c-6.71,0-14.71,6.31-20.61,14.39c-0.32,2.1-0.57,3.88-0.65,5.09
			c-0.32,5.01,0.16,12.04,0.73,17.14c0.4,3.88,1.13,6.31,1.13,8.81c0,5.82-3.07,9.54-6.55,9.54c-3.56,0-4.69-1.78-5.09-4.29
			c-0.4-2.34-0.89-4.77-1.94-7.44c-0.65-1.54-1.29-2.99-2.18-4.53l-1.21,1.94c-1.7,2.75-3.15,5.17-5.58,5.25
			c-2.1,0.08-4.28-1.86-4.28-5.42c0-2.75,0.89-4.93,2.67-6.71c3.96-3.96,10.67-11.96,16.17-20.05c0.08-1.13,0.24-2.26,0.32-3.48
			c-1.78,1.05-3.4,2.1-4.12,2.67c-1.62,1.21-2.43,3.88-4.37,3.88c-4.2,0-9.14-4.85-10.27-8.57c-0.4-1.37-0.08-3.64,0.08-5.17
			l0.89-0.32c1.46,1.78,2.83,3.4,4.93,3.4c2.67,0,9.14-3.07,13.74-5.42c0.4-4.04,0.73-7.52,0.73-9.05c0-1.7-0.24-2.26-1.7-3.23
			c-1.21-0.81-2.91-1.62-5.34-2.34v-1.21c2.51-1.21,4.69-1.94,7.28-1.94c5.01,0,11.24,5.42,11.24,8.81c0,1.94-1.13,3.39-2.18,5.66
			c-0.32,0.73-0.65,1.7-1.05,2.75c1.46,1.21,2.75,2.75,2.83,3.48c5.25-4.28,11.8-8.16,17.79-8.16c9.13,0,11.96,5.25,11.96,13.66
			c0,8.17-2.75,14.63-2.75,23.12c0,4.2,1.21,5.66,4.61,5.66c4.61,0,8.65-1.78,13.42-5.17L379.42,138.82z M319.68,143.34
			c0.08-2.26,0.16-5.98,0.32-10.27c-1.86,2.91-3.64,5.82-5.58,8.97c1.21,0.89,2.51,1.78,3.07,2.26
			C318.79,145.36,319.6,145.04,319.68,143.34z"/>
		<path class="st4" d="M405.38,90.96c2.43-1.21,4.93-1.86,7.44-1.86c5.98,0,11.24,2.83,11.24,5.25c0,2.43-1.78,3.72-3.96,10.51
			c3.07-0.97,5.42-2.1,7.44-3.23c1.86-1.05,3.23-2.18,4.04-2.18c2.34,0,7.19,1.29,7.19,5.25c0,2.67-2.18,4.29-9.54,6.79
			c-2.59,0.89-7.19,2.18-11.88,3.23c-0.89,3.15-1.86,6.63-2.91,9.94c-2.59,8.25-7.6,23.44-10.59,29.43
			c-1.62,3.23-2.99,5.42-6.63,5.42c-3.07,0-5.42-3.31-5.42-7.36c0-4.12,2.67-5.5,5.42-10.19c2.43-4.12,6.06-11.08,9.38-20.78
			c0.49-1.37,0.97-3.07,1.46-4.85c-1.94,0.24-3.8,0.4-5.25,0.4c-6.87,0-10.51-1.37-13.1-11.64l0.81-0.57
			c4.53,3.07,6.79,3.64,9.94,3.72c3.23,0.08,6.71-0.32,9.62-0.89c0.73-3.64,1.21-6.95,1.29-8.73c0.08-2.18-0.08-2.75-1.37-4.04
			c-1.05-1.05-2.51-1.94-4.61-2.75v-0.87H405.38z M422.51,135.42c0.24,1.86,0.81,4.77,2.43,7.03c3.31,4.69,7.92,5.9,14.23,5.9
			c6.55,0,9.94-1.54,11.16-1.54c3.88,0,8.49,1.7,8.49,6.06c0,2.34-1.94,4.04-5.66,4.93c-2.59,0.65-6.14,1.21-11.96,1.21
			c-13.9,0-20.86-6.14-20.86-16.17c0-2.34,0.65-5.5,1.21-7.44h0.96V135.42z M434.96,128.55c2.18-1.46,5.66-4.53,6.39-5.42
			c0.32-0.4,0.24-0.81-0.4-1.05c-1.54-0.57-4.53-0.89-6.87-0.89c-2.02,0-5.17,0.32-8.89,0.89l-0.4-0.81
			c4.37-3.48,11.48-6.47,18.67-6.47c5.25,0,8.57,1.37,10.19,2.43c2.75,1.78,3.72,3.88,3.72,5.82c0,2.59-1.62,4.28-5.98,4.28
			c-1.37,0-3.4,0-5.5,0.24c-4.12,0.48-7.44,0.89-10.35,1.78L434.96,128.55z M442.97,95.73c4.69,1.05,8.89,2.42,11.56,4.93
			c1.62,1.46,2.1,2.91,2.02,4.45c0,1.86-1.46,3.31-3.48,3.31c-1.37-0.08-2.51-0.89-3.64-2.75c-1.37-2.26-3.23-5.42-7.11-9.05
			L442.97,95.73z M450.32,90.47c4.85,0.65,8.81,1.86,11.24,3.56c2.02,1.46,2.75,3.07,2.75,5.01s-1.13,3.23-3.07,3.23
			c-1.7,0-2.67-0.97-4.12-2.99c-1.29-1.78-2.83-4.28-7.36-7.92L450.32,90.47z"/>
		<path class="st4" d="M497.95,122.16c-1.46,4.93-2.75,10.43-3.56,14.47c-0.32,1.78-0.48,2.91-0.48,5.5c0,3.15,1.54,6.71,1.54,9.86
			c0,3.23-1.78,5.17-5.34,5.17c-2.59,0-5.09-2.02-7.19-5.74c-2.1-3.8-4.2-9.86-4.2-18.11c0-11.8,4.45-20.7,4.45-30.8
			c0-4.2-2.26-8-3.96-10.02l0.57-0.81c3.15,0.57,5.25,1.37,7.52,2.75c2.91,1.78,7.76,6.63,7.76,11.56c0,2.51-1.05,4.28-2.99,7.44
			c-3.48,5.74-6.06,11.4-6.06,17.46c0,1.46,0.24,3.56,0.89,4.77c0.57,1.05,1.46,1.13,2.18,0.16c2.43-3.4,5.25-9.62,7.19-14.31
			L497.95,122.16z M514.11,95.4c2.83-2.02,5.98-3.72,8.49-3.72c4.28,0,11.07,2.99,11.07,6.31c0,1.46-0.89,2.67-1.13,5.42
			c-0.08,1.13-0.16,2.42-0.16,3.8c0.89-0.32,1.62-0.65,2.26-0.97c2.51-1.21,3.23-1.54,3.64-1.54c3.8,0,7.36,2.18,7.36,5.25
			c0,1.86-0.89,3.48-3.96,4.93c-1.86,0.89-5.09,1.94-8.89,2.83c0.4,8.65,1.13,19.4-1.05,25.87c-3.72,11.24-13.18,15.6-25.55,18.27
			l-0.49-1.05c8.89-4.85,14.39-11,16.49-22.23c1.05-5.74,0.97-12.21,0.73-19.08c-2.34,0.32-4.61,0.49-6.63,0.49
			c-5.17,0-11.96-1.13-15.52-12.21l0.65-0.57c4.53,2.67,8.25,3.88,12.21,3.88c2.43,0,5.58-0.4,8.89-1.13
			c-0.24-2.75-0.48-5.42-0.73-7.52c-0.24-1.86-0.73-2.75-1.62-3.4c-1.78-1.29-3.48-1.86-5.9-2.67L514.11,95.4z"/>
		<path class="st4" d="M588.17,155.79c20.7-5.5,27.49-17.3,27.49-30.96c0-15.12-8.97-24.82-21.99-24.82c-1.13,0-2.26,0.08-3.4,0.24
			c2.75,2.51,6.31,6.95,6.31,11.16c0,4.29-0.73,10.02-2.75,15.12c-3.8,10.51-12.61,24.74-23.28,24.74
			c-7.03,0-13.18-10.59-13.18-21.42c0-7.19,3.56-17.46,12.45-24.74c6.47-5.5,14.55-8.57,25.06-8.57c19.56,0,32.98,13.9,32.98,30.88
			c0,16.17-11.88,28.94-39.37,29.75L588.17,155.79z M586.39,101.23c-5.01,1.54-10.02,4.61-13.74,8.81
			c-4.45,5.17-6.71,10.11-6.71,16.49c0,5.74,2.26,11.72,5.74,11.72c4.04,0,11.08-10.35,13.26-14.79c2.42-5.09,3.96-11.08,3.96-15.6
			C588.9,105.43,587.76,102.84,586.39,101.23z"/>
		<path class="st4" d="M650.02,129.11c1.21,11.96,5.25,17.46,19.81,17.46c11.56,0,18.35-3.8,20.61-3.8c3.48,0,9.7,2.1,9.7,6.39
			c0,3.15-0.97,4.29-5.09,5.82c-4.77,1.7-13.34,2.59-21.67,2.59c-25.22,0-29.99-12.13-24.66-28.46L650.02,129.11L650.02,129.11z
			 M659.15,116.02c2.67-2.1,6.31-5.5,8.33-7.36c0.65-0.65,0.57-0.89-0.32-0.97c-7.84-0.57-15.28-1.78-17.06-11.32l0.81-0.49
			c4.04,2.83,6.87,3.64,13.5,3.64c11.24,0,13.42-2.42,17.7-2.42c4.29,0,11.56,3.07,11.56,6.79c0,2.67-1.54,4.2-4.93,4.85
			c-2.75,0.48-6.14,1.05-8.57,1.54c-5.25,1.13-12.37,3.4-20.37,6.79L659.15,116.02z"/>
		<path class="st4" d="M731.43,90.96c2.42-1.21,4.93-1.86,7.44-1.86c5.98,0,11.24,2.83,11.24,5.25c0,2.43-1.78,3.72-3.96,10.51
			c3.07-0.97,5.42-2.1,7.44-3.23c1.86-1.05,3.23-2.18,4.04-2.18c2.34,0,7.2,1.29,7.2,5.25c0,2.67-2.18,4.29-9.54,6.79
			c-2.59,0.89-7.19,2.18-11.88,3.23c-0.89,3.15-1.86,6.63-2.91,9.94c-2.59,8.25-7.6,23.44-10.59,29.43
			c-1.62,3.23-2.99,5.42-6.63,5.42c-3.07,0-5.42-3.31-5.42-7.36c0-4.12,2.67-5.5,5.42-10.19c2.42-4.12,6.06-11.08,9.38-20.78
			c0.48-1.37,0.97-3.07,1.46-4.85c-1.94,0.24-3.8,0.4-5.25,0.4c-6.87,0-10.51-1.37-13.1-11.64l0.81-0.57
			c4.53,3.07,6.79,3.64,9.94,3.72c3.23,0.08,6.71-0.32,9.62-0.89c0.73-3.64,1.21-6.95,1.29-8.73c0.08-2.18-0.08-2.75-1.38-4.04
			c-1.05-1.05-2.51-1.94-4.61-2.75v-0.87H731.43z M748.57,135.42c0.24,1.86,0.81,4.77,2.42,7.03c3.31,4.69,7.92,5.9,14.23,5.9
			c6.55,0,9.94-1.54,11.16-1.54c3.88,0,8.49,1.7,8.49,6.06c0,2.34-1.94,4.04-5.66,4.93c-2.59,0.65-6.14,1.21-11.96,1.21
			c-13.9,0-20.86-6.14-20.86-16.17c0-2.34,0.65-5.5,1.21-7.44h0.97V135.42z M761.02,128.55c2.18-1.46,5.66-4.53,6.39-5.42
			c0.32-0.4,0.24-0.81-0.4-1.05c-1.54-0.57-4.53-0.89-6.87-0.89c-2.02,0-5.17,0.32-8.89,0.89l-0.4-0.81
			c4.37-3.48,11.48-6.47,18.67-6.47c5.25,0,8.57,1.37,10.19,2.43c2.75,1.78,3.72,3.88,3.72,5.82c0,2.59-1.62,4.28-5.98,4.28
			c-1.37,0-3.39,0-5.5,0.24c-4.12,0.48-7.44,0.89-10.35,1.78L761.02,128.55z M769.02,95.73c4.69,1.05,8.89,2.42,11.56,4.93
			c1.62,1.46,2.1,2.91,2.02,4.45c0,1.86-1.46,3.31-3.48,3.31c-1.37-0.08-2.51-0.89-3.64-2.75c-1.38-2.26-3.23-5.42-7.11-9.05
			L769.02,95.73z M776.38,90.47c4.85,0.65,8.81,1.86,11.24,3.56c2.02,1.46,2.75,3.07,2.75,5.01s-1.13,3.23-3.07,3.23
			c-1.7,0-2.67-0.97-4.12-2.99c-1.29-1.78-2.83-4.28-7.36-7.92L776.38,90.47z"/>
		<path class="st4" d="M814.46,90.15c2.51-1.21,4.61-2.02,7.2-2.02c5.42,0,11.4,5.25,11.4,8.65c0,1.54-1.21,3.31-2.1,5.66
			c-0.24,0.57-0.4,1.21-0.65,2.02c0.32,0.08,0.65,0.24,1.05,0.4c1.86,0.89,3.56,2.75,3.56,3.72c0.08,1.21-0.57,2.18-1.86,3.48
			c-1.21,1.21-2.75,2.75-4.37,4.45c8.25-4.45,15.44-6.39,21.67-6.39c11.32,0,22.8,7.36,22.8,20.37c0,11.16-7.28,23.69-35.73,27.81
			l-0.49-1.21c21.18-8.81,24.01-21.91,24.01-29.43c0-9.46-5.01-13.82-13.1-13.82c-5.98,0-14.79,3.72-21.18,9.46l-0.08,0.73
			c-0.32,5.17,0.32,13.02,0.81,18.11c0.4,3.88,0.81,5.5,0.81,8c0,5.82-2.99,10.35-6.47,10.35c-3.56,0-4.69-1.78-5.09-4.29
			c-0.4-2.34-0.89-4.77-1.94-7.44c-0.57-1.46-1.29-2.91-2.18-4.37l-1.13,1.78c-1.7,2.75-3.15,5.17-5.58,5.25
			c-2.1,0.08-4.29-1.86-4.29-5.42c0-2.75,0.89-4.93,2.67-6.71c3.96-3.96,10.67-11.88,16.17-19.97c0.08-0.97,0.16-2.02,0.24-3.07
			c-1.78,1.05-3.48,2.1-4.29,2.75c-1.62,1.21-2.18,3.23-4.12,3.23c-4.2,0-8.57-4.69-9.7-8.41c-0.4-1.37-0.16-3.07,0-4.61l0.89-0.32
			c1.54,1.7,2.59,2.83,4.61,2.83c2.34,0,8.33-2.18,13.26-4.28c0.4-4.69,0.65-8.81,0.65-10.59c0-1.7-0.57-2.34-2.02-3.23
			c-1.13-0.73-2.99-1.54-5.42-2.26v-1.21H814.46z M819.15,143.34c0.08-2.18,0.24-5.98,0.4-10.19c-1.86,2.91-3.72,5.82-5.66,8.97
			c1.29,0.89,2.51,1.78,3.07,2.18C818.26,145.36,819.07,145.04,819.15,143.34z"/>
		<path class="st4" d="M890.46,88.37l0.24-0.57c1.94-0.16,5.01,0.32,6.95,1.05c4.61,1.78,8.81,6.31,8.81,9.54
			c0,2.42-0.81,4.2-1.54,6.06c-0.97,2.59-1.54,4.93-1.54,5.82c0,1.38,0.57,1.46,1.21,0.24c4.45-7.92,9.13-12.13,14.63-12.13
			c8.97,0,16.01,7.52,16.01,26.6c0,19.24-10.59,33.79-36.7,37.19l-0.48-1.37c22.15-8.73,24.98-24.9,24.98-37.67
			c0-14.88-2.67-19.97-7.03-19.97c-2.67,0-5.98,2.59-8.73,8.17c-2.51,4.93-3.48,9.86-3.48,14.55c0,4.12,0.65,7.11,0.65,11.32
			c0,2.75-2.18,4.61-5.01,4.61c-2.99,0-4.77-1.54-5.98-4.28c-1.13-2.67-1.54-5.74-1.54-9.46c0-7.36,3.4-19.81,3.4-25.63
			C895.31,96.46,893.85,92.41,890.46,88.37z"/>
		<path class="st4" d="M985.94,109.47c1.78-0.16,3.48-0.32,4.85-0.32c6.71,0,11.32,4.2,11.32,15.6c0,10.59-2.26,22.39-8.81,29.18
			c-2.67,2.75-6.79,4.61-10.91,4.61c-3.4,0-4.93-1.37-5.9-6.22c-0.32-1.78-0.81-2.43-4.45-6.79l0.65-0.97
			c3.96,1.78,6.87,2.83,9.14,2.83c2.67,0,3.72-0.81,4.93-2.1c4.45-5.01,6.39-17.3,6.39-24.82c0-3.56-1.37-5.66-4.77-5.66
			c-1.29,0-2.99,0.4-5.01,0.97c-2.18,5.25-4.61,10.99-6.23,14.79c-3.31,7.68-8.89,19.4-11.56,24.25c-2.02,3.64-3.56,4.53-6.23,4.53
			c-2.42,0-4.77-2.34-4.77-6.06c0-2.91,0.4-3.96,2.1-6.06c3.72-4.53,8.57-11.88,12.21-19.72c1.21-2.51,2.26-5.01,3.23-7.44
			c-1.62,0.73-3.15,1.37-4.45,2.02c-2.26,1.05-3.96,1.94-6.31,1.94c-2.51,0-6.63-4.69-7.2-8.41c-0.4-2.67,0.49-4.37,1.29-6.06
			l0.89-0.24c1.78,2.83,2.99,4.12,4.93,4.12c2.75,0,7.92-1.13,14.15-2.26c1.94-5.58,2.91-9.86,2.91-11.64c0-1.13-0.4-2.02-1.21-2.59
			c-1.37-0.97-3.56-1.7-5.9-2.26v-0.97c1.86-1.13,4.37-2.59,8.41-2.59c3.96,0,12.21,3.48,12.21,6.71c0,2.51-2.67,3.88-3.96,6.95
			L985.94,109.47z M1004.53,108.5c4.61-0.08,10.83,1.37,15.28,5.34c5.33,4.69,7.36,10.59,7.36,16.9c0,5.66-2.18,9.54-6.31,9.62
			c-3.07,0.08-3.4-2.75-6.22-4.04c-1.78-0.81-5.58-1.78-8.41-2.02l-0.24-1.21c3.72-1.05,5.17-1.54,6.79-2.26
			c1.86-0.81,2.83-1.78,2.83-4.04c0-2.43-0.57-6.39-2.59-9.86c-2.02-3.48-4.85-5.98-8.73-7.19L1004.53,108.5z M1008.17,95.65
			c4.69,0.97,8.89,2.26,11.64,4.77c1.62,1.46,2.1,2.83,2.1,4.37c0,1.86-1.46,3.4-3.48,3.4c-1.38,0-2.51-0.81-3.64-2.67
			c-1.46-2.26-3.31-5.33-7.28-8.89L1008.17,95.65z M1015.69,89.99c4.85,0.65,8.81,1.86,11.24,3.56c2.02,1.46,2.75,3.07,2.75,5.01
			s-1.13,3.23-3.07,3.23c-1.7,0-2.67-0.97-4.12-2.99c-1.29-1.78-2.83-4.28-7.36-7.92L1015.69,89.99z"/>
		<path class="st4" d="M1077.37,109.96c3.23,0.4,5.66,1.29,7.28,2.91c0.73,0.73,1.05,1.62,1.05,2.59
			c12.61,1.62,20.7,10.43,20.7,20.53c0,17.46-16.09,24.25-40.02,24.17l-0.24-1.46c21.91-4.69,29.51-15.36,29.51-25.46
			c0-7.19-4.04-12.53-10.67-14.23c-2.34,6.71-7.52,14.63-13.26,21.1c0.89,1.94,1.62,3.72,1.62,5.82c0,2.99-1.86,4.28-4.61,4.28
			c-1.86,0-3.48-0.97-4.69-2.59c-5.82,4.69-12.13,7.2-17.38,7.2c-4.28,0-7.19-2.67-7.19-7.84c0-10.51,8.97-20.61,20.78-26.52
			c0.32-3.07,0.81-6.22,1.29-9.22c-2.59,0.24-5.25,0.4-7.68,0.4c-7.36,0-10.02-4.69-11.08-11.24l0.73-0.57
			c3.96,2.26,7.36,3.8,12.13,3.8c2.43,0,4.85-0.16,7.11-0.48c0.4-2.75,0.65-5.17,0.65-6.87c0-1.54-0.32-2.02-1.7-2.59
			c-1.13-0.48-2.91-0.97-4.53-1.37l-0.08-0.81c1.78-1.21,4.61-2.67,6.55-2.67c4.77,0,11.32,2.67,11.32,5.09
			c0,2.34-2.43,3.72-3.15,6.79l-0.16,0.73c7.92-2.18,12.85-5.25,13.66-5.25c5.09,0,7.76,1.46,7.76,4.37c0,2.26-1.37,3.64-3.72,4.53
			c-4.04,1.54-11.4,3.48-19.73,4.93c-0.48,2.43-0.97,4.85-1.29,7.2c3.64-1.13,7.44-1.78,11.24-1.94c-0.08-1.7-0.97-3.15-2.83-4.53
			L1077.37,109.96z M1060.88,140.43c-0.81-3.48-1.21-7.52-1.21-11.56c0-0.97,0-2.02,0.08-3.07c-7.28,5.17-11.72,12.69-11.72,17.54
			c0,1.21,0.48,1.78,1.62,1.78C1052.64,145.12,1056.92,143.1,1060.88,140.43z M1068.8,133.56c4.29-4.61,8.49-10.67,10.11-15.12
			c-3.4,0.16-6.95,1.05-11.08,2.91c-0.16,1.46-0.24,2.91-0.24,4.29C1067.59,128.79,1068.08,131.38,1068.8,133.56z"/>
		<path class="st4" d="M1132.59,93.22c1.54,2.75,3.96,5.09,6.06,5.09c2.83,0,10.43-1.78,15.12-3.31c3.88-1.29,3.72-2.67,5.74-2.67
			c4.53,0,11.96,5.98,11.96,10.02c0,2.67-3.4,3.64-5.98,5.17c-5.98,3.56-15.52,11.16-18.27,13.9c-1.05,1.05-0.49,1.62,0.4,1.38
			c2.18-0.57,6.63-2.59,13.34-2.59c11.16,0,20.29,6.71,20.29,19.32c0,11.24-9.94,20.05-27.33,20.05c-9.62,0-17.06-4.37-17.06-11.96
			c0-5.9,5.25-9.46,11.64-9.46c5.34,0,12.29,2.75,14.55,10.51c5.82-2.83,8.08-7.68,8.08-12.94c0-7.19-4.45-11.8-13.42-11.8
			c-10.75,0-18.27,8.49-25.14,17.46c-2.34,3.07-3.31,3.88-5.66,3.8c-2.18-0.08-4.28-2.67-4.04-6.22c0.16-2.59,1.7-4.77,4.85-7.68
			c5.42-4.93,23.61-22.07,28.29-27.89c1.7-2.1,0.65-2.83-0.81-2.59c-3.23,0.57-7.11,3.4-10.02,5.42c-1.54,1.05-2.99,2.34-4.93,2.34
			c-5.58,0-9.62-6.55-9.62-9.7c0-2.1,0.32-3.4,0.97-5.58L1132.59,93.22z M1154.18,150.94c-0.97-4.93-3.96-8.57-8.25-8.57
			c-3.15,0-5.01,1.54-5.01,3.96c0,3.15,3.8,4.77,9.13,4.77C1151.51,151.1,1152.89,151.02,1154.18,150.94z"/>
		<path class="st4" d="M1229.2,108.66c1.78-0.16,3.48-0.32,4.85-0.32c6.71,0,11.32,4.2,11.32,15.6c0,10.59-2.26,22.39-8.81,29.18
			c-2.67,2.75-6.79,4.61-10.91,4.61c-3.4,0-4.93-1.37-5.9-6.22c-0.32-1.78-0.81-2.43-4.45-6.79l0.65-0.97
			c3.96,1.78,6.87,2.83,9.14,2.83c2.67,0,3.72-0.81,4.93-2.1c4.45-5.01,6.39-17.3,6.39-24.82c0-3.56-1.37-5.66-4.77-5.66
			c-1.29,0-2.99,0.4-5.01,0.97c-2.18,5.25-4.61,10.99-6.22,14.79c-3.31,7.68-8.89,19.4-11.56,24.25c-2.02,3.64-3.56,4.53-6.22,4.53
			c-2.42,0-4.77-2.34-4.77-6.06c0-2.91,0.4-3.96,2.1-6.06c3.72-4.53,8.57-11.88,12.21-19.73c1.21-2.51,2.26-5.01,3.23-7.44
			c-1.62,0.73-3.15,1.37-4.45,2.02c-2.26,1.05-3.96,1.94-6.31,1.94c-2.51,0-6.63-4.69-7.2-8.41c-0.4-2.67,0.49-4.37,1.29-6.06
			l0.89-0.24c1.78,2.83,2.99,4.12,4.93,4.12c2.75,0,7.92-1.13,14.15-2.26c1.94-5.58,2.91-9.86,2.91-11.64c0-1.13-0.4-2.02-1.21-2.59
			c-1.37-0.97-3.56-1.7-5.9-2.26V92.9c1.86-1.13,4.37-2.59,8.41-2.59c3.96,0,12.21,3.48,12.21,6.71c0,2.51-2.67,3.88-3.96,6.95
			L1229.2,108.66z M1247.8,107.69c4.61-0.08,10.83,1.38,15.28,5.34c5.33,4.69,7.36,10.59,7.36,16.9c0,5.66-2.18,9.54-6.31,9.62
			c-3.07,0.08-3.4-2.75-6.22-4.04c-1.78-0.81-5.58-1.78-8.41-2.02l-0.24-1.21c3.72-1.05,5.17-1.54,6.79-2.26
			c1.86-0.81,2.83-1.78,2.83-4.04c0-2.42-0.57-6.39-2.59-9.86c-2.02-3.48-4.85-5.98-8.73-7.2L1247.8,107.69z"/>
		<path class="st4" d="M1294.21,92.49l0.16-0.97c8.33-1.21,13.74-0.24,17.22,1.7c5.25,2.75,8.57,6.79,8.57,12.53
			c0,2.34-1.21,3.96-4.37,3.96c-3.07,0-5.66-1.13-9.3-1.62c-3.48-0.48-8.57-0.24-10.59,0c-1.54,0.16-1.86,0.89-1.86,1.46
			c0,1.46,1.37,3.31,1.62,5.98c0.24,2.51,0.16,3.96,0,6.47c-0.16,2.91-0.97,5.74-0.81,7.36c0.08,0.89,0.4,1.05,1.05,0.73
			c3.96-1.78,14.23-9.7,26.6-9.7c13.42,0,20.21,9.38,20.21,18.35c0,16.33-24.25,23.04-45.43,20.86l-0.16-1.54
			c6.63-1.13,13.1-2.51,19.4-5.5c10.59-5.01,14.55-10.91,14.55-17.87c0-4.93-2.83-10.59-9.78-10.59c-9.05,0-18.75,11.32-22.47,16.41
			c-2.51,3.48-3.56,7.19-6.87,7.19c-1.86,0-3.72-1.13-5.5-3.15c-1.7-1.86-2.42-3.56-2.42-5.82c0-1.7,0.57-3.48,1.21-7.19
			c0.57-3.23,1.78-11.72,2.02-15.44c0.08-1.78,0.16-2.75,0.16-5.01c0-2.34,0.97-5.5,3.96-5.82c3.15-0.4,10.59-2.34,13.02-3.96
			c0.81-0.57,0.89-1.21,0.4-2.02C1302.7,95.65,1299.14,94.27,1294.21,92.49z"/>
		<path class="st4" d="M1363.09,129.11c1.21,11.96,5.25,17.46,19.81,17.46c11.56,0,18.35-3.8,20.61-3.8c3.48,0,9.7,2.1,9.7,6.39
			c0,3.15-0.97,4.29-5.09,5.82c-4.77,1.7-13.34,2.59-21.67,2.59c-25.22,0-29.99-12.13-24.66-28.46L1363.09,129.11L1363.09,129.11z
			 M1372.23,116.02c2.67-2.1,6.31-5.5,8.33-7.36c0.65-0.65,0.57-0.89-0.32-0.97c-7.84-0.57-15.28-1.78-17.06-11.32l0.81-0.49
			c4.04,2.83,6.87,3.64,13.5,3.64c11.24,0,13.42-2.42,17.7-2.42c4.29,0,11.56,3.07,11.56,6.79c0,2.67-1.54,4.2-4.93,4.85
			c-2.75,0.48-6.14,1.05-8.57,1.54c-5.25,1.13-12.37,3.4-20.37,6.79L1372.23,116.02z"/>
		<path class="st4" d="M1442.32,90.55c1.05,2.26,2.83,5.82,4.61,5.9c2.26,0.16,8.17-0.97,15.44-3.4c3.23-1.05,3.72-2.91,5.98-2.91
			c4.04,0,11.96,6.55,11.96,10.43c0,2.26-2.1,3.07-3.4,3.56c-5.09,1.94-21.5,13.74-28.29,19.56c-0.4,0.4-0.24,0.65,0.24,0.57
			c3.88-0.81,12.69-3.72,18.19-5.5c5.82-1.86,9.86-3.72,14.23-3.72c4.12,0,11.32,2.02,11.32,6.47c0,2.42-1.78,4.04-5.66,4.04
			c-2.18,0-5.66-0.16-8.65-0.16c-3.64,0-12.37,0.4-17.7,4.2c-2.91,2.1-5.34,5.09-5.34,10.43c0,4.61,3.4,6.87,8.81,8.08
			c4.45,0.97,8.97,0.4,11.64,0.81c2.59,0.4,5.33,3.48,5.33,6.39c0,4.28-2.99,5.5-8.17,5.5c-4.77,0-9.46-0.73-11.8-1.54
			c-7.36-2.51-12.13-7.92-12.13-15.36c0-6.95,3.96-11.56,7.28-14.79c0.97-0.97,0.81-1.46-0.48-1.05c-4.04,1.13-9.3,3.72-12.29,5.74
			c-5.01,3.31-6.22,6.22-9.62,6.22c-2.99,0-6.22-4.37-6.22-7.28c0-2.26,0.73-3.56,2.99-4.45c1.86-0.73,5.58-1.78,7.6-2.91
			c3.88-2.1,9.62-7.03,14.71-11.96c3.23-3.07,8.65-8.57,12.21-13.74c1.29-1.78,0.73-2.34-1.37-1.54c-2.34,0.89-6.71,4.2-8.89,5.98
			c-1.78,1.46-3.8,3.07-6.47,3.07c-2.83,0-9.46-5.42-9.14-10.35c0.08-1.7,1.29-4.69,2.26-6.31h0.82V90.55z"/>
	</g>
	<g class="st1">
		<path class="st4" d="M159.76,241.98c2.43-1.21,4.93-1.86,7.44-1.86c5.98,0,11.24,2.83,11.24,5.25s-1.78,3.72-3.96,10.51
			c3.07-0.97,5.42-2.1,7.44-3.23c1.86-1.05,3.23-2.18,4.04-2.18c2.34,0,7.19,1.29,7.19,5.25c0,2.67-2.18,4.28-9.54,6.79
			c-2.59,0.89-7.19,2.18-11.88,3.23c-0.89,3.15-1.86,6.63-2.91,9.94c-2.59,8.25-7.6,23.44-10.59,29.43
			c-1.62,3.23-2.99,5.42-6.63,5.42c-3.07,0-5.42-3.31-5.42-7.36c0-4.12,2.67-5.5,5.42-10.19c2.43-4.12,6.06-11.08,9.38-20.78
			c0.49-1.37,0.97-3.07,1.46-4.85c-1.94,0.24-3.8,0.4-5.25,0.4c-6.87,0-10.51-1.37-13.1-11.64l0.81-0.57
			c4.53,3.07,6.79,3.64,9.94,3.72c3.23,0.08,6.71-0.32,9.62-0.89c0.73-3.64,1.21-6.95,1.29-8.73c0.08-2.18-0.08-2.75-1.37-4.04
			c-1.05-1.05-2.51-1.94-4.61-2.75L159.76,241.98L159.76,241.98z M176.9,286.44c0.24,1.86,0.81,4.77,2.43,7.03
			c3.31,4.69,7.92,5.9,14.23,5.9c6.55,0,9.94-1.54,11.16-1.54c3.88,0,8.49,1.7,8.49,6.06c0,2.34-1.94,4.04-5.66,4.93
			c-2.59,0.65-6.14,1.21-11.96,1.21c-13.9,0-20.86-6.14-20.86-16.17c0-2.34,0.65-5.5,1.21-7.44h0.96V286.44z M179.16,272.3
			c4.37-3.48,11.48-6.47,18.67-6.47c5.25,0,8.57,1.37,10.19,2.42c2.75,1.78,3.72,3.88,3.72,5.82c0,2.59-1.62,4.29-5.98,4.29
			c-1.37,0-3.4,0-5.5,0.24c-4.12,0.49-7.44,0.89-10.35,1.78l-0.57-0.81c2.18-1.46,5.66-4.53,6.39-5.42c0.32-0.4,0.24-0.81-0.4-1.05
			c-1.54-0.57-4.53-0.89-6.87-0.89c-2.02,0-5.17,0.32-8.89,0.89L179.16,272.3z"/>
		<path class="st4" d="M249.99,240.69l0.65-1.05c2.83,0.08,5.58,0.4,7.76,1.46c5.58,2.67,9.78,8.08,9.78,11.4
			c0,2.99-3.07,3.64-6.95,6.14c-6.14,3.96-15.12,10.59-18.59,13.99c-2.02,1.94-2.91,3.07-2.91,4.12c0,1.21,1.37,2.34,2.99,3.4
			c7.44,4.85,17.54,10.19,22.96,16.98c3.07,3.88,3.72,6.22,3.72,9.22c0,2.83-1.62,6.63-6.95,6.63c-2.59,0-4.61-1.54-5.74-3.31
			c-1.05-1.86-2.02-3.64-4.12-7.19c-2.83-4.69-9.38-11.16-18.67-19.16c-1.94-1.62-2.83-3.72-2.83-5.17c0-1.78,0.65-3.31,2.51-5.66
			c4.45-5.42,15.93-17.87,18.76-21.75c1.13-1.54,1.62-2.51,1.62-3.72C253.95,245.05,251.77,242.71,249.99,240.69z"/>
		<path class="st4" d="M308.84,246.35c2.43-1.94,5.9-4.12,9.94-4.12c5.5,0,9.14,1.78,9.7,3.96c1.05,3.96,1.86,6.63,2.83,8.73
			c7.28-3.48,9.78-7.03,11.32-7.03c2.18-0.08,5.01,0.24,6.55,1.94c1.54,1.62,1.46,4.37-0.24,6.06c-2.26,2.34-7.6,5.25-13.18,7.52
			c4.37,6.55,10.02,11.24,13.74,14.88c1.86,1.86,2.59,3.23,2.59,5.34c0,3.23-1.54,8.49-5.25,8.49c-2.83,0-4.61-1.78-7.44-3.72
			c-3.8-2.67-9.62-6.39-18.92-6.39c-8.16,0-13.1,4.2-13.1,9.94c0,4.61,4.61,8.17,15.28,8.17c5.42,0,9.13-0.97,12.53-0.97
			c4.12,0,8.17,1.46,8.17,5.82c0,3.72-4.45,6.22-17.38,6.22c-16.17,0-26.52-6.47-26.52-16.49c0-9.3,9.78-16.73,23.28-16.73
			c6.63,0,12.13,0.97,14.96,1.46c1.05,0.16,1.29-0.08,0.4-0.97c-2.43-2.59-6.47-7.6-9.94-12.29c-5.17,1.54-11.24,2.83-16.25,2.91
			c-11.64,0.24-14.23-3.72-17.46-13.1l1.05-0.73c5.42,4.61,9.05,5.34,14.31,5.25c3.31-0.08,8.33-1.05,13.18-2.42
			c-1.62-2.67-3.15-5.34-4.2-6.95c-1.37-2.1-5.01-3.15-9.7-3.72L308.84,246.35z"/>
		<path class="st4" d="M389.29,244.57v-0.97c2.1-0.97,5.42-1.54,7.36-1.29c7.76,0.89,12.45,6.79,12.45,10.35
			c0,2.02-2.75,3.15-5.09,5.42c-4.53,4.28-10.99,12.04-14.23,17.3c-0.24,0.4-0.16,0.57,0.32,0.32c3.8-1.7,7.36-2.26,9.62-2.26
			c7.03,0,9.86,3.56,10.91,6.22c1.46,3.64,1.13,10.19,1.13,15.04c0,3.88,2.34,4.69,4.85,4.69c8.41,0,16.09-9.86,19.32-18.19
			l1.05,0.16c-0.89,19.64-10.59,28.86-23.44,28.86c-8.16,0-12.37-4.69-12.53-11.08c-0.08-6.06,0.97-10.27,0.97-15.68
			c0-3.31-1.13-5.98-5.34-5.98c-5.98,0-10.99,6.95-13.42,13.02c-1.78,4.37-3.07,9.38-4.53,13.66c-0.97,2.83-2.75,5.66-6.55,5.66
			c-3.88,0-5.82-3.96-5.82-7.28c0-4.85,5.01-11.24,9.54-19.08c4.45-7.68,16.73-28.21,18.84-32.58c0.65-1.37,0.4-2.51-0.4-3.31
			C393.01,246.35,390.82,245.22,389.29,244.57z"/>
		<path class="st4" d="M477.98,307.38c20.7-5.5,27.49-17.3,27.49-30.96c0-15.12-8.97-24.82-21.99-24.82c-1.13,0-2.26,0.08-3.4,0.24
			c2.75,2.51,6.31,6.95,6.31,11.16c0,4.29-0.73,10.02-2.75,15.12c-3.8,10.51-12.61,24.74-23.28,24.74
			c-7.03,0-13.18-10.59-13.18-21.42c0-7.19,3.56-17.46,12.45-24.74c6.47-5.5,14.55-8.57,25.06-8.57c19.56,0,32.98,13.9,32.98,30.88
			c0,16.17-11.88,28.94-39.37,29.75L477.98,307.38z M476.2,252.81c-5.01,1.54-10.02,4.61-13.74,8.81
			c-4.45,5.17-6.71,10.11-6.71,16.49c0,5.74,2.26,11.72,5.74,11.72c4.04,0,11.08-10.35,13.26-14.79c2.42-5.09,3.96-11.08,3.96-15.6
			C478.7,257.02,477.57,254.43,476.2,252.81z"/>
		<path class="st4" d="M593.75,245.94c0,0,7.11,5.42,11.4,9.05c-0.24,0.89-1.21,1.29-2.34,1.29h-36.7
			c-0.32,4.77-0.81,9.38-1.54,13.91h15.76l6.06-5.82l10.02,8.57c-0.65,0.73-1.78,1.29-3.56,1.62c-1.37,21.18-3.72,32.09-8.89,36.06
			c-3.23,2.51-6.79,3.56-13.02,3.56c0-3.48-0.4-6.22-2.02-7.84c-1.7-1.86-5.01-3.31-9.3-4.2v-0.89c4.37,0.32,10.83,0.73,12.93,0.73
			c1.37,0,2.1-0.24,2.99-0.89c2.67-2.1,4.45-12.37,5.5-28.62h-16.9c-3.48,18.19-12.29,33.63-34.6,41.88l-0.49-0.73
			c19.48-14.31,23.77-35.41,24.01-57.32H529.4l-0.65-2.26h31.93v-16.65l14.88,1.05c-0.16,1.13-0.65,1.94-2.91,2.34v13.26h14.87
			L593.75,245.94z"/>
		<path class="st4" d="M641.45,276.82c-1.54,4.45-3.96,10.35-4.53,13.34c-0.65,3.56-0.89,5.25-0.89,6.47c0,3.15,1.78,5.98,1.78,8.73
			c0,3.64-1.78,5.66-5.01,5.66c-2.26,0-4.53-1.54-6.39-3.96c-3.4-4.45-5.09-10.27-5.09-20.13c0-6.23,2.1-15.52,3.4-20.37
			c1.05-3.96,1.78-7.44,1.78-11.56s-2.26-8-3.96-10.02l0.57-0.81c3.15,0.57,5.25,1.38,7.52,2.75c2.91,1.78,7.76,6.63,7.76,11.56
			c0,2.51-1.21,4.2-3.15,7.36c-3.56,5.74-6.63,13.34-6.63,19.48c0,1.62,0.24,3.31,0.65,4.2c0.57,1.29,1.29,1.37,2.18,0.08
			c2.1-2.99,6.06-9.46,8.33-13.5L641.45,276.82z M648.72,282.56c0.49,1.86,1.05,4.04,1.94,5.58c3.4,5.9,6.95,7.68,17.06,7.68
			c7.92,0,11.4-1.62,12.93-1.62c4.12,0,8.57,2.02,8.57,5.66c0,5.98-8.57,7.11-18.84,7.11c-16.65,0-22.64-7.84-23.28-17.79
			c-0.16-2.42,0.16-4.77,0.48-6.55L648.72,282.56z M649.13,260.9c6.06-6.55,15.52-8.97,21.75-8.97c5.34,0,8.73,0.73,11.56,2.43
			c2.91,1.7,3.56,3.56,3.56,5.17c0,2.59-1.37,3.64-3.56,4.12c-2.67,0.57-6.06,0.57-9.62,1.46c-3.72,0.97-8.89,3.15-13.42,5.82
			l-0.89-1.05c3.48-3.15,6.71-6.14,7.84-7.68c0.81-1.05,1.46-2.02-4.85-2.02c-1.94,0-5.09,0.16-11.88,1.78L649.13,260.9z"/>
		<path class="st4" d="M710.09,281.51c1.21,11.96,5.25,17.46,19.81,17.46c11.56,0,18.35-3.8,20.61-3.8c3.48,0,9.7,2.1,9.7,6.39
			c0,3.15-0.97,4.28-5.09,5.82c-4.77,1.7-13.34,2.59-21.67,2.59c-25.22,0-29.99-12.13-24.66-28.46L710.09,281.51L710.09,281.51z
			 M719.22,268.42c2.67-2.1,6.31-5.5,8.33-7.36c0.65-0.65,0.57-0.89-0.32-0.97c-7.84-0.57-15.28-1.78-17.06-11.32l0.81-0.49
			c4.04,2.83,6.87,3.64,13.5,3.64c11.24,0,13.42-2.42,17.7-2.42s11.56,3.07,11.56,6.79c0,2.67-1.54,4.2-4.93,4.85
			c-2.75,0.49-6.14,1.05-8.57,1.54c-5.25,1.13-12.37,3.4-20.37,6.79L719.22,268.42z M751.07,243.92c4.69,1.05,8.89,2.42,11.56,4.93
			c1.62,1.46,2.1,2.91,2.02,4.45c0,1.86-1.46,3.31-3.48,3.31c-1.38-0.08-2.51-0.89-3.64-2.75c-1.37-2.26-3.23-5.42-7.11-9.05
			L751.07,243.92z M758.43,238.67c4.85,0.65,8.81,1.86,11.24,3.56c2.02,1.46,2.75,3.07,2.75,5.01s-1.13,3.23-3.07,3.23
			c-1.7,0-2.67-0.97-4.12-2.99c-1.29-1.78-2.83-4.28-7.36-7.92L758.43,238.67z"/>
		<path class="st4" d="M792.15,260.82c0.16,5.34-2.18,8.97-5.25,10.43c-2.99,1.46-6.95,0.32-7.92-3.07
			c-0.81-3.23,1.21-5.5,4.04-6.71c2.91-1.13,6.39-4.37,6.39-8.25h1.05c0.73,1.86,1.21,3.72,1.46,5.33h7.03
			c-0.97-0.24-1.86-0.73-2.75-1.54c0.16-3.31-1.05-6.95-2.42-9.14l0.08-0.08c-3.23,0-6.39-0.08-9.46-0.24l-0.16-1.29
			c17.79-1.62,40.74-5.66,52.71-9.22l8.81,9.38c-0.97,0.73-2.83,0.73-5.42-0.4c-2.67,0.24-5.66,0.57-8.81,0.81l11,4.04
			c-0.4,0.89-1.38,1.46-3.15,1.21c-2.67,2.02-6.79,4.45-10.83,6.47h10.99l5.33-5.33l9.22,8.73c-0.65,0.65-1.46,0.89-3.15,0.97
			c-2.59,1.62-6.71,3.48-10.35,4.77c10.11,5.82,3.4,16.9-4.45,11.64c-0.97-5.17-4.37-10.75-7.76-14.31l0.65-0.49
			c3.56,0.32,6.47,0.97,8.81,1.86c0.73-1.78,1.38-3.8,1.94-5.58h-47.63V260.82z M854.23,303.74c-4.53,1.54-7.03,5.34-7.92,10.83
			c-10.91-1.46-20.29-3.88-27.73-8.41c-10.91,5.09-24.33,7.68-39.37,8.33l-0.32-1.05c12.77-2.51,24.41-6.47,33.31-12.13
			c-2.43-2.34-4.53-5.01-6.31-8.25c-7.2,5.17-16.41,9.62-25.55,11.8l-0.57-0.97c9.54-5.34,19.08-15.12,23.93-23.12
			c-1.62-1.13-2.02-3.07-2.02-6.22v-10.99l10.11,0.81c-0.65-0.89-1.38-1.62-2.02-2.18l0.57-0.49c20.45-2.18,13.9,14.31,5.01,9.46
			c-0.4-1.86-1.37-3.8-2.51-5.5c-0.4,0.4-1.05,0.65-1.86,0.81v6.22c0,0.81,0.16,1.05,2.02,1.05h5.33h4.45
			c0.81-0.08,1.46-0.16,1.94-0.65c0.73-0.81,1.78-2.67,2.99-5.42h0.81l0.32,5.42c2.42,0.97,2.99,2.02,2.99,3.64
			c0,3.72-3.48,5.25-14.63,5.25h-4.69l4.93,2.34c-0.32,0.73-1.21,1.05-2.75,0.89c-0.65,0.81-1.37,1.54-2.18,2.34h12.21l6.47-5.5
			l9.3,8.81c-0.57,0.89-1.46,1.13-3.56,1.29c-2.67,3.31-5.82,6.23-9.38,8.73c8.17,1.62,17.46,1.94,26.6,1.78L854.23,303.74z
			 M797.81,264.29c3.15,8.73,0.16,14.79-4.04,16.57c-2.99,1.29-6.87,0.08-7.68-3.23c-0.73-3.23,1.29-5.42,4.04-6.55
			c2.91-0.89,6.39-3.56,6.63-6.79H797.81z M814.54,258.55c-1.05-0.24-2.26-0.81-3.31-1.78c0.24-3.15-0.73-6.71-2.02-8.97
			c-3.96,0.08-8,0.08-12.05,0.08c11.64,2.18,9.78,9.22,5.09,10.67H814.54z M810.01,289.84c-0.81,0.73-1.78,1.46-2.67,2.18
			c2.51,2.42,5.82,4.37,9.54,5.9c2.99-2.43,5.58-5.09,7.6-8.08H810.01z M824.81,258.55c1.7-3.56,3.31-8,4.37-11.64
			c-4.85,0.32-10.19,0.57-15.6,0.73c10.59,2.83,8.17,9.94,3.31,10.91H824.81z"/>
		<path class="st4" d="M935.4,246.67c-0.65,0.73-1.7,1.54-3.56,1.94v51.98c0,7.52-1.7,11.56-13.99,12.61
			c-0.24-3.64-0.65-6.3-1.78-7.92c-1.21-1.7-2.67-2.91-6.71-3.64v-1.05c0,0,7.52,0.48,9.13,0.48c1.29,0,1.62-0.65,1.62-1.62v-14.47
			H906.3v25.14c0,0.73-3.4,3.07-9.38,3.07h-2.1v-28.21H881.8c-1.7,10.51-6.22,20.86-18.75,28.46l-0.73-0.57
			c8.41-12.37,8.97-28.21,8.97-43.41V239.8l13.18,4.45h34.76l5.33-6.14L935.4,246.67z M894.82,282.73v-17.38h-12.05v4.04
			c0,4.28-0.08,8.81-0.65,13.34H894.82z M882.77,246.51v16.57h12.05v-16.57L882.77,246.51L882.77,246.51z M906.3,246.51v16.57h13.82
			v-16.57L906.3,246.51L906.3,246.51z M920.12,282.73v-17.38H906.3v17.38H920.12z"/>
		<path class="st4" d="M958.93,262.52c0-4.77-2.67-8.81-6.22-11.88l0.24-0.81c2.26-0.24,6.14-0.16,8.97,0.97
			c4.69,1.94,9.86,6.95,9.86,10.91c0,4.12-5.01,8.33-5.01,19.48c0,5.34,3.15,9.05,5.34,9.86c1.21,0.49,2.42,0.4,3.4-0.81
			c2.83-3.8,5.82-8.65,8.89-14.23l1.46,0.65c-1.78,6.71-3.15,13.66-3.07,16.65c0.16,5.58,1.46,5.09,1.46,8.08
			c0,4.45-4.69,6.63-10.67,4.2c-6.63-2.75-13.58-10.19-14.88-21.91C957.96,276.99,958.93,269.06,958.93,262.52z M996.85,258.31
			l0.24-1.05c8.97,0,14.23,2.83,19.56,7.6c5.09,4.45,7.2,10.67,7.2,17.3c0,6.06-2.02,9.54-6.87,9.54c-1.94,0-4.12-0.89-4.93-3.23
			c-1.13-3.39-0.4-6.55-2.26-13.9C1008.17,268.01,1003.8,261.63,996.85,258.31z"/>
		<path class="st4" d="M1052.96,241.98c2.42-1.21,4.93-1.86,7.44-1.86c5.98,0,11.24,2.83,11.24,5.25s-1.78,3.72-3.96,10.51
			c3.07-0.97,5.42-2.1,7.44-3.23c1.86-1.05,3.23-2.18,4.04-2.18c2.34,0,7.2,1.29,7.2,5.25c0,2.67-2.18,4.28-9.54,6.79
			c-2.59,0.89-7.19,2.18-11.88,3.23c-0.89,3.15-1.86,6.63-2.91,9.94c-2.59,8.25-7.6,23.44-10.59,29.43
			c-1.62,3.23-2.99,5.42-6.63,5.42c-3.07,0-5.42-3.31-5.42-7.36c0-4.12,2.67-5.5,5.42-10.19c2.42-4.12,6.06-11.08,9.38-20.78
			c0.48-1.37,0.97-3.07,1.46-4.85c-1.94,0.24-3.8,0.4-5.25,0.4c-6.87,0-10.51-1.37-13.1-11.64l0.81-0.57
			c4.53,3.07,6.79,3.64,9.94,3.72c3.23,0.08,6.71-0.32,9.62-0.89c0.73-3.64,1.21-6.95,1.29-8.73c0.08-2.18-0.08-2.75-1.38-4.04
			c-1.05-1.05-2.51-1.94-4.61-2.75L1052.96,241.98L1052.96,241.98z M1070.1,286.44c0.24,1.86,0.81,4.77,2.42,7.03
			c3.31,4.69,7.92,5.9,14.23,5.9c6.55,0,9.94-1.54,11.16-1.54c3.88,0,8.49,1.7,8.49,6.06c0,2.34-1.94,4.04-5.66,4.93
			c-2.59,0.65-6.14,1.21-11.96,1.21c-13.9,0-20.86-6.14-20.86-16.17c0-2.34,0.65-5.5,1.21-7.44h0.97V286.44z M1072.36,272.3
			c4.37-3.48,11.48-6.47,18.67-6.47c5.25,0,8.57,1.37,10.19,2.42c2.75,1.78,3.72,3.88,3.72,5.82c0,2.59-1.62,4.29-5.98,4.29
			c-1.37,0-3.39,0-5.5,0.24c-4.12,0.49-7.44,0.89-10.35,1.78l-0.57-0.81c2.18-1.46,5.66-4.53,6.39-5.42c0.32-0.4,0.24-0.81-0.4-1.05
			c-1.54-0.57-4.53-0.89-6.87-0.89c-2.02,0-5.17,0.32-8.89,0.89L1072.36,272.3z"/>
		<path class="st4" d="M1136.88,242.55c2.42-1.21,4.93-1.86,7.44-1.86c5.98,0,11.24,2.83,11.24,5.25c0,2.43-1.78,3.72-3.96,10.51
			c3.07-0.97,5.42-2.1,7.44-3.23c1.86-1.05,3.23-2.18,4.04-2.18c2.34,0,7.2,1.29,7.2,5.25c0,2.67-2.18,4.29-9.54,6.79
			c-2.59,0.89-7.19,2.18-11.88,3.23c-0.89,3.15-1.86,6.63-2.91,9.94c-2.59,8.25-7.6,23.44-10.59,29.43
			c-1.62,3.23-2.99,5.42-6.63,5.42c-3.07,0-5.42-3.31-5.42-7.36c0-4.12,2.67-5.5,5.42-10.19c2.42-4.12,6.06-11.08,9.38-20.78
			c0.48-1.37,0.97-3.07,1.46-4.85c-1.94,0.24-3.8,0.4-5.25,0.4c-6.87,0-10.51-1.37-13.1-11.64l0.81-0.57
			c4.53,3.07,6.79,3.64,9.94,3.72c3.23,0.08,6.71-0.32,9.62-0.89c0.73-3.64,1.21-6.95,1.29-8.73c0.08-2.18-0.08-2.75-1.38-4.04
			c-1.05-1.05-2.51-1.94-4.61-2.75L1136.88,242.55L1136.88,242.55z M1154.01,287.01c0.24,1.86,0.81,4.77,2.42,7.03
			c3.31,4.69,7.92,5.9,14.23,5.9c6.55,0,9.94-1.54,11.16-1.54c3.88,0,8.49,1.7,8.49,6.06c0,2.34-1.94,4.04-5.66,4.93
			c-2.59,0.65-6.14,1.21-11.96,1.21c-13.9,0-20.86-6.14-20.86-16.17c0-2.34,0.65-5.5,1.21-7.44h0.97V287.01z M1166.46,280.14
			c2.18-1.46,5.66-4.53,6.39-5.42c0.32-0.4,0.24-0.81-0.4-1.05c-1.54-0.57-4.53-0.89-6.87-0.89c-2.02,0-5.17,0.32-8.89,0.89
			l-0.4-0.81c4.37-3.48,11.48-6.47,18.67-6.47c5.25,0,8.57,1.37,10.19,2.43c2.75,1.78,3.72,3.88,3.72,5.82
			c0,2.59-1.62,4.28-5.98,4.28c-1.37,0-3.39,0-5.5,0.24c-4.12,0.48-7.44,0.89-10.35,1.78L1166.46,280.14z M1174.47,247.32
			c4.69,1.05,8.89,2.42,11.56,4.93c1.62,1.46,2.1,2.91,2.02,4.45c0,1.86-1.46,3.31-3.48,3.31c-1.37-0.08-2.51-0.89-3.64-2.75
			c-1.38-2.26-3.23-5.42-7.11-9.05L1174.47,247.32z M1181.82,242.06c4.85,0.65,8.81,1.86,11.24,3.56c2.02,1.46,2.75,3.07,2.75,5.01
			s-1.13,3.23-3.07,3.23c-1.7,0-2.67-0.97-4.12-2.99c-1.29-1.78-2.83-4.28-7.36-7.92L1181.82,242.06z"/>
		<path class="st4" d="M1215.54,262.52c0-4.77-2.67-8.81-6.22-11.88l0.24-0.81c2.26-0.24,6.14-0.16,8.97,0.97
			c4.69,1.94,9.86,6.95,9.86,10.91c0,4.12-5.01,8.33-5.01,19.48c0,5.34,3.15,9.05,5.34,9.86c1.21,0.49,2.42,0.4,3.39-0.81
			c2.83-3.8,5.82-8.65,8.89-14.23l1.46,0.65c-1.78,6.71-3.15,13.66-3.07,16.65c0.16,5.58,1.46,5.09,1.46,8.08
			c0,4.45-4.69,6.63-10.67,4.2c-6.63-2.75-13.58-10.19-14.88-21.91C1214.57,276.99,1215.54,269.06,1215.54,262.52z M1253.46,258.31
			l0.24-1.05c8.97,0,14.23,2.83,19.56,7.6c5.09,4.45,7.2,10.67,7.2,17.3c0,6.06-2.02,9.54-6.87,9.54c-1.94,0-4.12-0.89-4.93-3.23
			c-1.13-3.39-0.4-6.55-2.26-13.9C1264.77,268.01,1260.41,261.63,1253.46,258.31z"/>
		<path class="st4" d="M1292.26,252.57c1.62,2.02,3.15,4.12,5.42,4.12c5.17,0,15.04-2.26,29.67-5.9c8.17-2.02,17.79-4.53,20.21-4.53
			c2.59,0,5.01,0.4,7.52,1.54c2.34,1.05,4.45,2.83,4.45,5.5c0,2.51-2.02,4.45-5.09,4.45c-2.42,0-5.25-0.32-7.19-0.32
			c-3.56,0-8.17,0.16-12.61,3.56c-2.51,1.94-8.65,8.17-8.65,20.61c0,10.75,5.5,14.23,11.64,15.04c4.04,0.57,5.9,0.4,7.76,0.4
			c3.15,0,7.03,3.23,7.03,6.79c0,4.69-5.01,5.66-8.73,5.66c-7.03,0-11.88-0.97-16.73-3.8c-5.82-3.4-9.94-9.3-9.94-20.13
			c0-12.61,6.55-22.39,15.76-28.13c0.73-0.48,0.65-0.97-0.16-0.81c-9.78,2.18-20.78,6.31-25.63,9.46c-1.78,1.13-3.48,3.23-6.06,3.23
			c-4.12,0-10.51-6.22-10.51-10.75c0-2.26,0.65-4.45,1.13-5.74L1292.26,252.57z"/>
		<path class="st4" d="M1379.01,262.52c0-4.77-2.67-8.81-6.22-11.88l0.24-0.81c2.26-0.24,6.14-0.16,8.97,0.97
			c4.69,1.94,9.86,6.95,9.86,10.91c0,4.12-5.01,8.33-5.01,19.48c0,5.34,3.15,9.05,5.34,9.86c1.21,0.49,2.42,0.4,3.39-0.81
			c2.83-3.8,5.82-8.65,8.89-14.23l1.46,0.65c-1.78,6.71-3.15,13.66-3.07,16.65c0.16,5.58,1.46,5.09,1.46,8.08
			c0,4.45-4.69,6.63-10.67,4.2c-6.63-2.75-13.58-10.19-14.88-21.91C1378.04,276.99,1379.01,269.06,1379.01,262.52z M1416.93,258.31
			l0.24-1.05c8.97,0,14.23,2.83,19.56,7.6c5.09,4.45,7.2,10.67,7.2,17.3c0,6.06-2.02,9.54-6.87,9.54c-1.94,0-4.12-0.89-4.93-3.23
			c-1.13-3.39-0.4-6.55-2.26-13.9C1428.24,268.01,1423.88,261.63,1416.93,258.31z"/>
		<path class="st4" d="M1477.16,244.49c2.1-1.46,4.77-2.83,8.17-2.83c5.98,0,11.8,2.43,11.8,5.98c0,1.54-1.21,2.75-1.86,4.69
			c-0.16,0.57-0.4,1.38-0.57,2.34c2.75-0.65,5.01-1.21,6.47-1.7c3.96-1.29,5.01-2.02,5.42-2.02c2.42,0,8.25,0.81,8.25,4.61
			c0,2.83-1.54,3.72-4.45,4.77c-2.91,1.05-8.65,2.67-16.73,3.72c-0.16,2.26-0.24,4.69-0.32,7.19c2.26-0.49,4.53-1.13,6.71-1.78
			c3.8-1.13,4.93-1.86,5.33-1.86c4.04,0,7.76,0.89,7.76,4.12c0,2.67-1.7,3.88-3.8,4.77c-2.18,0.97-8.41,2.34-16.01,3.31
			c0.16,3.56,0.57,6.55,0.89,9.38c8.73,1.62,14.39,4.85,16.98,6.71c3.15,2.26,5.34,4.77,5.34,8.08s-1.86,5.01-4.28,5.01
			c-2.26,0-3.23-0.89-5.42-2.75c-3.8-3.4-7.52-6.31-11.8-8.49c0.08,0.89,0.08,1.78,0.08,2.67c0,6.47-5.74,10.83-15.6,10.83
			c-9.94,0-16.65-3.8-16.65-11.64c0-7.03,8.17-11.56,19.48-11.56c1.13,0,2.26,0,3.31,0.08l-0.24-7.52
			c-2.83,0.24-5.74,0.32-8.65,0.32c-10.75,0-17.62-7.6-6.79-15.04l0.89,0.65c-2.59,4.69-0.97,6.39,5.01,6.39
			c3.31,0,6.39-0.16,9.3-0.48c0-1.38,0-2.75,0-4.04v-3.56c-2.67,0.16-5.42,0.24-8.41,0.24c-8.17,0-14.15-2.1-17.87-11.8l0.73-0.49
			c4.2,2.59,7.68,4.2,13.82,4.2c4.04,0,8.08-0.32,11.8-0.73v-5.58c0-1.62-0.65-2.43-2.02-3.15c-1.7-0.81-3.4-1.46-5.98-2.26
			L1477.16,244.49z M1485.73,294.53c-2.51-0.49-5.25-0.73-8.33-0.73c-5.98,0-10.27,2.42-10.27,5.17c0,2.59,3.07,4.04,6.79,4.04
			c6.87,0,11.8-1.13,11.8-8.08L1485.73,294.53L1485.73,294.53z"/>
		<path class="st4" d="M1558.01,244.33c2.1-1.7,5.17-3.56,8.17-3.56c5.25,0,11.48,2.26,11.48,5.25c0,2.34-1.46,4.29-1.7,6.22
			c-0.08,0.65-0.16,1.62-0.16,2.83c15.6-1.94,15.44-3.07,16.49-3.07c5.09,0,11.08,2.75,11.08,7.11c0,3.4-2.02,3.72-4.93,3.72
			c-4.12,0-8.65-2.43-22.88-1.29c-0.16,3.96-0.24,8.49-0.16,12.61c2.43,2.91,3.4,7.03,3.4,11.08c0,17.79-15.04,26.19-33.87,27.97
			l-0.49-1.29c9.94-3.48,18.27-8.41,21.5-15.84c-8.25,1.62-13.91-5.42-13.91-13.5c0-7.76,5.5-13.1,12.13-13.1
			c1.21,0,2.34,0.08,3.39,0.24c-0.16-1.94-0.32-4.53-0.48-7.19c-8.17,1.13-14.15,2.67-17.54,3.72c-3.96,1.21-5.66,3.15-8.81,3.15
			c-3.48,0-8.65-4.61-9.54-8.33c-0.49-2.02-0.4-4.45-0.24-6.31l1.05-0.49c3.39,3.64,4.53,4.37,7.36,4.45
			c3.72,0.16,18.11-1.54,27.16-2.59c-0.24-2.75-0.57-5.17-0.81-6.63c-0.24-1.29-0.65-1.86-1.94-2.51c-1.46-0.73-3.48-1.29-5.66-1.78
			L1558.01,244.33z M1567.46,281.11c0-3.39-0.89-6.87-4.29-6.87c-3.64,0-6.39,2.99-6.39,7.28c0,3.15,2.34,6.31,6.06,6.31
			S1567.46,285.31,1567.46,281.11z"/>
	</g>
</g>
<g>
	<g>
		<g class="st1">
			<path class="st4" d="M337.12,1859.92c2.33-0.24,4.58-2.91,6.52-2.91c2.91,0,9.36,6.39,8.52,9.54c-0.65,2.43-4.09,2.59-5.48,5.98
				c-2.07,5.01-7.69,17.54-14.21,26.19c-3.75,4.93-10.75,10.27-16.49,10.27c-3.15,0-3.47-1.21-3.52-4.37
				c-0.01-2.67-0.85-4.69-4.9-9.78l0.85-1.05c4.92,1.86,8.65,2.43,10.75,2.43c2.02,0,2.94-0.41,4.25-1.7
				c5.79-5.9,12.69-21.1,14.07-26.27c0.22-0.81-0.04-1.05-0.61-1.05c-3.07,0-7.69,0.65-12.25,1.37
				c-6.61,11.08-21.08,32.82-50.82,43.33l-0.54-1.29c19.53-12.53,30.86-27.08,38.67-39.93c-2.5,0.57-5.07,1.13-7.19,1.78
				c-2.64,0.81-5.11,2.18-7.29,2.18c-2.75,0-5.85-5.01-6.2-8.25c-0.33-2.1,0.42-3.96,1.72-6.71l0.96-0.24
				c1.41,2.59,2.63,4.37,5.7,4.37c1.7,0,8.93-0.73,17.17-1.62c2.21-4.04,4.29-8.17,4.88-10.35c0.48-1.78,0.47-2.67-0.28-3.48
				c-1.05-1.21-2.51-2.1-4.07-2.91l0.16-0.89c2.32-1.13,5.53-2.83,8.11-2.83c5.25,0,12.18,4.93,11.38,7.92
				c-0.78,2.91-3.29,2.91-5.29,6.47c-0.73,1.21-1.54,2.75-2.65,4.77L337.12,1859.92z"/>
			<path class="st4" d="M367.36,1913.03l-0.38-1.29c17.37-8.41,28.51-18.92,34.09-34.6c2.02-5.42,5.32-18.35,6.18-22.47
				c0.42-2.18,0.46-2.91-0.82-3.88c-1.14-0.89-2.74-1.54-4.27-2.18l0.24-1.21c2.97-2.02,7.5-4.45,9.92-4.45
				c3.56,0,10.51,4.53,9.75,7.36c-0.61,2.26-2.67,3.31-3.48,5.74c-1.56,4.61-5.12,16.09-6.74,20.94
				C405.39,1896.62,389.58,1907.94,367.36,1913.03z M374.21,1849.73l0.33-1.21c2.49-1.13,5.48-2.34,7.98-2.34
				c3.88,0,11.38,4.61,10.47,8c-0.65,2.43-3.12,3.8-4.21,7.28c-1.2,3.56-4.43,15.93-6.21,22.56c-1.3,4.85-3.82,7.03-7.22,7.03
				c-3.15,0-5.11-4.77-3.59-10.43c0.54-2.02,2.41-3.88,3.76-8.89c1.11-4.12,3.49-13.01,3.93-16.49c0.15-1.45-0.14-2.18-1.06-2.99
				C377.48,1851.43,375.88,1850.46,374.21,1849.73z"/>
			<path class="st4" d="M450.49,1850.79c1.43,2.51,3.48,4.53,6.22,4.53c6.22,0,20.18-2.59,23.95-3.4c2.31-0.48,4.69-3.31,6.63-3.31
				c3.96,0,10.42,7.28,9.6,10.35c-0.71,2.67-5.57,4.2-6.79,5.42c-3.87,3.88-9.42,10.43-15.65,15.84
				c12.29,3.31,21.6,10.51,18.93,20.45c-0.78,2.91-4.05,6.39-7.94,6.39c-3.72,0-5.6-2.34-6.48-6.31
				c-1.26-6.14-1.92-12.45-7.93-17.79c-9.43,7.44-25.75,19.48-49.08,25.38l-0.42-1.45c21.72-9.86,47.75-31.29,57.95-46.73
				c0.83-1.29,0.46-1.7-0.43-1.7c-1.94,0-12.67,3.24-16.96,4.77c-3.03,1.05-4.83,3.23-7.33,3.23c-4.2,0-6.88-5.42-6.94-8.81
				c-0.03-2.02,0.56-4.2,1.39-6.39L450.49,1850.79z"/>
			<path class="st4" d="M516.27,1856.04c2.2,2.67,3.55,3.64,6.3,3.64c12.21,0,32.93-2.51,42.37-3.64c3-0.32,5.64-3.23,8.06-3.23
				c4.61,0,11.87,8.49,10.64,13.1c-1,3.72-4.73,2.59-9.66,5.58c-6.27,3.8-14.34,8.57-23.85,13.58c3.21,3.39,4.73,7.68,3.3,13.01
				c-1.15,4.29-4.61,6.63-8.24,6.63c-5.25,0-3.67-5.9-7.84-14.47c-3.55-7.28-7.15-11.64-9.67-13.99l1.03-1.13
				c6.44,1.29,13.19,3.56,18.08,7.03c7.97-5.9,14.55-12.37,18.99-17.78c0.97-1.21,0.73-2.1-0.69-1.94
				c-10.09,1.13-27.11,4.04-34.63,6.47c-2.4,0.81-5.5,3.64-8.09,3.64c-3.48,0-7.46-5.34-7.92-9.38c-0.19-1.7,0.11-4.04,0.91-6.71
				L516.27,1856.04z"/>
			<path class="st4" d="M629.42,1891.45c4.27,8.49,17.35,10.67,30.7,11.24l-0.24,0.89c-4.86,1.54-8.65,5.42-11.21,11.07
				c-12.4-3.8-19.94-9.46-20.87-23.2h-0.48c-5.86,11.32-15.8,19.16-47.83,23.44l-0.1-1.13c21.53-6.14,30.05-13.18,34.84-22.31H587.3
				l-0.04-2.26h28.05c1.33-3.15,2.48-6.55,3.56-10.27l15.81,1.05c-0.41,1.21-1.51,2.02-3.44,2.26c-0.89,2.43-1.84,4.77-2.83,6.95
				h17.22l8.12-7.68c0,0,5.49,5.17,8.68,8.65c-0.48,0.89-1.48,1.29-2.69,1.29h-30.32V1891.45z M621.26,1875.44l2.62-9.78h-20.29
				l-0.04-2.26h20.94l2.45-9.13h-25.46l-0.04-2.26h38.08c2.62-4.37,5.7-10.43,7.54-14.55l13.51,4.2c-0.6,1.05-1.73,1.62-3.48,1.54
				c-3.77,2.59-9.55,6.06-14.89,8.81h11.24l7.79-7.36c0,0,5.23,4.93,8.36,8.33c-0.48,0.89-1.48,1.29-2.69,1.29h-27.81l-2.45,9.13
				h9.05l7.32-6.79c0,0,5.09,4.53,8.03,7.76c-0.48,0.89-1.48,1.29-2.69,1.29h-22.31l-2.62,9.78h14.71l8.08-7.84
				c0,0,5.38,5.25,8.39,8.81c-0.4,0.89-1.48,1.29-2.61,1.29h-69.2l-0.04-2.26L621.26,1875.44L621.26,1875.44z M617.46,1838.34
				c24.84-0.08,9.58,19.16,1.26,11.88c0.74-4.29-0.25-8.73-1.86-11.48L617.46,1838.34z"/>
			<path class="st4" d="M724.33,1866.71c-0.63,1.13-1.81,1.62-4.72,1.94c5.46,7.68,19.83,11.96,30.75,13.18l-0.35,1.29
				c-5.18,1.54-9.38,6.63-11.09,10.91c-1.96-0.81-3.89-1.78-5.69-2.91c-0.53,0.49-1.45,0.89-2.65,1.13l-5.13,19.16
				c-0.25,0.65-6.45,2.67-10.17,2.67h-2.02l1.56-5.82H693.8l-0.82,3.07c-0.26,0.97-6.02,3.48-10.63,3.48h-1.62l6.8-25.38
				c-5.95,2.59-12.13,4.85-17.96,6.39l-0.17-0.89c16.2-7.68,34.17-22.23,39.85-32.26L724.33,1866.71z M695.56,1850.71
				c-0.91,5.82-3.9,10.02-7.17,11.96c-3.39,2.1-7.84,1.21-8.24-2.42c-0.22-3.4,2.35-6.06,5.67-7.6c3.1-1.62,7.7-5.82,8.81-10.27
				h0.97c0.3,2.18,0.41,4.2,0.23,6.06h18.27l2.84-10.59l14.76,1.05c-0.38,1.13-1.17,1.94-3.54,2.34l-1.93,7.19h17.87l6.97-5.5
				l7.13,8.97c-0.84,0.73-1.69,0.89-3.43,1.05c-3.54,2.34-9.09,5.25-13.65,7.19c5.27,5.98-1.36,14.71-8.25,11.8
				c-1.87-5.98-7.11-12.69-11.91-16.49l0.72-0.57c9.2-0.24,14.89,1.46,18.04,3.88c1.48-2.51,3.03-5.58,4.27-8.08h-48.43V1850.71z
				 M682.75,1874.07c8.06-5.66,16.52-14.87,20.9-21.26l11.32,5.42c-0.54,0.81-1.44,1.46-3.36,1.38
				c-6.73,5.82-17.88,12.13-28.43,15.28L682.75,1874.07z M724.81,1883.93c-3.44-4.04-5.78-8.89-6.65-14.39
				c-5.62,5.9-14.32,11.8-23.97,16.73l5.46,2.26h19.72L724.81,1883.93z M715.42,1906l4.07-15.2h-21.02l-4.07,15.2H715.42z"/>
			<path class="st4" d="M778.82,1875.77l1.15-4.28h-6.14l-2.95,10.99h5.25l5.83-4.85l7.41,7.03c-0.56,0.57-1.7,1.21-3.32,1.54
				l-5.57,20.78c-0.25,0.65-5.74,2.42-8.98,2.42h-1.78l1.41-5.25h-6.06l-1.36,5.09c-0.2,0.73-3.92,3.15-9.09,3.15h-1.86l17.33-64.67
				l7.78,3.23c1.1-3.8,2.69-9.13,3.65-13.01l13.74,2.42c-0.61,1.37-1.92,2.02-3.74,2.18c-2.74,2.67-6.95,6.63-10.03,9.38h2.91
				l5.83-4.85l7.41,7.03c-0.56,0.57-1.7,1.21-3.32,1.54l-4.76,17.78c-0.23,0.57-5.72,2.34-8.96,2.34L778.82,1875.77L778.82,1875.77z
				 M770.27,1884.74l-4.59,17.14h6.06l4.59-17.14H770.27z M780.58,1869.22l4.03-15.04h-6.14l-4.03,15.04H780.58z M825.23,1848.6
				l-2.99,11.16h3.72l5.89-5.09l7.67,7.28c-0.56,0.57-1.7,1.21-3.24,1.54l-7.58,28.29c-1.91,7.11-4.11,10.83-14.05,11.72
				c0.91-3.4,1.44-5.98,1.37-7.52c0.01-1.54-0.44-2.59-2.33-3.07l0.3-1.13c0,0,2.14,0.16,3.03,0.16c0.97,0,1.26-0.49,1.46-1.21
				l7.69-28.7h-4.53l-13.28,49.55c-0.17,0.65-4.09,2.91-9.67,2.91h-2.02l14.06-52.47h-4.2l-10.5,39.21
				c-0.17,0.65-3.95,2.99-9.29,2.99h-1.86l13.04-48.67l10.27,4.2h3.15l2.99-11.16H799.2l-0.04-2.26h29.26l7.72-7.68
				c0,0,5,5.17,7.79,8.65c-0.48,0.89-1.48,1.29-2.61,1.29L825.23,1848.6L825.23,1848.6z"/>
			<path class="st4" d="M911.99,1872.69c-0.91,0.97-1.88,1.29-4.19,1.46c-6.2,7.76-13.46,14.63-21.81,20.45
				c8.13,4.37,18,7.03,28.24,8.65l-0.42,0.97c-5.62,1.05-10.09,4.77-13.2,10.35c-9.91-3.15-18.2-7.52-24.12-14.07
				c-12.06,6.71-26.03,11.48-42.07,13.99l-0.17-0.89c13.91-4.53,26.82-11.07,37.75-19c-3.61-6.14-5.7-13.74-5.99-23.2h-11.88
				l-0.12-2.26h24.01l3.79-14.15H852.3l-0.04-2.26h30.15l3.94-14.71l14.57,1.13c-0.41,1.21-1.19,2.02-3.54,2.34l-3.01,11.24h13.26
				l8.68-8.25c0,0,5.8,5.5,9.25,9.22c-0.48,0.89-1.56,1.29-2.77,1.29h-29.02l-3.79,14.15h5.66l8.56-6.31L911.99,1872.69z
				 M867.55,1871.4c1.52,7.6,5.42,13.58,10.89,18.19c6.59-5.58,12.25-11.64,16.92-18.19H867.55z"/>
			<path class="st4" d="M964.3,1869.94c-3.52,2.26-8.32,5.09-14.38,8.41l-6.43,24.01c-1.99,7.44-4.59,11.4-16.17,12.37
				c0.77-3.48,1.14-6.06,0.54-7.76c-0.54-1.62-1.61-2.75-4.89-3.48l0.28-1.05c0,0,6.2,0.4,7.73,0.4c1.13,0,1.54-0.32,1.78-1.21
				l4.44-16.57c-1.88,0.97-3.75,1.94-5.79,2.91c-0.71,1.13-1.83,2.02-3.05,2.34l-0.57-13.26c2.45-0.4,6.81-1.29,12.21-2.42
				l4.03-15.04h-9.94l-0.04-2.26h10.59l5.22-19.48l13.56,1.29c-0.49,1.21-1.51,2.02-3.62,2.34l-4.25,15.84h0.24l6.75-7.68
				c0,0,3.93,5.25,5.85,8.65c-0.48,0.89-1.4,1.29-2.53,1.29h-10.91l-3.36,12.53c4.12-0.89,8.5-1.86,12.75-2.91L964.3,1869.94z
				 M1000.62,1871.4c0,0,3.63,4.85,5.48,7.92c-0.48,0.89-1.4,1.29-2.53,1.29h-9.62l-5.76,21.5c-2.01,7.52-4.96,11.56-18.36,12.69
				c0.63-3.56,0.82-6.06-0.43-7.76c-1.27-1.62-2.96-2.83-7.82-3.72l0.26-0.97c0,0,10.9,0.65,13,0.65c1.29,0,1.81-0.4,2.09-1.46
				l5.61-20.94h-25.3l-0.04-2.26h25.95l2.73-10.19l13.82,1.21c-0.49,1.21-1.47,1.86-3.31,2.1l-1.8,6.71L1000.62,1871.4z
				 M960,1883.28c24.89,1.54,10.02,21.42,1.91,13.99c1-4.93-0.24-10.27-2.61-13.5L960,1883.28z M967.65,1851.11h14.47l3.44-12.85
				l14.09,1.13c-0.47,1.13-1.25,1.94-3.62,2.34l-2.51,9.38h2.26l7.51-7.52c0,0,4.78,5.09,7.43,8.49c-0.48,0.89-1.48,1.29-2.61,1.29
				h-15.2l-3.14,11.72h4.53l7.86-7.92c0,0,5.04,5.34,7.8,8.89c-0.48,0.89-1.48,1.29-2.61,1.29h-47.21l-0.04-2.26h18.27l3.14-11.72
				h-13.82L967.65,1851.11z"/>
			<path class="st4" d="M1076.74,1885.71c0,0,5.65,5.17,9.06,8.73c-0.48,0.89-1.56,1.29-2.77,1.29h-30.4l-4.38,16.33
				c-0.17,0.65-6.09,2.5-10.7,2.5h-2.1l5.05-18.83h-31.21l-0.04-2.26h31.85l2.17-8.08l14.47,1.21c-0.42,0.97-1.12,1.78-3.21,2.02
				l-1.3,4.85h15.2L1076.74,1885.71z M1039.61,1870.11c-4.11,3.56-10.53,8.81-19.89,15.68c-0.46,1.13-1.43,2.02-2.43,2.42
				l-4.15-10.75c4.53-1.21,15.52-4.53,26.42-8.08L1039.61,1870.11z M1024,1849.01h29.02l2.9-10.83l14.41,1.13
				c-0.34,0.97-1.02,1.7-3.13,2.02l-2.06,7.68h12.29l8.26-7.6c0,0,5.59,5.09,8.94,8.57c-0.48,0.89-1.48,1.29-2.69,1.29h-33.95
				l7.57,3.72c-0.64,0.89-1.95,1.54-3.68,1.37c-3.37,2.02-7.02,3.88-10.53,5.5c3.67,5.01-4.36,12.04-9.21,7.52
				c0.84-4.04-0.15-8.49-1.6-11.24l0.75-0.4c3.07,0.32,5.4,0.97,7.12,1.78c1.46-2.43,3.23-5.42,4.8-8.25h-29.18L1024,1849.01z
				 M1026.18,1853.54c22.3,3.96,7.58,21.5,0.43,14.07c0.9-4.85,0.1-10.02-1.19-13.66L1026.18,1853.54z M1059.87,1870.51
				c21.39,4.93,5.45,21.91-1.1,13.74c0.51-1.62,0.91-3.4,1.02-5.01c-5.22,1.7-12.07,3.72-21.17,6.31c-0.85,1.05-1.89,1.62-2.82,1.78
				l-2.54-10.75c2.43,0,6.06,0,10.43,0c6.41-5.82,13.29-13.1,17.76-18.59l9.62,5.74c-0.72,0.89-1.96,1.29-3.65,0.97
				c-4.89,3.48-12.25,8-19.49,11.8c3.74-0.08,7.8-0.16,12.03-0.24c-0.05-1.94-0.36-3.8-0.83-5.34L1059.87,1870.51z M1068.78,1868.33
				c28.45,0.32,19.22,20.29,9.57,16.17c-1.7-5.42-6.46-11.8-10.29-15.6L1068.78,1868.33z M1091.79,1859.11
				c-0.72,0.89-2.01,1.46-3.78,1.13c-5.57,2.67-11.94,5.33-17.08,7.03l-0.63-0.65c2.79-3.48,6.75-9.22,10.37-14.55L1091.79,1859.11z
				"/>
		</g>
	</g>
	<g class="st1">
		<path class="st4" d="M1233.97,1917.82l-42.77-98.51h-0.62l-17.99,67.13c-1.39,5.21-2.32,9.32-2.76,12.33
			c-0.45,3.02-0.29,5.36,0.46,7.03s2.12,2.76,4.12,3.28c1.99,0.52,4.69,0.83,8.1,0.94l-1.67,6.25h-46.37l1.67-6.25
			c3.88-0.1,7.07-0.44,9.56-1.01c2.49-0.57,4.6-1.64,6.32-3.2c1.72-1.56,3.17-3.77,4.35-6.64c1.18-2.86,2.43-6.74,3.74-11.63
			l16.82-62.76c1.17-4.37,1.93-7.99,2.28-10.85s0.17-5.13-0.52-6.79c-0.7-1.66-2.03-2.83-3.98-3.51s-4.67-1.12-8.15-1.33l1.67-6.25
			h43.56l38.74,90.24h0.62l16.19-60.42c1.37-5.1,2.28-9.18,2.74-12.26c0.46-3.07,0.31-5.44-0.44-7.1s-2.13-2.76-4.12-3.28
			c-2-0.52-4.7-0.83-8.1-0.94l1.67-6.25h46.37l-1.67,6.25c-3.88,0.11-7.07,0.44-9.56,1.02c-2.5,0.57-4.6,1.64-6.32,3.2
			c-1.72,1.56-3.18,3.8-4.38,6.71c-1.2,2.92-2.44,6.77-3.72,11.55l-24.93,93.05H1233.97z"/>
		<path class="st4" d="M1352.99,1831.95c6.24,0,11.87,1.07,16.86,3.2c5,2.13,9.1,5.07,12.31,8.82c3.21,3.75,5.35,8.2,6.42,13.35
			c1.06,5.15,0.78,10.8-0.87,16.94c-1.7,6.35-4.49,12.18-8.35,17.49c-3.87,5.31-8.43,9.89-13.67,13.74
			c-5.25,3.85-10.95,6.87-17.1,9.05c-6.15,2.19-12.35,3.28-18.6,3.28c-6.14,0-11.68-1.07-16.63-3.2s-8.98-5.12-12.12-8.98
			c-3.13-3.85-5.18-8.46-6.13-13.82c-0.96-5.36-0.59-11.21,1.11-17.56c1.65-6.14,4.36-11.81,8.15-17.02
			c3.79-5.2,8.27-9.68,13.43-13.43c5.17-3.75,10.79-6.66,16.86-8.74C1340.74,1832.99,1346.85,1831.95,1352.99,1831.95z
			 M1350.57,1841.01c-3.12,0-6.2,0.81-9.24,2.42c-3.04,1.62-5.85,3.88-8.45,6.79s-4.95,6.43-7.04,10.54
			c-2.09,4.11-3.8,8.66-5.14,13.66c-1.4,5.21-2.16,9.89-2.28,14.05c-0.13,4.16,0.33,7.7,1.37,10.62s2.62,5.18,4.74,6.79
			s4.79,2.42,8.02,2.42s6.38-0.81,9.47-2.42s5.96-3.9,8.63-6.87s5.08-6.53,7.24-10.69c2.15-4.16,3.92-8.79,5.28-13.9
			c1.34-5,2.03-9.52,2.08-13.58c0.05-4.06-0.47-7.57-1.55-10.54c-1.08-2.97-2.73-5.25-4.95-6.87
			C1356.52,1841.81,1353.79,1841.01,1350.57,1841.01z"/>
		<path class="st4" d="M1400.21,1906.26c0.89-3.33,2.77-6.17,5.64-8.51c2.86-2.34,5.96-3.51,9.29-3.51c3.43,0,5.98,1.17,7.65,3.51
			c1.66,2.34,2.05,5.18,1.15,8.51c-0.86,3.23-2.74,5.96-5.63,8.2s-6.05,3.36-9.49,3.36c-3.33,0-5.82-1.12-7.45-3.36
			C1399.73,1912.22,1399.35,1909.49,1400.21,1906.26z"/>
		<path class="st4" d="M1490.57,1890.65c-1.09,4.06-1.78,7.31-2.07,9.76c-0.29,2.45-0.03,4.37,0.79,5.78
			c0.82,1.41,2.28,2.37,4.38,2.89s5.01,0.83,8.73,0.94l-1.67,6.25h-58.7l1.67-6.25c4.09-0.1,7.43-0.44,10.03-1.01
			c2.6-0.57,4.72-1.51,6.38-2.81c1.65-1.3,3.02-3.12,4.12-5.46s2.13-5.33,3.11-8.98l15.18-56.67c1.62-6.04,2.93-11.03,3.94-14.99
			c1.01-3.96,1.47-6.56,1.39-7.81c-0.01-2.29-1.43-3.69-4.26-4.21s-7.21-0.78-13.14-0.78l1.67-6.24c2.84-0.1,6.15-0.34,9.95-0.7
			c3.79-0.36,7.72-0.83,11.77-1.41c4.06-0.57,8.06-1.22,12-1.95s7.44-1.56,10.51-2.5L1490.57,1890.65z"/>
	</g>
</g>
</svg>
