<?xml version="1.0" encoding="utf-8"?>
<!-- Generator: Adobe Illustrator 24.1.0, SVG Export Plug-In . SVG Version: 6.00 Build 0)  -->
<svg version="1.1" id="レイヤー_1" xmlns="http://www.w3.org/2000/svg" xmlns:xlink="http://www.w3.org/1999/xlink" x="0px"
	 y="0px" viewBox="0 0 350 60" style="enable-background:new 0 0 350 60;" xml:space="preserve">
<style type="text/css">
	.st0{enable-background:new    ;}
</style>
<g class="st0">
	<path d="M14.46,34.99c0,4.23,0,7.71,0.22,9.56c0.13,1.28,0.4,2.25,1.72,2.42c0.62,0.09,1.59,0.18,1.98,0.18
		c0.26,0,0.35,0.13,0.35,0.26c0,0.22-0.22,0.35-0.7,0.35c-2.42,0-5.2-0.13-5.42-0.13s-2.99,0.13-4.32,0.13
		c-0.48,0-0.7-0.09-0.7-0.35c0-0.13,0.09-0.26,0.35-0.26c0.4,0,0.92-0.09,1.32-0.18c0.88-0.18,1.1-1.15,1.28-2.42
		c0.22-1.85,0.22-5.33,0.22-9.56v-7.75c0-6.87,0-8.1-0.09-9.51c-0.09-1.5-0.53-2.25-1.5-2.47c-0.48-0.13-1.06-0.18-1.37-0.18
		c-0.18,0-0.35-0.09-0.35-0.26c0-0.26,0.22-0.35,0.7-0.35c1.45,0,4.23,0.13,4.45,0.13s2.99-0.13,4.32-0.13c0.48,0,0.7,0.09,0.7,0.35
		c0,0.18-0.18,0.26-0.35,0.26c-0.31,0-0.57,0.04-1.1,0.13c-1.19,0.22-1.54,0.97-1.63,2.51c-0.09,1.41-0.09,2.64-0.09,9.51V34.99z"/>
	<path d="M30.14,27.24c0-6.87,0-8.1-0.09-9.51c-0.09-1.5-0.44-2.2-1.89-2.51c-0.35-0.09-1.1-0.13-1.5-0.13
		c-0.18,0-0.35-0.09-0.35-0.26c0-0.26,0.22-0.35,0.7-0.35c1.01,0,2.2,0,3.17,0.04l1.81,0.04c0.88,0,9.82,0.04,10.83,0
		c0.84-0.04,1.54-0.04,1.94-0.18c0.26-0.09,0.44-0.26,0.62-0.26s0.26,0.18,0.26,0.4c0,0.31-0.22,0.84-0.35,2.07
		c-0.04,0.44-0.13,2.38-0.22,2.91c-0.04,0.22-0.13,0.48-0.35,0.48c-0.22,0-0.31-0.22-0.31-0.53c0-0.35-0.13-1.1-0.4-1.67
		c-0.26-0.57-1.28-1.36-2.99-1.41l-6.78-0.13c-0.26,0-0.4,0.13-0.4,0.48v12.15c0,0.26,0.04,0.4,0.31,0.4l5.64-0.04
		c0.75,0,1.37,0,1.98-0.04c1.06-0.09,1.63-0.22,2.03-0.79c0.18-0.22,0.31-0.44,0.48-0.44c0.18,0,0.22,0.13,0.22,0.35
		c0,0.26-0.22,1.01-0.35,2.47c-0.09,0.88-0.18,2.64-0.18,2.95c0,0.4,0,0.84-0.31,0.84c-0.22,0-0.31-0.18-0.31-0.4
		c-0.04-0.44-0.09-1.06-0.26-1.58c-0.22-0.62-0.92-1.41-2.29-1.58c-1.1-0.13-5.9-0.13-6.65-0.13c-0.22,0-0.31,0.09-0.31,0.4v3.74
		c0,4.23,0,7.71,0.22,9.56c0.13,1.28,0.4,2.25,1.72,2.42c0.62,0.09,1.59,0.18,1.98,0.18c0.26,0,0.35,0.13,0.35,0.26
		c0,0.22-0.22,0.35-0.7,0.35c-2.42,0-5.2-0.13-5.42-0.13s-2.99,0.13-4.32,0.13c-0.48,0-0.7-0.09-0.7-0.35
		c0-0.13,0.09-0.26,0.35-0.26c0.4,0,0.92-0.09,1.32-0.18c0.88-0.18,1.1-1.15,1.28-2.42c0.22-1.85,0.22-5.33,0.22-9.56V27.24z"/>
	<path d="M59.91,34.99c0,4.23,0,7.71,0.22,9.56c0.13,1.28,0.4,2.25,1.72,2.42c0.62,0.09,1.59,0.18,1.98,0.18
		c0.26,0,0.35,0.13,0.35,0.26c0,0.22-0.22,0.35-0.7,0.35c-2.42,0-5.2-0.13-5.42-0.13s-2.99,0.13-4.32,0.13
		c-0.48,0-0.7-0.09-0.7-0.35c0-0.13,0.09-0.26,0.35-0.26c0.4,0,0.92-0.09,1.32-0.18c0.88-0.18,1.1-1.15,1.28-2.42
		c0.22-1.85,0.22-5.33,0.22-9.56v-7.75c0-6.87,0-8.1-0.09-9.51c-0.09-1.5-0.53-2.25-1.5-2.47c-0.48-0.13-1.06-0.18-1.37-0.18
		c-0.18,0-0.35-0.09-0.35-0.26c0-0.26,0.22-0.35,0.7-0.35c1.45,0,4.23,0.13,4.45,0.13s2.99-0.13,4.32-0.13c0.48,0,0.7,0.09,0.7,0.35
		c0,0.18-0.18,0.26-0.35,0.26c-0.31,0-0.57,0.04-1.1,0.13c-1.19,0.22-1.54,0.97-1.63,2.51c-0.09,1.41-0.09,2.64-0.09,9.51V34.99z"/>
	<path d="M76.77,41.77c0.09,3.61,0.53,4.76,1.72,5.11c0.84,0.22,1.81,0.26,2.2,0.26c0.22,0,0.35,0.09,0.35,0.26
		c0,0.26-0.26,0.35-0.79,0.35c-2.51,0-4.27-0.13-4.67-0.13c-0.4,0-2.25,0.13-4.23,0.13c-0.44,0-0.7-0.04-0.7-0.35
		c0-0.18,0.13-0.26,0.35-0.26c0.35,0,1.15-0.04,1.81-0.26c1.1-0.31,1.32-1.58,1.32-5.59l0.04-25.23c0-1.72,0.13-2.2,0.48-2.2
		c0.35,0,1.1,0.97,1.54,1.41c0.66,0.75,7.22,7.84,14,15.1c4.36,4.67,9.16,10.04,10.57,11.49l-0.48-22.37
		c-0.04-2.86-0.35-3.83-1.72-4.18c-0.79-0.18-1.81-0.22-2.16-0.22c-0.31,0-0.35-0.13-0.35-0.31c0-0.26,0.35-0.31,0.88-0.31
		c1.98,0,4.1,0.13,4.58,0.13s1.94-0.13,3.74-0.13c0.48,0,0.79,0.04,0.79,0.31c0,0.18-0.18,0.31-0.48,0.31c-0.22,0-0.53,0-1.06,0.13
		c-1.45,0.31-1.63,1.28-1.63,3.92l-0.09,25.81c0,2.91-0.09,3.13-0.4,3.13c-0.35,0-0.88-0.48-3.21-2.82
		c-0.48-0.44-6.83-6.91-11.49-11.93c-5.11-5.5-10.08-11.05-11.49-12.64L76.77,41.77z"/>
	<path d="M137.54,36.53c0-3.57-0.22-4.05-1.98-4.54c-0.35-0.09-1.1-0.13-1.5-0.13c-0.18,0-0.35-0.09-0.35-0.26
		c0-0.26,0.22-0.35,0.7-0.35c1.98,0,4.76,0.13,4.98,0.13s2.99-0.13,4.32-0.13c0.48,0,0.7,0.09,0.7,0.35c0,0.18-0.18,0.26-0.35,0.26
		c-0.31,0-0.57,0.04-1.1,0.13c-1.19,0.22-1.54,0.97-1.63,2.51c-0.09,1.41-0.09,2.73-0.09,4.58v4.93c0,1.98-0.04,2.07-0.57,2.38
		c-2.82,1.5-6.78,1.98-9.34,1.98c-3.35,0-9.6-0.44-14.49-4.71c-2.69-2.33-5.24-7.05-5.24-12.55c0-7.05,3.44-12.02,7.35-14.49
		c3.96-2.47,8.32-2.77,11.71-2.77c2.77,0,5.9,0.57,6.74,0.75c0.92,0.22,2.47,0.4,3.57,0.44c0.44,0.04,0.53,0.22,0.53,0.4
		c0,0.62-0.31,1.85-0.31,6.25c0,0.7-0.09,0.92-0.4,0.92c-0.22,0-0.26-0.26-0.31-0.66c-0.04-0.62-0.26-1.85-0.92-2.91
		c-1.1-1.67-4.67-3.57-10.35-3.57c-2.77,0-6.08,0.26-9.42,2.91c-2.55,2.03-4.36,6.03-4.36,11.19c0,6.21,3.13,10.7,4.67,12.2
		c3.48,3.39,7.49,4.71,11.54,4.71c1.59,0,3.88-0.26,5.02-0.92c0.57-0.31,0.88-0.79,0.88-1.54V36.53z"/>
	<path d="M168.9,27.24c0-6.87,0-8.1-0.09-9.51c-0.09-1.5-0.44-2.2-1.89-2.51c-0.35-0.09-1.1-0.13-1.5-0.13
		c-0.18,0-0.35-0.09-0.35-0.26c0-0.26,0.22-0.35,0.7-0.35c1.98,0,4.76,0.13,4.98,0.13c1.06,0,2.77-0.13,4.8-0.13
		c7.22,0,8.81,4.4,8.81,6.61c0,3.61-2.07,5.77-4.14,7.93c3.26,1.01,7.62,4.14,7.62,9.29c0,4.71-3.7,9.6-11.23,9.6
		c-0.48,0-1.89-0.09-3.17-0.13c-1.28-0.09-2.51-0.13-2.69-0.13c-0.09,0-0.84,0-1.76,0.04c-0.88,0-1.89,0.09-2.55,0.09
		c-0.48,0-0.7-0.09-0.7-0.35c0-0.13,0.09-0.26,0.35-0.26c0.4,0,0.92-0.09,1.32-0.18c0.88-0.18,1.1-1.15,1.28-2.42
		c0.22-1.85,0.22-5.33,0.22-9.56V27.24z M172.42,28.21c0,0.31,0.09,0.4,0.31,0.48c0.26,0.04,1.06,0.18,2.69,0.18
		c2.47,0,3.08-0.09,4.01-1.14c0.92-1.06,1.58-2.64,1.58-4.45c0-3.66-1.63-7.57-5.94-7.57c-0.48,0-1.41,0.04-2.11,0.22
		c-0.4,0.09-0.53,0.22-0.53,0.49V28.21z M172.42,32.88c0,3.39,0,8.85,0.04,9.51c0.13,2.16,0.13,2.77,1.5,3.43
		c1.19,0.57,3.08,0.66,3.88,0.66c2.38,0,6.21-1.28,6.21-6.25c0-2.64-0.88-6.47-4.27-8.81c-1.5-1.01-2.6-1.15-3.66-1.28
		c-0.57-0.09-2.77-0.09-3.44-0.09c-0.18,0-0.26,0.09-0.26,0.31V32.88z"/>
	<path d="M198.49,27.24c0-6.87,0-8.1-0.09-9.51c-0.09-1.5-0.44-2.2-1.89-2.51c-0.35-0.09-1.1-0.13-1.5-0.13
		c-0.18,0-0.35-0.09-0.35-0.26c0-0.26,0.22-0.35,0.71-0.35c1.01,0,2.2,0,3.17,0.04l1.81,0.09c0.31,0,9.07,0,10.08-0.04
		c0.84-0.04,1.54-0.13,1.89-0.22c0.22-0.04,0.4-0.22,0.62-0.22c0.13,0,0.18,0.18,0.18,0.4c0,0.31-0.22,0.84-0.35,2.07
		c-0.04,0.44-0.13,2.38-0.22,2.91c-0.04,0.22-0.13,0.48-0.31,0.48c-0.26,0-0.35-0.22-0.35-0.57c0-0.31-0.04-1.06-0.26-1.58
		c-0.31-0.71-0.75-1.23-3.13-1.5c-0.75-0.09-5.55-0.13-6.03-0.13c-0.18,0-0.26,0.13-0.26,0.44v12.15c0,0.31,0.04,0.44,0.26,0.44
		c0.57,0,5.99,0,7-0.09c1.06-0.09,1.67-0.18,2.07-0.62c0.31-0.35,0.48-0.57,0.66-0.57c0.13,0,0.22,0.09,0.22,0.35
		c0,0.26-0.22,1.01-0.35,2.47c-0.09,0.88-0.18,2.51-0.18,2.82c0,0.35,0,0.84-0.31,0.84c-0.22,0-0.31-0.18-0.31-0.4
		c0-0.44,0-0.88-0.18-1.45c-0.18-0.62-0.57-1.37-2.29-1.54c-1.19-0.13-5.55-0.22-6.3-0.22c-0.22,0-0.31,0.13-0.31,0.31v3.88
		c0,1.5-0.04,6.61,0,7.53c0.13,3.04,0.79,3.61,5.11,3.61c1.15,0,3.08,0,4.23-0.48c1.14-0.48,1.67-1.37,1.98-3.17
		c0.09-0.48,0.18-0.66,0.4-0.66c0.26,0,0.26,0.35,0.26,0.66c0,0.35-0.35,3.35-0.57,4.27c-0.31,1.15-0.66,1.15-2.38,1.15
		c-3.3,0-5.72-0.09-7.44-0.13c-1.72-0.09-2.77-0.13-3.43-0.13c-0.09,0-0.84,0-1.76,0.04c-0.88,0-1.89,0.09-2.55,0.09
		c-0.48,0-0.7-0.09-0.7-0.35c0-0.13,0.09-0.26,0.35-0.26c0.4,0,0.92-0.09,1.32-0.18c0.88-0.18,1.1-1.15,1.28-2.42
		c0.22-1.85,0.22-5.33,0.22-9.56V27.24z"/>
	<path d="M231.7,15.57c0.53-1.45,0.71-1.72,0.97-1.72c0.27,0,0.44,0.22,0.97,1.58c0.66,1.67,7.57,19.86,10.26,26.55
		c1.58,3.92,2.86,4.62,3.79,4.89c0.66,0.22,1.32,0.26,1.76,0.26c0.26,0,0.44,0.04,0.44,0.26c0,0.26-0.4,0.35-0.88,0.35
		c-0.66,0-3.88,0-6.91-0.09c-0.84-0.04-1.32-0.04-1.32-0.31c0-0.18,0.13-0.26,0.31-0.31c0.26-0.09,0.53-0.48,0.26-1.19l-4.1-10.83
		c-0.09-0.18-0.18-0.26-0.4-0.26h-9.47c-0.22,0-0.35,0.13-0.44,0.35l-2.64,7.79c-0.4,1.1-0.62,2.16-0.62,2.95
		c0,0.88,0.92,1.28,1.67,1.28h0.44c0.31,0,0.44,0.09,0.44,0.26c0,0.26-0.26,0.35-0.66,0.35c-1.06,0-2.95-0.13-3.43-0.13
		s-2.91,0.13-4.98,0.13c-0.57,0-0.84-0.09-0.84-0.35c0-0.18,0.18-0.26,0.4-0.26c0.31,0,0.92-0.04,1.28-0.09
		c2.03-0.26,2.91-1.94,3.7-4.14L231.7,15.57z M236.28,33.19c0.22,0,0.22-0.13,0.18-0.31l-4.18-11.89c-0.22-0.66-0.44-0.66-0.66,0
		l-3.88,11.89c-0.09,0.22,0,0.31,0.13,0.31H236.28z"/>
	<path d="M253.63,27.24c0-6.87,0-8.1-0.09-9.51c-0.09-1.5-0.44-2.2-1.89-2.51c-0.35-0.09-1.1-0.13-1.5-0.13
		c-0.18,0-0.35-0.09-0.35-0.26c0-0.26,0.22-0.35,0.7-0.35c1.98,0,4.67,0.13,5.06,0.13c0.4,0,3.04-0.13,4.36-0.13
		c0.48,0,0.7,0.09,0.7,0.35c0,0.18-0.18,0.26-0.35,0.26c-0.31,0-0.57,0.04-1.1,0.13c-1.19,0.18-1.54,0.97-1.63,2.51
		c-0.09,1.41-0.09,2.64-0.09,9.51v6.17c0,6.34,1.41,9.07,3.3,10.88c2.16,2.03,4.14,2.42,6.65,2.42c2.69,0,5.33-1.28,6.91-3.17
		c2.03-2.51,2.55-6.25,2.55-10.79v-5.5c0-6.87,0-8.1-0.09-9.51c-0.09-1.5-0.44-2.2-1.89-2.51c-0.35-0.09-1.1-0.13-1.5-0.13
		c-0.18,0-0.35-0.09-0.35-0.26c0-0.26,0.22-0.35,0.7-0.35c1.98,0,4.4,0.13,4.67,0.13c0.31,0,2.38-0.13,3.7-0.13
		c0.48,0,0.71,0.09,0.71,0.35c0,0.18-0.18,0.26-0.35,0.26c-0.31,0-0.57,0.04-1.1,0.13c-1.19,0.26-1.54,0.97-1.63,2.51
		c-0.09,1.41-0.09,2.64-0.09,9.51v4.71c0,4.76-0.53,10.04-4.05,13.17c-3.17,2.82-6.47,3.26-9.07,3.26c-1.5,0-5.94-0.18-9.07-3.13
		c-2.16-2.07-3.83-5.15-3.83-11.58V27.24z"/>
	<path d="M302.12,34.99c0,4.23,0,7.71,0.22,9.56c0.13,1.28,0.4,2.25,1.72,2.42c0.62,0.09,1.59,0.18,1.98,0.18
		c0.26,0,0.35,0.13,0.35,0.26c0,0.22-0.22,0.35-0.71,0.35c-2.42,0-5.2-0.13-5.42-0.13s-2.99,0.13-4.32,0.13
		c-0.48,0-0.7-0.09-0.7-0.35c0-0.13,0.09-0.26,0.35-0.26c0.4,0,0.93-0.09,1.32-0.18c0.88-0.18,1.1-1.15,1.28-2.42
		c0.22-1.85,0.22-5.33,0.22-9.56V16.36l-6.52,0.09c-2.73,0.04-3.79,0.35-4.49,1.41c-0.48,0.75-0.62,1.06-0.75,1.37
		c-0.13,0.35-0.26,0.44-0.44,0.44c-0.13,0-0.22-0.13-0.22-0.4c0-0.44,0.88-4.23,0.97-4.58c0.09-0.26,0.26-0.84,0.44-0.84
		c0.31,0,0.75,0.44,1.94,0.53c1.28,0.13,2.95,0.22,3.48,0.22h16.51c1.41,0,2.42-0.09,3.13-0.22c0.66-0.09,1.06-0.22,1.23-0.22
		c0.22,0,0.22,0.26,0.22,0.53c0,1.32-0.13,4.36-0.13,4.84c0,0.4-0.13,0.57-0.31,0.57c-0.22,0-0.31-0.13-0.35-0.75l-0.04-0.48
		c-0.13-1.32-1.19-2.33-5.42-2.42l-5.55-0.09V34.99z"/>
	<path d="M329.02,36.36c0-2.38-0.44-3.35-1.01-4.62c-0.31-0.7-6.21-10.39-7.75-12.68c-1.1-1.63-2.2-2.73-3-3.26
		c-0.66-0.44-1.5-0.7-1.89-0.7c-0.22,0-0.44-0.09-0.44-0.31c0-0.18,0.18-0.31,0.57-0.31c0.84,0,4.14,0.13,4.36,0.13
		c0.31,0,1.98-0.13,3.7-0.13c0.48,0,0.57,0.13,0.57,0.31s-0.26,0.22-0.66,0.4c-0.35,0.18-0.57,0.44-0.57,0.79
		c0,0.53,0.22,1.06,0.57,1.72c0.7,1.28,7.31,12.64,8.1,13.92c0.84-1.85,6.43-11.49,7.31-12.95c0.57-0.92,0.75-1.67,0.75-2.25
		c0-0.62-0.18-1.1-0.71-1.23c-0.4-0.13-0.66-0.22-0.66-0.44c0-0.18,0.26-0.26,0.71-0.26c1.14,0,2.55,0.13,2.91,0.13
		c0.26,0,3.44-0.13,4.27-0.13c0.31,0,0.57,0.09,0.57,0.26c0,0.22-0.22,0.35-0.57,0.35c-0.48,0-1.32,0.18-2.03,0.62
		c-0.88,0.53-1.37,1.06-2.33,2.25c-1.45,1.76-7.62,12.11-8.41,14c-0.66,1.58-0.66,2.95-0.66,4.4v3.79c0,0.71,0,2.55,0.13,4.4
		c0.09,1.28,0.48,2.25,1.8,2.42c0.62,0.09,1.59,0.18,1.98,0.18c0.26,0,0.35,0.13,0.35,0.26c0,0.22-0.22,0.35-0.7,0.35
		c-2.42,0-5.2-0.13-5.42-0.13c-0.22,0-2.99,0.13-4.31,0.13c-0.48,0-0.71-0.09-0.71-0.35c0-0.13,0.09-0.26,0.35-0.26
		c0.4,0,0.93-0.09,1.32-0.18c0.88-0.18,1.28-1.15,1.37-2.42c0.13-1.85,0.13-3.7,0.13-4.4V36.36z"/>
</g>
</svg>
