<?xml version="1.0" encoding="utf-8"?>
<!-- Generator: Adobe Illustrator 24.1.0, SVG Export Plug-In . SVG Version: 6.00 Build 0)  -->
<svg version="1.1" id="レイヤー_1" xmlns="http://www.w3.org/2000/svg" xmlns:xlink="http://www.w3.org/1999/xlink" x="0px"
	 y="0px" viewBox="0 0 258.03 229.81" style="enable-background:new 0 0 258.03 229.81;" xml:space="preserve">
<style type="text/css">
	.st0{fill:#60269E;}
	.st1{fill:#FFFFFF;}
</style>
<polygon class="st0" points="258.03,0 28.22,0 0,229.81 229.82,229.81 "/>
<g>
	<path class="st1" d="M91.23,30.89c-0.21,0.29-0.47,0.52-0.83,0.64c-7.27,21.95-20.22,34.98-39.98,41.64
		c-0.52-0.99-1.6-2.55-2.25-3.36c18.67-5.85,31.26-18.76,36.9-36.31H47.19l0.47-3.88h39.39l0.88-0.52L91.23,30.89z"/>
	<path class="st1" d="M107.72,67.32c15.22-4.11,27.79-11.18,36.46-23.8c0.63,0.98,1.93,2.2,2.71,2.9
		c-9.46,13.32-23.33,21.08-41.32,25.66c-0.17,0.46-0.58,0.99-1.07,1.16l-1.94-4.06l0.83-1.1l5.24-42.68l5.93,0.29
		c-0.14,0.64-0.72,1.16-1.89,1.28L107.72,67.32z"/>
	<path class="st1" d="M158.68,45.66h48.36l-0.5,4.11h-46.16c-0.42,0.58-1.22,0.98-1.99,1.1L158.68,45.66z"/>
	<path class="st1" d="M220.05,70.73l0.71-5.8h5.85l-0.71,5.8H220.05z M222.64,60.44l1.14-21.97l1.13-9.19h6.31l-1.13,9.19
		l-4.17,21.97H222.64z"/>
	<path class="st1" d="M83.2,96.4c-0.21,0.29-0.47,0.52-0.83,0.64c-7.27,21.95-20.22,34.98-39.98,41.64
		c-0.52-0.98-1.6-2.55-2.25-3.36C58.8,129.47,71.39,116.55,77.03,99H39.14l0.48-3.88h39.39l0.88-0.52L83.2,96.4z"/>
	<path class="st1" d="M99.68,132.83c15.22-4.11,27.79-11.18,36.46-23.8c0.63,0.99,1.93,2.2,2.71,2.9
		c-9.46,13.32-23.32,21.08-41.32,25.66c-0.17,0.46-0.58,0.98-1.07,1.16l-1.94-4.06l0.83-1.1l5.24-42.68l5.93,0.29
		c-0.14,0.64-0.72,1.16-1.89,1.28L99.68,132.83z"/>
	<path class="st1" d="M150.64,111.17h48.36l-0.51,4.11h-46.16c-0.42,0.58-1.22,0.99-1.99,1.1L150.64,111.17z"/>
	<path class="st1" d="M212.01,136.24l0.71-5.8h5.85l-0.71,5.8H212.01z M214.6,125.95l1.14-21.97l1.13-9.19h6.31l-1.13,9.19
		l-4.17,21.97H214.6z"/>
	<g>
		<path class="st1" d="M40.98,203.29c-2.73,0-5.12-0.35-7.09-1.04c-1.96-0.69-4.25-1.96-6.83-3.79c-0.36-0.22-0.59-0.34-0.73-0.42
			c-0.12,0.1-0.31,0.3-0.6,0.64l-0.56,0.66l-1.75-1.52l5.18-8.57l1.89,1.46l-0.31,0.63c-0.49,0.96-0.54,1.23-0.54,1.26
			c-0.01-0.03,0.05,0.48,2.24,2.01c1.54,1.08,3.07,1.88,4.55,2.35c1.47,0.47,3.14,0.71,4.96,0.71c3.63,0,6.54-0.99,8.62-2.93
			c1.37-1.27,2.13-2.74,2.35-4.49c0.27-2.18-0.46-3.57-2.28-4.38c-0.62-0.29-1.27-0.47-1.95-0.54c-0.53-0.06-2.12-0.17-6.61-0.38
			c-2.71-0.14-4.75-0.39-6.26-0.77c-1.55-0.39-2.92-1.03-4.08-1.92c-1.12-0.86-1.96-2.07-2.48-3.59c-0.51-1.48-0.66-3.11-0.44-4.85
			c0.36-2.93,1.56-5.47,3.58-7.58c1.48-1.53,3.44-2.74,5.81-3.62c2.35-0.86,4.88-1.29,7.54-1.29l0,0c2.16,0,4.17,0.27,5.99,0.81
			c1.81,0.54,3.81,1.46,5.96,2.75c0.18,0.1,0.31,0.17,0.4,0.21c0.12-0.11,0.32-0.32,0.63-0.74l0.48-0.65l1.92,1.3l-5.04,8.87
			l-1.91-1.39l0.27-0.62c0.46-1.07,0.52-1.33,0.53-1.37l0,0c0,0-0.04-0.36-1.08-1.02c-2.7-1.69-5.73-2.54-9-2.54
			c-2.67,0-5.09,0.62-7.2,1.85c-0.97,0.58-1.79,1.33-2.43,2.25c-0.63,0.9-1.01,1.87-1.14,2.86c-0.1,0.8,0,1.54,0.3,2.25
			c0.29,0.68,0.69,1.16,1.24,1.49c0.67,0.42,1.51,0.71,2.51,0.87c1.06,0.17,2.86,0.31,5.34,0.4c3.51,0.13,6.07,0.34,7.6,0.63
			c1.61,0.3,2.93,0.84,3.92,1.6c2.62,1.99,3.71,5.02,3.22,9.01c-0.46,3.71-2.1,6.8-4.89,9.17
			C49.73,201.95,45.75,203.29,40.98,203.29z"/>
	</g>
	<g>
		<path class="st1" d="M94.59,202.6h-9.15l0.31-2.49l0.63-0.1c0.74-0.12,0.77-0.39,0.79-0.52c0-0.03,0.03-0.33-0.27-1.45l-1.55-6.34
			H69.78l-3.43,6.9c-0.43,0.88-0.48,1.16-0.49,1.21c0.02,0.01,0.15,0.12,0.56,0.21l0.76,0.17l-0.3,2.43h-8.7l0.3-2.47l0.6-0.12
			c0.46-0.1,0.81-0.29,1.07-0.58c0.23-0.26,0.68-0.94,1.52-2.66l15.25-30.73c0.45-0.91,0.51-1.19,0.51-1.23
			c-0.01,0-0.12-0.1-0.42-0.2l-0.65-0.22l0.29-2.35h9.33l-0.29,2.38l-0.48,0.18c-0.49,0.19-0.72,0.39-0.73,0.5c0,0,0,0.23,0.22,1.11
			l7.36,29.62c0.73,2.94,0.99,3.52,1.05,3.63c0.01,0.01,0.17,0.28,1.1,0.57l0.67,0.21L94.59,202.6z M72.4,186.29h11.66l-3.88-15.88
			L72.4,186.29z"/>
	</g>
	<g>
		<path class="st1" d="M128.95,204.43h-2.28l-0.06-0.79c-0.05-0.73-0.19-0.92-0.2-0.93c0,0,0.11-0.11-0.71-0.11H99.66l0.29-2.41
			l0.53-0.16c0.59-0.18,0.78-0.38,0.84-0.45c0.06-0.09,0.23-0.4,0.34-1.29l3.95-32.15c0.12-0.93,0-1.18-0.01-1.19
			c-0.01-0.02-0.1-0.18-0.59-0.34l-0.66-0.22l0.29-2.35h8.25l-0.3,2.41l-0.52,0.16c-0.56,0.17-0.76,0.36-0.83,0.46
			c-0.07,0.1-0.24,0.4-0.35,1.28l-3.79,30.85h19.05c0.61,0,0.81-0.13,0.86-0.17c0.07-0.05,0.28-0.28,0.52-1.05l0.19-0.6h2.32
			L128.95,204.43z"/>
	</g>
	<g>
		<path class="st1" d="M151.32,203.29c-5.73,0-10.21-1.92-13.29-5.7c-1.71-2.11-2.91-4.7-3.54-7.68c-0.51-2.44-0.6-5.03-0.27-7.71
			c0.49-3.96,1.82-7.66,3.96-11.01c2.35-3.63,5.41-6.32,9.11-8c2.58-1.16,5.58-1.78,8.91-1.84c5.78,0,10.27,1.91,13.37,5.69
			c1.73,2.09,2.93,4.67,3.54,7.69c0.51,2.45,0.59,5.12,0.24,7.93c-0.47,3.81-1.8,7.43-3.96,10.76c-2.38,3.69-5.45,6.39-9.09,8.03
			C157.58,202.67,154.56,203.29,151.32,203.29z M155.73,166.95c-4.43,0-8.18,1.56-11.14,4.64c-2.74,2.85-4.39,6.49-4.92,10.82
			c-0.53,4.31,0.22,7.93,2.22,10.73c2.17,3.06,5.41,4.54,9.91,4.54c4.5,0,8.28-1.56,11.24-4.64c2.72-2.85,4.36-6.42,4.87-10.62
			c0.56-4.52-0.17-8.2-2.17-10.93c-1.19-1.62-2.54-2.76-4.02-3.4C160.03,167.36,158.02,166.97,155.73,166.95z"/>
	</g>
	<g>
		<path class="st1" d="M212,202.6h-8.95l0.29-2.41l0.52-0.16c0.58-0.18,0.6-0.38,0.61-0.46c0-0.01,0.03-0.37-0.61-1.53l-15.81-27.59
			l-3.45,28.05c-0.11,0.9,0,1.16,0.02,1.19c0.04,0.09,0.22,0.23,0.59,0.35l0.65,0.22l-0.29,2.34h-7.93l0.29-2.41l0.53-0.16
			c0.6-0.18,0.79-0.38,0.84-0.45c0.06-0.09,0.23-0.4,0.34-1.29l3.95-32.15c0.12-0.92,0-1.19-0.01-1.22
			c-0.03-0.06-0.18-0.19-0.55-0.3l-0.69-0.21l0.29-2.37h10.72l-0.29,2.37l-0.47,0.19c-0.3,0.12-0.67,0.32-0.71,0.59
			c0,0,0.01,0.37,0.71,1.61l14.25,25.15l3.17-25.81c0.12-0.92,0-1.19-0.01-1.22c-0.03-0.06-0.18-0.19-0.55-0.3l-0.69-0.21l0.29-2.37
			h7.94l-0.3,2.43l-0.55,0.15c-0.53,0.15-0.73,0.34-0.8,0.43c-0.07,0.1-0.24,0.41-0.35,1.3l-3.95,32.15
			c-0.11,0.93,0.01,1.19,0.01,1.2c0.03,0.06,0.19,0.21,0.59,0.34l0.65,0.22L212,202.6z"/>
	</g>
</g>
</svg>
