<?xml version="1.0" encoding="utf-8"?>
<!-- Generator: Adobe Illustrator 24.2.1, SVG Export Plug-In . SVG Version: 6.00 Build 0)  -->
<svg version="1.1" id="レイヤー_1" xmlns="http://www.w3.org/2000/svg" xmlns:xlink="http://www.w3.org/1999/xlink" x="0px"
	 y="0px" viewBox="0 0 625 185" style="enable-background:new 0 0 625 185;" xml:space="preserve">
<style type="text/css">
	.st0{fill:#FFFFFF;}
</style>
<g>
	<path class="st0" d="M-0.41,156.91l0.29-0.83c2.01,0.15,4.01,0.39,6.56,0.98c3.47,0.83,6.85,2.79,6.85,5.77
		c0,1.17-0.59,2.69-2.59,2.69c-2.35,0-3.28-2.15-5.58-4.16C2.87,159.21,1.11,157.79-0.41,156.91z M38.69,153.53l0.88,0.59
		c-4.89,9.93-15.95,19.97-26.62,26.28c-1.61,0.93-2.25,2.54-3.91,2.54c-2.1,0-5.38-2.2-6.8-4.4c-0.83-1.27-1.17-3.57-1.22-4.89
		l0.64-0.34c1.08,1.13,2.69,3.03,4.6,3.03C11.88,176.34,30.37,163.66,38.69,153.53z M5.81,146.68l0.29-0.88
		c1.91,0.2,4.21,0.34,7.29,1.13c3.03,0.78,5.87,2.3,5.87,5.43c0,1.32-1.03,2.59-2.4,2.59c-2.35,0-3.23-1.91-5.82-4.26
		C9.14,148.98,7.37,147.61,5.81,146.68z"/>
	<path class="st0" d="M59.3,154.71c1.17-0.54,2.2-1.08,3.87-1.08c1.71,0,5.43,0.83,5.43,2.15c0,0.93-0.34,2.1-0.25,3.13
		c0.05,0.64,0.2,1.86,0.44,3.13c3.38-0.88,7.83-2.15,9.05-2.5c0.93-0.34,1.81-1.22,2.45-1.22c1.81,0,5.43,3.03,5.43,4.94
		c0,1.08-1.86,1.13-2.54,1.71c-1.91,1.66-5.04,4.65-8.86,6.7l-0.49-0.39c2.01-2.84,3.77-6.41,4.45-8.22c0.2-0.49,0-0.59-0.54-0.49
		c-1.52,0.34-4.99,1.42-8.37,2.45c1.27,5.04,2.74,10.47,3.52,13.16c0.34,1.08,1.03,2.99,1.03,4.16c0,1.57-0.69,2.35-2.2,2.35
		c-2.15,0-3.62-1.81-3.77-4.11c-0.29-3.13-1.37-9.35-2.64-14.34c-1.57,0.49-3.08,1.13-3.92,1.47c-1.81,0.78-2.54,1.86-3.57,1.86
		c-1.66,0-3.67-1.91-4.21-3.23c-0.25-0.69-0.25-1.86-0.15-2.84l0.39-0.15c0.88,0.69,1.47,1.32,2.84,1.32c1.27,0,4.65-0.83,7.83-1.57
		c-0.69-2.4-1.37-4.75-1.91-5.82c-0.49-0.93-1.76-1.61-3.28-2.1L59.3,154.71z"/>
	<path class="st0" d="M105.05,147.37c6.75,0.78,14.78,3.67,14.78,8.71c0,1.76-1.27,3.28-3.18,3.28c-1.71,0-2.84-1.27-4.11-2.94
		c-2.15-2.99-3.23-4.7-7.93-8.27L105.05,147.37z M141.41,152.21l0.88,0.59c-5.53,10.72-14.44,19.33-25.79,26.28
		c-1.57,0.98-2.2,2.59-3.62,2.59c-2.79,0-6.21-2.89-7.19-4.84c-0.59-1.13-1.08-3.03-1.08-4.45l0.69-0.44
		c1.17,1.17,2.89,3.03,4.65,3.03C115.23,174.97,134.36,161.66,141.41,152.21z"/>
	<path class="st0" d="M159.18,151.23c3.92,0,16.25-1.32,18.89-1.91c2.01-0.44,2.1-1.22,3.47-1.22c2.25,0,7.39,4.5,7.39,6.26
		c0,1.61-1.81,2.15-2.59,3.72c-5.87,11.94-14.83,21.19-30.68,26.33l-0.59-0.98c13.36-7,23.1-19.04,25.45-29.75
		c0.1-0.44-0.1-0.59-0.44-0.59c-3.28,0-14.09,2.3-16.88,3.03c-1.13,0.29-2.35,1.27-3.47,1.27c-2.2,0-4.84-3.23-5.33-5.04
		c-0.29-1.22-0.29-2.1-0.29-3.43l0.69-0.29C156.14,150.01,157.36,151.23,159.18,151.23z M185.45,145.75c0-2.98,2.4-5.38,5.38-5.38
		c3.03,0,5.43,2.4,5.43,5.38c0,3.03-2.4,5.43-5.43,5.43C187.85,151.19,185.45,148.79,185.45,145.75z M187.46,145.75
		c0,1.91,1.52,3.43,3.38,3.43c1.91,0,3.43-1.52,3.43-3.43c0-1.86-1.52-3.38-3.43-3.38C188.98,142.38,187.46,143.89,187.46,145.75z"
		/>
	<path class="st0" d="M203.9,159.26c1.47,1.96,2.3,3.28,4.89,3.28c5.24,0,20.01-0.98,23-1.22c3.28-0.29,5.48-0.69,6.66-0.69
		c2.94,0,5.48,1.52,5.48,3.62c0,1.42-1.17,2.1-3.23,2.1c-1.96,0-3.67-0.15-7.1-0.15c-3.72,0-14.68,0.69-18.45,1.13
		c-3.52,0.34-4.26,1.52-6.12,1.52c-1.91,0-4.94-3.18-5.82-5.58c-0.44-1.13-0.29-2.54-0.15-3.72L203.9,159.26z"/>
	<path class="st0" d="M262.53,168.65c-2.98,0-5.43-2.45-5.43-5.43c0-2.99,2.45-5.43,5.43-5.43c2.99,0,5.43,2.45,5.43,5.43
		C267.96,166.21,265.51,168.65,262.53,168.65z"/>
	<path class="st0" d="M291.3,144.58c1.37-0.64,3.08-1.42,4.55-1.37c2.4,0.05,6.7,2.35,6.7,3.96c0,1.42-1.08,1.91-1.32,3.72
		c-0.29,1.91-0.39,4.55-0.44,7.39c4.89,0.54,9.44,1.86,12.19,3.47c2.15,1.27,3.57,2.74,3.57,5.33c0,1.57-1.08,2.98-2.84,2.98
		c-3.13,0-3.33-2.69-7.1-6.17c-1.52-1.27-3.28-2.45-5.87-3.67c-0.15,5.19-0.1,11.45,0.05,15.66c0.1,2.5,0.2,4.16,0.2,4.84
		c0,2.54-0.54,3.57-2.5,3.57c-2.54,0-3.91-2.64-3.91-6.26c0-1.32,0.44-2.45,0.69-4.6c0.39-3.67,0.44-10.23,0.44-13.16
		c0-4.06-0.15-10.23-0.54-12.43c-0.29-1.61-1.81-2.15-3.82-2.5L291.3,144.58z"/>
	<path class="st0" d="M339.02,147.81v-0.78c1.22-0.59,2.64-1.13,3.92-1.13c2.15,0,6.66,2.45,6.66,4.21c0,1.27-1.08,2.01-1.17,4.01
		c-0.15,2.1-0.1,10.72-0.1,14.04c0,2.59-0.98,3.67-2.64,3.67c-1.61,0-3.18-2.45-3.18-5.33c0-1.22,0.69-2.64,0.69-6.02
		c0-2.4,0-7.58-0.29-9.59c-0.1-0.98-0.34-1.37-1.08-1.81C341.12,148.64,340.09,148.2,339.02,147.81z M344.99,185.15l-0.54-0.88
		c9.3-5.09,14.19-11.5,14.93-21.19c0.34-3.67,0.29-10.28,0.1-13.07c-0.05-1.13-0.15-1.66-1.08-2.2c-0.73-0.49-1.81-0.78-2.94-1.13
		l-0.05-0.78c1.32-0.98,3.33-2.1,4.6-2.1c2.06,0,6.41,2.45,6.41,3.91c0,1.27-0.98,1.81-1.08,3.28c-0.15,2.84-0.44,9.1-0.59,12.09
		C364.07,174.77,357.07,181.67,344.99,185.15z"/>
	<path class="st0" d="M384.97,159.26c1.47,1.96,2.3,3.28,4.89,3.28c5.24,0,20.01-0.98,23-1.22c3.28-0.29,5.48-0.69,6.65-0.69
		c2.94,0,5.48,1.52,5.48,3.62c0,1.42-1.17,2.1-3.23,2.1c-1.96,0-3.67-0.15-7.09-0.15c-3.72,0-14.68,0.69-18.45,1.13
		c-3.52,0.34-4.26,1.52-6.12,1.52c-1.91,0-4.94-3.18-5.82-5.58c-0.44-1.13-0.29-2.54-0.15-3.72L384.97,159.26z"/>
	<path class="st0" d="M445.45,144.58c1.37-0.64,3.08-1.42,4.55-1.37c2.4,0.05,6.7,2.35,6.7,3.96c0,1.42-1.08,1.91-1.32,3.72
		c-0.29,1.91-0.39,4.55-0.44,7.39c4.89,0.54,9.44,1.86,12.18,3.47c2.15,1.27,3.57,2.74,3.57,5.33c0,1.57-1.08,2.98-2.84,2.98
		c-3.13,0-3.33-2.69-7.1-6.17c-1.52-1.27-3.28-2.45-5.87-3.67c-0.15,5.19-0.1,11.45,0.05,15.66c0.1,2.5,0.2,4.16,0.2,4.84
		c0,2.54-0.54,3.57-2.5,3.57c-2.54,0-3.92-2.64-3.92-6.26c0-1.32,0.44-2.45,0.68-4.6c0.39-3.67,0.44-10.23,0.44-13.16
		c0-4.06-0.15-10.23-0.54-12.43c-0.29-1.61-1.81-2.15-3.82-2.5L445.45,144.58z"/>
	<path class="st0" d="M511.27,144.43c1.57,0.05,3.52,0.05,5.09,0.64c2.45,0.98,5.33,3.43,5.33,5.43c0,1.17-1.32,1.37-2.3,2.94
		c-1.03,1.76-3.28,5.63-5.82,9.2c3.82,2.64,7.63,6.46,7.73,9.79c0.05,2.2-1.37,3.38-3.13,3.38c-2.79,0-3.62-3.67-8.32-8.47
		c-5.48,6.21-13.12,12.43-23.24,15.81l-0.54-0.88c8.47-5.09,15.22-12.04,20.06-18.35c-2.54-2.2-6.31-5.19-11.5-8.32l0.54-0.98
		c5.87,1.61,10.42,3.52,13.85,5.33c3.13-4.84,5.19-9.49,5.19-11.01c0-1.57-1.57-2.69-3.23-3.72L511.27,144.43z"/>
	<path class="st0" d="M543.03,147.37c6.75,0.78,14.78,3.67,14.78,8.71c0,1.76-1.27,3.28-3.18,3.28c-1.71,0-2.84-1.27-4.11-2.94
		c-2.15-2.99-3.23-4.7-7.93-8.27L543.03,147.37z M579.39,152.21l0.88,0.59c-5.53,10.72-14.44,19.33-25.79,26.28
		c-1.57,0.98-2.2,2.59-3.62,2.59c-2.79,0-6.21-2.89-7.19-4.84c-0.59-1.13-1.08-3.03-1.08-4.45l0.68-0.44
		c1.17,1.17,2.89,3.03,4.65,3.03C553.21,174.97,572.35,161.66,579.39,152.21z"/>
	<path class="st0" d="M599.6,144.58c1.37-0.64,3.08-1.42,4.55-1.37c2.4,0.05,6.7,2.35,6.7,3.96c0,1.42-1.08,1.91-1.32,3.72
		c-0.29,1.91-0.39,4.55-0.44,7.39c4.89,0.54,9.44,1.86,12.18,3.47c2.15,1.27,3.57,2.74,3.57,5.33c0,1.57-1.08,2.98-2.84,2.98
		c-3.13,0-3.33-2.69-7.1-6.17c-1.52-1.27-3.28-2.45-5.87-3.67c-0.15,5.19-0.1,11.45,0.05,15.66c0.1,2.5,0.2,4.16,0.2,4.84
		c0,2.54-0.54,3.57-2.5,3.57c-2.54,0-3.92-2.64-3.92-6.26c0-1.32,0.44-2.45,0.68-4.6c0.39-3.67,0.44-10.23,0.44-13.16
		c0-4.06-0.15-10.23-0.54-12.43c-0.29-1.61-1.81-2.15-3.82-2.5L599.6,144.58z"/>
</g>
<g>
	<path class="st0" d="M218.99,0.88h-46.26c-0.18,0-0.36,0.18-0.36,0.38l-0.53,10.83h0.38c0.43-1.83,0.87-3.34,1.35-4.52
		c0.6-1.45,1.39-2.6,2.41-3.37c1.01-0.76,2.24-1.17,3.64-1.28c1.29-0.12,2.9-0.17,4.82-0.17h6.07c0.31,0,0.6,0.04,0.87,0.12
		c0.3,0.09,0.58,0.26,0.81,0.48c0.24,0.25,0.41,0.58,0.51,0.91c0.11,0.38,0.14,0.8,0.14,1.27v48.71c0,0.19,0.15,0.35,0.32,0.37
		c1.96-0.02,3.87-0.19,5.74-0.5V6.68V5.53c0-0.47,0.04-0.9,0.15-1.27c0.11-0.33,0.26-0.66,0.51-0.91c0.23-0.23,0.51-0.39,0.81-0.48
		c0.27-0.08,0.56-0.12,0.87-0.12h6.06c1.93,0,3.53,0.06,4.83,0.17c1.38,0.12,2.62,0.52,3.63,1.28c1.03,0.77,1.82,1.92,2.42,3.37
		c0.49,1.18,0.92,2.69,1.35,4.52h0.38l-0.53-10.83C219.36,1.06,219.19,0.88,218.99,0.88 M324.15-0.35c-0.13,0-0.61,0.03-1.32,0.09
		c-0.72,0.07-1.63,0.15-2.73,0.27c-1.07,0.13-2.33,0.3-3.75,0.53c-1.11,0.16-2.28,0.37-3.5,0.6l0.04,0.4
		c0.33-0.03,0.66-0.03,0.99-0.03c0.6,0,1.17,0.07,1.72,0.22c0.59,0.17,1.11,0.49,1.56,0.94c0.47,0.47,0.78,1.1,0.98,1.77
		c0.21,0.73,0.28,2.07,0.29,3.03v46.76c0,0.19,0.15,0.35,0.32,0.37c1.95-0.02,3.87-0.19,5.74-0.5V0.03
		C324.49-0.18,324.34-0.35,324.15-0.35 M332.47,22.9l22.11-22.23c-0.16,0-0.34,0.01-0.55,0.01c-0.47,0.02-1,0.04-1.56,0.07
		c-0.55,0.04-1.09,0.08-1.61,0.16c-0.52,0.07-0.95,0.17-1.31,0.27c-0.56,0.17-1.04,0.49-1.54,1.06l-21.03,23.52l22.29,29.12
		c0.23,0.29,0.32,0.34,0.77,0.38c0.19,0,0.6-0.02,1.23-0.02c0.62-0.02,1.31-0.06,2.08-0.09c0.76-0.06,1.53-0.11,2.29-0.19
		c0.67-0.07,1.23-0.14,1.63-0.2L332.54,23L332.47,22.9z M390.39-0.35c-0.13,0-0.61,0.03-1.32,0.09c-0.73,0.07-1.63,0.15-2.73,0.27
		c-1.08,0.13-2.33,0.3-3.75,0.53c-1.11,0.16-2.28,0.37-3.5,0.6l0.04,0.4c0.33-0.03,0.66-0.03,0.99-0.03c0.61,0,1.18,0.07,1.72,0.22
		c0.59,0.17,1.12,0.49,1.56,0.94c0.47,0.47,0.78,1.1,0.98,1.77c0.21,0.71,0.29,1.54,0.31,2.49l-0.01,47.3
		c0,0.19,0.15,0.35,0.32,0.37c1.95-0.02,3.86-0.19,5.74-0.5V0.03C390.74-0.18,390.58-0.35,390.39-0.35 M264.87,0.3
		c-15.52,0-23.89,12.32-23.89,27.52c0,15.2,8.36,27.52,23.89,27.52c15.51,0,23.88-12.32,23.88-27.52
		C288.76,12.63,280.39,0.3,264.87,0.3 M265.67,53.63c-10.96,0.43-17.76-10.88-18.2-25.13c-0.45-14.25,5.64-26.06,16.6-26.49
		c10.95-0.43,17.75,10.88,18.19,25.13C282.72,41.4,276.64,53.2,265.67,53.63 M442.17,0.3c-15.52,0-23.88,12.32-23.88,27.52
		c0,15.2,8.36,27.52,23.88,27.52c15.52,0,23.89-12.32,23.89-27.52C466.06,12.63,457.69,0.3,442.17,0.3 M442.97,53.63
		c-10.95,0.43-17.75-10.88-18.2-25.13c-0.44-14.25,5.65-26.06,16.6-26.49c10.95-0.43,17.75,10.88,18.2,25.13
		C460.01,41.4,453.93,53.2,442.97,53.63"/>
	<g>
		<path class="st0" d="M238.55,112.02c0.21-2.92,0.25-5.1,0.25-5.18V90.82c-4.32,2.71-8.51,4.97-17.22,7.07l-0.7-1.81
			c11.1-2.63,19.57-7.73,27.75-18.83l2.84,1.81c0.08,0.08,0.45,0.33,0.45,0.57c0,0.17-0.12,0.29-0.49,0.37
			c-0.45,0.16-0.62,0.28-0.86,0.49c-3.7,4.07-5.88,6-8.8,8.26v17.92c0,1.27,0.17,4.28,0.25,5.34H238.55z"/>
		<path class="st0" d="M264.29,108.12c2.09-0.29,5.1-0.7,9.08-2.14c3.78-1.36,7.32-3.25,10.52-5.63c6.78-5.1,9.29-10.45,10.57-13.16
			l1.52,1.19c-2.1,4.44-7.28,15.62-23.52,21.18c-1.03,0.37-5.92,1.69-6.5,2.1L264.29,108.12z M276.5,90.23
			c-3.66-4.64-6.33-6.58-11.27-8.22l1.19-1.73c5.43,1.64,9.21,3.86,12.95,6.78L276.5,90.23z"/>
		<path class="st0" d="M305.94,85.8c2.22,0.24,5.06,0.37,6.33,0.37h6.5c0.08-1.15,0.08-2.43,0.08-3.58c0-0.94,0-2.87-0.29-5.47
			l3.21,0.24c0.5,0.04,1.11,0.08,1.11,0.41c0,0.12,0,0.25-0.29,0.62c-0.32,0.37-0.37,0.53-0.41,0.82c0,1.94-0.04,4.15-0.25,6.95
			h7.56c1.32,0,5.35-0.17,7.61-0.41c-0.2,1.93-0.2,3.45-0.2,3.45c-0.04,3.82-0.12,9.21-1.48,14.8c-1.27,5.22-2.76,7.15-4.44,7.15
			c-1.03,0-3.04-0.86-7.52-3.13l0.86-1.69c1.64,0.82,4.2,2.05,5.35,2.05c1.23,0,1.93-2.3,2.18-3.21c1.77-6,1.89-11.43,1.94-17.14
			h-12.01c-0.82,7.69-2.22,12.29-6.01,16.65c-3.58,4.15-6.9,5.34-10.85,6.62l-0.74-1.93c3.16-0.25,5.88-2.22,7.28-3.5
			c6.08-5.59,6.82-13.44,7.24-17.84h-6.41c-1.73,0-4.89,0.2-6.33,0.37V85.8z"/>
		<path class="st0" d="M354.5,108.61c2.3-0.08,6.17-0.24,10.82-2.71c3.41-1.81,5.83-4.81,7.27-7.36c1.89-3.37,2.88-8.02,2.88-8.1
			c0-0.25-0.21-0.25-0.33-0.25h-20.85c-1.52,0-4.36,0.16-6.37,0.37v-2.63c1.93,0.21,5.06,0.37,6.37,0.37h17.6
			c0.49,0,3.86-0.2,5.51-0.54l1.85,1.89c-0.08,0.17-0.12,0.25-0.2,0.41c-0.25,0.54-1.32,4.2-1.6,4.98
			c-4.89,14.02-16.81,15.01-22.61,15.46L354.5,108.61z M352.56,79.39c2.18,0.25,5.26,0.37,6.37,0.37h9.66c1.44,0,4.6-0.17,6.37-0.37
			v2.63c-2.22-0.25-5.1-0.37-6.37-0.37h-9.66c-1.48,0-4.4,0.16-6.37,0.37V79.39z"/>
		<path class="st0" d="M415.46,110.6c-1.81-1.27-5.31-3.66-11.51-5.76c-6.25-2.14-11.26-2.67-13.89-2.92l0.33-1.77
			c8.76,0.58,18.38,2.88,26.64,7.23L415.46,110.6z M412.75,85.57c-6.37-2.47-11.76-3.29-20.22-3.33l0.12-1.85
			c9.41,0.04,14.19,0.49,21.21,1.98L412.75,85.57z M411.51,96.58c-7.77-3.99-15.05-4.69-17.92-4.97l0.25-1.77
			c5.47,0.28,13.15,1.77,18.79,3.61L411.51,96.58z"/>
	</g>
</g>
</svg>
