<?xml version="1.0" encoding="utf-8"?>
<!-- Generator: Adobe Illustrator 24.2.1, SVG Export Plug-In . SVG Version: 6.00 Build 0)  -->
<svg version="1.1" id="レイヤー_1" xmlns="http://www.w3.org/2000/svg" xmlns:xlink="http://www.w3.org/1999/xlink" x="0px"
	 y="0px" viewBox="0 0 300 115" style="enable-background:new 0 0 300 115;" xml:space="preserve">
<style type="text/css">
	.st0{fill:#FFFFFF;}
</style>
<g>
	<path class="st0" d="M50.3,2.6H4C3.9,2.6,3.7,2.8,3.7,3L3.1,13.8h0.4c0.4-1.8,0.9-3.3,1.3-4.5c0.6-1.4,1.4-2.6,2.4-3.4
		c1-0.8,2.2-1.2,3.6-1.3c1.3-0.1,2.9-0.2,4.8-0.2h6.1c0.3,0,0.6,0,0.9,0.1c0.3,0.1,0.6,0.3,0.8,0.5C23.7,5.3,23.9,5.6,24,6
		c0.1,0.4,0.1,0.8,0.1,1.3V56c0,0.2,0.1,0.3,0.3,0.4c2,0,3.9-0.2,5.7-0.5V8.4V7.2c0-0.5,0-0.9,0.1-1.3c0.1-0.3,0.3-0.7,0.5-0.9
		c0.2-0.2,0.5-0.4,0.8-0.5c0.3-0.1,0.6-0.1,0.9-0.1h6.1c1.9,0,3.5,0.1,4.8,0.2C44.8,4.8,46,5.2,47,5.9c1,0.8,1.8,1.9,2.4,3.4
		c0.5,1.2,0.9,2.7,1.3,4.5h0.4L50.7,3C50.7,2.8,50.5,2.6,50.3,2.6 M155.4,1.4c-0.1,0-0.6,0-1.3,0.1c-0.7,0.1-1.6,0.1-2.7,0.3
		c-1.1,0.1-2.3,0.3-3.8,0.5c-1.1,0.2-2.3,0.4-3.5,0.6l0,0.4c0.3,0,0.7,0,1,0c0.6,0,1.2,0.1,1.7,0.2c0.6,0.2,1.1,0.5,1.6,0.9
		c0.5,0.5,0.8,1.1,1,1.8c0.2,0.7,0.3,2.1,0.3,3v46.8c0,0.2,0.1,0.3,0.3,0.4c1.9,0,3.9-0.2,5.7-0.5V1.7
		C155.8,1.5,155.6,1.4,155.4,1.4 M163.8,24.6l22.1-22.2c-0.2,0-0.3,0-0.6,0c-0.5,0-1,0-1.6,0.1c-0.6,0-1.1,0.1-1.6,0.2
		c-0.5,0.1-0.9,0.2-1.3,0.3c-0.6,0.2-1,0.5-1.5,1.1l-21,23.5l22.3,29.1c0.2,0.3,0.3,0.3,0.8,0.4c0.2,0,0.6,0,1.2,0
		c0.6,0,1.3-0.1,2.1-0.1c0.8-0.1,1.5-0.1,2.3-0.2c0.7-0.1,1.2-0.1,1.6-0.2l-24.7-31.8L163.8,24.6z M221.7,1.4c-0.1,0-0.6,0-1.3,0.1
		c-0.7,0.1-1.6,0.1-2.7,0.3c-1.1,0.1-2.3,0.3-3.8,0.5c-1.1,0.2-2.3,0.4-3.5,0.6l0,0.4c0.3,0,0.7,0,1,0c0.6,0,1.2,0.1,1.7,0.2
		c0.6,0.2,1.1,0.5,1.6,0.9c0.5,0.5,0.8,1.1,1,1.8c0.2,0.7,0.3,1.5,0.3,2.5l0,47.3c0,0.2,0.1,0.3,0.3,0.4c1.9,0,3.9-0.2,5.7-0.5V1.7
		C222,1.5,221.9,1.4,221.7,1.4 M96.2,2C80.6,2,72.3,14.3,72.3,29.5s8.4,27.5,23.9,27.5c15.5,0,23.9-12.3,23.9-27.5
		C120.1,14.3,111.7,2,96.2,2 M97,55.3c-11,0.4-17.8-10.9-18.2-25.1C78.3,16,84.4,4.2,95.4,3.7c10.9-0.4,17.8,10.9,18.2,25.1
		C114,43.1,107.9,54.9,97,55.3 M273.5,2c-15.5,0-23.9,12.3-23.9,27.5s8.4,27.5,23.9,27.5c15.5,0,23.9-12.3,23.9-27.5
		C297.4,14.3,289,2,273.5,2 M274.3,55.3c-11,0.4-17.8-10.9-18.2-25.1c-0.4-14.2,5.6-26.1,16.6-26.5s17.8,10.9,18.2,25.1
		C291.3,43.1,285.2,54.9,274.3,55.3"/>
	<g>
		<path class="st0" d="M69.8,113.7c0.2-2.9,0.2-5.1,0.2-5.2v-16c-4.3,2.7-8.5,5-17.2,7.1l-0.7-1.8c11.1-2.6,19.6-7.7,27.7-18.8
			l2.8,1.8c0.1,0.1,0.4,0.3,0.4,0.6c0,0.2-0.1,0.3-0.5,0.4c-0.4,0.2-0.6,0.3-0.9,0.5c-3.7,4.1-5.9,6-8.8,8.3v17.9
			c0,1.3,0.2,4.3,0.2,5.3L69.8,113.7L69.8,113.7z"/>
		<path class="st0" d="M95.6,109.8c2.1-0.3,5.1-0.7,9.1-2.1c3.8-1.4,7.3-3.2,10.5-5.6c6.8-5.1,9.3-10.4,10.6-13.2l1.5,1.2
			c-2.1,4.4-7.3,15.6-23.5,21.2c-1,0.4-5.9,1.7-6.5,2.1L95.6,109.8z M107.8,91.9c-3.7-4.6-6.3-6.6-11.3-8.2l1.2-1.7
			c5.4,1.6,9.2,3.9,12.9,6.8L107.8,91.9z"/>
		<path class="st0" d="M137.2,87.5c2.2,0.2,5.1,0.4,6.3,0.4h6.5c0.1-1.2,0.1-2.4,0.1-3.6c0-0.9,0-2.9-0.3-5.5l3.2,0.2
			c0.5,0,1.1,0.1,1.1,0.4c0,0.1,0,0.2-0.3,0.6c-0.3,0.4-0.4,0.5-0.4,0.8c0,1.9,0,4.2-0.2,6.9h7.6c1.3,0,5.4-0.2,7.6-0.4
			c-0.2,1.9-0.2,3.4-0.2,3.4c0,3.8-0.1,9.2-1.5,14.8c-1.3,5.2-2.8,7.2-4.4,7.2c-1,0-3-0.9-7.5-3.1l0.9-1.7c1.6,0.8,4.2,2.1,5.4,2.1
			c1.2,0,1.9-2.3,2.2-3.2c1.8-6,1.9-11.4,1.9-17.1h-12c-0.8,7.7-2.2,12.3-6,16.7c-3.6,4.2-6.9,5.3-10.9,6.6l-0.7-1.9
			c3.2-0.2,5.9-2.2,7.3-3.5c6.1-5.6,6.8-13.4,7.2-17.8h-6.4c-1.7,0-4.9,0.2-6.3,0.4L137.2,87.5L137.2,87.5z"/>
		<path class="st0" d="M185.8,110.3c2.3-0.1,6.2-0.2,10.8-2.7c3.4-1.8,5.8-4.8,7.3-7.4c1.9-3.4,2.9-8,2.9-8.1c0-0.2-0.2-0.2-0.3-0.2
			h-20.9c-1.5,0-4.4,0.2-6.4,0.4v-2.6c1.9,0.2,5.1,0.4,6.4,0.4h17.6c0.5,0,3.9-0.2,5.5-0.5l1.9,1.9c-0.1,0.2-0.1,0.2-0.2,0.4
			c-0.2,0.5-1.3,4.2-1.6,5c-4.9,14-16.8,15-22.6,15.5L185.8,110.3z M183.9,81.1c2.2,0.2,5.3,0.4,6.4,0.4h9.7c1.4,0,4.6-0.2,6.4-0.4
			v2.6c-2.2-0.2-5.1-0.4-6.4-0.4h-9.7c-1.5,0-4.4,0.2-6.4,0.4V81.1z"/>
		<path class="st0" d="M246.8,112.3c-1.8-1.3-5.3-3.7-11.5-5.8c-6.2-2.1-11.3-2.7-13.9-2.9l0.3-1.8c8.8,0.6,18.4,2.9,26.6,7.2
			L246.8,112.3z M244,87.3c-6.4-2.5-11.8-3.3-20.2-3.3l0.1-1.8c9.4,0,14.2,0.5,21.2,2L244,87.3z M242.8,98.3c-7.8-4-15.1-4.7-17.9-5
			l0.2-1.8c5.5,0.3,13.1,1.8,18.8,3.6L242.8,98.3z"/>
	</g>
</g>
</svg>
